<?xml version="1.0" encoding="UTF-8" standalone="no"?>
<!-- Created with Inkscape (http://www.inkscape.org/) -->

<svg
   xmlns:dc="http://purl.org/dc/elements/1.1/"
   xmlns:cc="http://creativecommons.org/ns#"
   xmlns:rdf="http://www.w3.org/1999/02/22-rdf-syntax-ns#"
   xmlns:svg="http://www.w3.org/2000/svg"
   xmlns="http://www.w3.org/2000/svg"
   xmlns:sodipodi="http://sodipodi.sourceforge.net/DTD/sodipodi-0.dtd"
   xmlns:inkscape="http://www.inkscape.org/namespaces/inkscape"
   width="128"
   height="128"
   viewBox="0 0 128.00001 128"
   id="svg2"
   version="1.1"
   inkscape:version="0.92.4 5da689c313, 2019-01-14"
   sodipodi:docname="func_firmware.svg"
   inkscape:export-filename="/home/la/projects/darkmini/icons/func_firmware.png"
   inkscape:export-xdpi="36"
   inkscape:export-ydpi="36">
  <defs
     id="defs4" />
  <sodipodi:namedview
     id="base"
     pagecolor="#21252e"
     bordercolor="#bebebe"
     borderopacity="1"
     inkscape:pageopacity="0"
     inkscape:pageshadow="2"
     inkscape:zoom="4"
     inkscape:cx="65.045284"
     inkscape:cy="59.520375"
     inkscape:document-units="px"
     inkscape:current-layer="g26"
     showgrid="false"
     inkscape:window-width="1332"
     inkscape:window-height="699"
     inkscape:window-x="46"
     inkscape:window-y="63"
     inkscape:window-maximized="0"
     units="px"
     inkscape:showpageshadow="true"
     showguides="true"
     inkscape:guide-bbox="true"
     inkscape:snap-global="true"
     inkscape:snap-bbox="true"
     inkscape:snap-others="true"
     fit-margin-top="0"
     fit-margin-left="0"
     fit-margin-right="0"
     fit-margin-bottom="0">
    <sodipodi:guide
       position="61.440015,85.90222"
       orientation="0,1"
       id="guide4543"
       inkscape:locked="false" />
    <sodipodi:guide
       position="51.200014,42.097772"
       orientation="0,1"
       id="guide4545"
       inkscape:locked="false" />
    <sodipodi:guide
       position="51.200012,85.902223"
       orientation="1,0"
       id="guide4547"
       inkscape:locked="false" />
    <sodipodi:guide
       position="76.800016,85.90222"
       orientation="1,0"
       id="guide4549"
       inkscape:locked="false" />
    <sodipodi:guide
       position="64.081557,80.516261"
       orientation="0,1"
       id="guide4551"
       inkscape:locked="false" />
    <sodipodi:guide
       position="41.244453,76.799998"
       orientation="1,0"
       id="guide4553"
       inkscape:locked="false" />
    <sodipodi:guide
       position="56.320014,85.90222"
       orientation="1,0"
       id="guide4555"
       inkscape:locked="false" />
    <sodipodi:guide
       position="61.440017,85.902217"
       orientation="1,0"
       id="guide4557"
       inkscape:locked="false" />
    <sodipodi:guide
       position="66.560015,85.90222"
       orientation="1,0"
       id="guide4559"
       inkscape:locked="false" />
    <sodipodi:guide
       position="71.680016,85.90222"
       orientation="1,0"
       id="guide4561"
       inkscape:locked="false" />
    <sodipodi:guide
       position="41.244455,76.799995"
       orientation="0,1"
       id="guide4563"
       inkscape:locked="false" />
    <sodipodi:guide
       position="41.244453,71.679998"
       orientation="0,1"
       id="guide4565"
       inkscape:locked="false" />
    <sodipodi:guide
       position="41.244453,61.439998"
       orientation="0,1"
       id="guide4567"
       inkscape:locked="false" />
    <sodipodi:guide
       position="41.244453,56.319998"
       orientation="0,1"
       id="guide4569"
       inkscape:locked="false" />
    <sodipodi:guide
       position="41.244453,51.199998"
       orientation="0,1"
       id="guide4571"
       inkscape:locked="false" />
    <sodipodi:guide
       position="64.012504,95.984222"
       orientation="0,1"
       id="guide4584"
       inkscape:locked="false" />
    <sodipodi:guide
       position="53.760014,32.000002"
       orientation="0,1"
       id="guide4586"
       inkscape:locked="false" />
    <sodipodi:guide
       position="31.996583,63.993166"
       orientation="1,0"
       id="guide4588"
       inkscape:locked="false" />
    <sodipodi:guide
       position="95.989749,63.838486"
       orientation="1,0"
       id="guide4590"
       inkscape:locked="false" />
    <sodipodi:guide
       position="86.755577,76.799998"
       orientation="1,0"
       id="guide4592"
       inkscape:locked="false" />
    <sodipodi:guide
       position="81.49406,64.258331"
       orientation="1,0"
       id="guide4594"
       inkscape:locked="false" />
    <sodipodi:guide
       position="46.492274,64.081552"
       orientation="1,0"
       id="guide4596"
       inkscape:locked="false" />
    <sodipodi:guide
       position="63.905635,47.382452"
       orientation="0,1"
       id="guide4598"
       inkscape:locked="false" />
    <sodipodi:guide
       position="86.755577,66.559998"
       orientation="0,1"
       id="guide4602"
       inkscape:locked="false" />
  </sodipodi:namedview>
  <metadata
     id="metadata7">
    <rdf:RDF>
      <cc:Work
         rdf:about="">
        <dc:format>image/svg+xml</dc:format>
        <dc:type
           rdf:resource="http://purl.org/dc/dcmitype/StillImage" />
        <dc:title></dc:title>
      </cc:Work>
    </rdf:RDF>
  </metadata>
  <g
     inkscape:label="Layer 1"
     inkscape:groupmode="layer"
     id="layer1"
     style="opacity:0.98999999"
     transform="translate(-163.00088,-19.812872)">
    <path
       style="fill:#000000"
       d=""
       id="path4134"
       inkscape:connector-curvature="0" />
    <g
       id="g26"
       style="fill:#ecf0f1;fill-opacity:0.99215686">
      <path
         style="fill:#ecf0f1;fill-opacity:0.99215686;stroke-width:0.28444445"
         d="m 214.20089,115.81287 c 0,0 0.0899,-7.34083 0,-10.09777 h -9.95556 v -9.102226 l -9.24787,2e-6 v -5.12 l 9.24787,-2e-6 c 0,-1.706667 0,-3.413333 0,-5.12 l -9.24787,2e-6 0,-5.119999 9.24787,-3e-6 c 0,-1.706667 0,-3.413333 0,-5.12 l -9.24787,3e-6 0,-5.119997 9.24787,0 c 0,0 0.004,-6.609774 0,-9.102225 4.20567,0 9.95556,-3e-6 9.95556,-3e-6 l 0,-10.081998 5.12,0 0,10.081998 h 5.12 l 0,-10.081998 h 5.12 l 0,10.081998 h 5.12 l 0,-10.081998 h 5.12 l 0,10.082001 c 0,0 5.98045,0 9.95556,0 v 9.102219 l 9.23418,6e-6 0,5.119997 -9.23418,-3e-6 v 5.12 l 9.23418,3e-6 0,5.119999 -9.23418,-2e-6 c 0,0 0,3.413333 0,5.12 l 9.23418,2e-6 v 5.12 l -9.23418,-2e-6 v 9.102226 c -5.26151,0 -9.95556,0 -9.95556,0 v 10.09777 h -5.12 V 105.7151 h -5.12 v 10.09777 h -5.12 V 105.7151 h -5.12 v 10.09777 z m 30.29405,-15.38245 c -2.9e-4,-10.93698 -4.8e-4,-22.196824 0,-33.133806 -12.11655,0.01163 -22.68398,0.02392 -35.00179,0 0.0211,11.044607 0.01,22.0892 0,33.133806 z m -30.29405,-3.817544 c 0.22435,-8.533733 0.0988,-17.065588 0,-25.599996 5.12,0 19.12714,0.0041 25.6,0 0,0 -0.0856,17.866028 0,25.599996 z m 20.48,-5.12 V 76.132877 h -15.36 c 0.14363,4.866544 0,10.492078 0,15.359999 z"
         id="path28"
         inkscape:connector-curvature="0"
         sodipodi:nodetypes="cccccccccccccccccccccccccccccccccccccccccccccccccccccccccccccccccccc" />
    </g>
  </g>
</svg>
