<?xml version="1.0" encoding="UTF-8" standalone="no"?>
<!-- Created with Inkscape (http://www.inkscape.org/) -->

<svg
   width="400"
   height="400"
   viewBox="0 0 375.00001 375.00003"
   id="svg2"
   version="1.1"
   inkscape:version="1.1.2 (0a00cf5339, 2022-02-04)"
   sodipodi:docname="func_firmware.svg"
   inkscape:export-filename="../icons/func_firmware.png"
   inkscape:export-xdpi="11.52"
   inkscape:export-ydpi="11.52"
   xmlns:inkscape="http://www.inkscape.org/namespaces/inkscape"
   xmlns:sodipodi="http://sodipodi.sourceforge.net/DTD/sodipodi-0.dtd"
   xmlns="http://www.w3.org/2000/svg"
   xmlns:svg="http://www.w3.org/2000/svg"
   xmlns:rdf="http://www.w3.org/1999/02/22-rdf-syntax-ns#"
   xmlns:cc="http://creativecommons.org/ns#"
   xmlns:dc="http://purl.org/dc/elements/1.1/">
  <defs
     id="defs4" />
  <sodipodi:namedview
     id="base"
     pagecolor="#21252e"
     bordercolor="#bebebe"
     borderopacity="1"
     inkscape:pageopacity="0"
     inkscape:pageshadow="2"
     inkscape:zoom="0.88591022"
     inkscape:cx="214.46869"
     inkscape:cy="52.488389"
     inkscape:document-units="px"
     inkscape:current-layer="g4016"
     showgrid="false"
     inkscape:window-width="1942"
     inkscape:window-height="1082"
     inkscape:window-x="600"
     inkscape:window-y="156"
     inkscape:window-maximized="0"
     units="px"
     inkscape:showpageshadow="false"
     showguides="true"
     inkscape:guide-bbox="true"
     inkscape:snap-global="true"
     inkscape:snap-bbox="true"
     inkscape:snap-others="false"
     fit-margin-top="0"
     fit-margin-left="0"
     fit-margin-right="0"
     fit-margin-bottom="0"
     inkscape:pagecheckerboard="0"
     width="400px"
     inkscape:bbox-paths="true"
     inkscape:bbox-nodes="true"
     inkscape:snap-nodes="true">
    <sodipodi:guide
       position="84.375004,375.00002"
       orientation="-1,0"
       id="guide839"
       inkscape:label=""
       inkscape:locked="false"
       inkscape:color="rgb(0,0,255)" />
    <sodipodi:guide
       position="290.62502,375.00002"
       orientation="-1,0"
       id="guide841"
       inkscape:label=""
       inkscape:locked="false"
       inkscape:color="rgb(0,0,255)" />
    <sodipodi:guide
       position="0,290.62502"
       orientation="0,1"
       id="guide843"
       inkscape:label=""
       inkscape:locked="false"
       inkscape:color="rgb(0,0,255)" />
    <sodipodi:guide
       position="0,84.375004"
       orientation="0,1"
       id="guide845"
       inkscape:label=""
       inkscape:locked="false"
       inkscape:color="rgb(0,0,255)" />
  </sodipodi:namedview>
  <metadata
     id="metadata7">
    <rdf:RDF>
      <cc:Work
         rdf:about="">
        <dc:format>image/svg+xml</dc:format>
        <dc:type
           rdf:resource="http://purl.org/dc/dcmitype/StillImage" />
      </cc:Work>
    </rdf:RDF>
  </metadata>
  <g
     inkscape:label="Layer 1"
     inkscape:groupmode="layer"
     id="layer1"
     style="opacity:0.96"
     transform="translate(-39.167521,88.250195)">
    <path
       style="fill:#000000"
       d=""
       id="path4134"
       inkscape:connector-curvature="0" />
    <g
       transform="translate(-141.01382,-425.49872)"
       style="display:inline"
       inkscape:label="debian vector"
       id="layer3">
      <g
         id="g4573"
         transform="translate(131.00657,-3.8976736)">
        <g
           id="g4627"
           style="opacity:0.99">
          <g
             id="g4740"
             transform="translate(-34.291185,268.4348)">
            <g
               transform="translate(380.29592,62.962549)"
               id="g4109">
              <g
                 transform="matrix(0.77230011,0,0,0.77230011,-239.76484,-6.9998595)"
                 style="fill:#ffffff;fill-opacity:1"
                 id="g4077">
                <g
                   id="layer1-5"
                   inkscape:label="Layer 1"
                   transform="matrix(1.2948334,0,0,1.2948334,-524.75052,-387.7468)">
                  <g
                     transform="translate(105.76257,-1.6247732)"
                     id="g6445">
                    <g
                       id="g6415"
                       transform="matrix(3.0715506,0,0,3.0715506,-521.15168,-1035.6235)">
                      <g
                         transform="translate(126.06579,-105.54595)"
                         id="g4016">
                        <g
                           id="g4182"
                           transform="matrix(0.61815127,0,0,0.61815127,205.2279,224.79962)" />
                        <path
                           style="opacity:0.99;fill:#ecf0f1;fill-opacity:1;stroke-width:0.29849"
                           d="m 170.1548,640.80619 c 0,0 0.0941,-7.7039 0,-10.59717 h -10.44643 v -9.55238 l -9.70386,4e-5 v -5.37321 h 9.70386 c 0,-1.79108 0,-3.58214 0,-5.37322 h -9.70386 v -5.37321 h 9.70386 c 0,-1.79106 0,-3.58214 0,-5.3732 h -9.70386 v -5.37321 h 9.70386 c 0,0 0.003,-6.93667 0,-9.55235 4.41305,0 10.44643,0 10.44643,0 v -10.58059 h 5.37246 v 10.58059 h 5.37245 v -10.58059 h 5.37246 v 10.58059 h 5.37245 v -10.58059 h 5.37246 v 10.58059 c 0,0 6.2753,0 10.44643,0 v 9.55235 h 9.6895 v 5.37321 h -9.6895 v 5.3732 h 9.6895 v 5.37321 h -9.6895 c 0,0 0,3.58214 0,5.37322 h 9.6895 v 5.37321 l -9.6895,-4e-5 v 9.55238 c -5.52092,0 -10.44643,0 -10.44643,0 v 10.59717 h -5.37246 v -10.59717 h -5.37245 v 10.59717 h -5.37246 v -10.59717 h -5.37245 v 10.59717 z M 201.94259,624.663 c -3.2e-4,-11.47785 -5.3e-4,-23.29456 0,-34.77242 -12.71399,0.0132 -23.80248,0.0241 -36.72766,0 0.0206,11.5908 0.01,23.18161 0,34.77242 z m -31.78779,-4.00632 c 0.23549,-8.95577 0.10386,-17.90957 0,-26.86605 5.37246,0 20.07026,0.004 26.86228,0 0,0 -0.0898,18.74959 0,26.86605 z m 21.48982,-5.37321 v -16.11963 h -16.11736 c 0.15051,5.10722 0,11.01096 0,16.11963 z"
                           id="path28"
                           inkscape:connector-curvature="0"
                           sodipodi:nodetypes="cccccccccccccccccccccccccccccccccccccccccccccccccccccccccccccccccccc"
                           inkscape:export-filename="../icons/path28.png"
                           inkscape:export-xdpi="36"
                           inkscape:export-ydpi="36" />
                      </g>
                    </g>
                  </g>
                </g>
              </g>
            </g>
          </g>
        </g>
      </g>
    </g>
  </g>
</svg>
