<?xml version="1.0" encoding="UTF-8" standalone="no"?>
<!-- Created with Inkscape (http://www.inkscape.org/) -->

<svg
   width="400"
   height="400"
   viewBox="0 0 375.00001 375.00003"
   id="svg2"
   version="1.1"
   inkscape:version="1.1.2 (0a00cf5339, 2022-02-04)"
   sodipodi:docname="os_bazzite.svg"
   inkscape:export-filename="../icons/os_bazzite.png"
   inkscape:export-xdpi="30.719999"
   inkscape:export-ydpi="30.719999"
   xmlns:inkscape="http://www.inkscape.org/namespaces/inkscape"
   xmlns:sodipodi="http://sodipodi.sourceforge.net/DTD/sodipodi-0.dtd"
   xmlns="http://www.w3.org/2000/svg"
   xmlns:svg="http://www.w3.org/2000/svg"
   xmlns:rdf="http://www.w3.org/1999/02/22-rdf-syntax-ns#"
   xmlns:cc="http://creativecommons.org/ns#"
   xmlns:dc="http://purl.org/dc/elements/1.1/">
  <defs
     id="defs4" />
  <sodipodi:namedview
     id="base"
     pagecolor="#21252e"
     bordercolor="#bebebe"
     borderopacity="1"
     inkscape:pageopacity="0"
     inkscape:pageshadow="2"
     inkscape:zoom="4"
     inkscape:cx="209.19716"
     inkscape:cy="186.59632"
     inkscape:document-units="px"
     inkscape:current-layer="svg2"
     showgrid="false"
     inkscape:window-width="2486"
     inkscape:window-height="1376"
     inkscape:window-x="74"
     inkscape:window-y="27"
     inkscape:window-maximized="1"
     units="px"
     inkscape:showpageshadow="true"
     showguides="true"
     inkscape:guide-bbox="true"
     inkscape:snap-global="true"
     inkscape:snap-bbox="true"
     inkscape:snap-others="true"
     fit-margin-top="0"
     fit-margin-left="0"
     fit-margin-right="0"
     fit-margin-bottom="0"
     inkscape:pagecheckerboard="0"
     inkscape:snap-bbox-edge-midpoints="true"
     inkscape:bbox-paths="true">
    <sodipodi:guide
       position="93.750005,375.00002"
       orientation="-1,0"
       id="guide848"
       inkscape:label=""
       inkscape:locked="false"
       inkscape:color="rgb(0,0,255)" />
    <sodipodi:guide
       position="0,281.25001"
       orientation="0,1"
       id="guide850"
       inkscape:label=""
       inkscape:locked="false"
       inkscape:color="rgb(0,0,255)" />
    <sodipodi:guide
       position="281.25001,375.00002"
       orientation="-1,0"
       id="guide852"
       inkscape:label=""
       inkscape:locked="false"
       inkscape:color="rgb(0,0,255)" />
    <sodipodi:guide
       position="0,93.750005"
       orientation="0,1"
       id="guide854"
       inkscape:label=""
       inkscape:locked="false"
       inkscape:color="rgb(0,0,255)" />
    <sodipodi:guide
       position="149.75628,209.02871"
       orientation="0,-1"
       id="guide3361" />
    <sodipodi:guide
       position="151.01514,234.36686"
       orientation="0,-1"
       id="guide3363" />
    <sodipodi:guide
       position="140.62708,262.33123"
       orientation="1,0"
       id="guide5379" />
    <sodipodi:guide
       position="165.94054,229.44548"
       orientation="1,0"
       id="guide5381" />
    <sodipodi:guide
       position="109.69849,195.14085"
       orientation="1,0"
       id="guide10906" />
    <sodipodi:guide
       position="196.88687,221.34739"
       orientation="1,0"
       id="guide10965" />
    <sodipodi:guide
       position="149.97984,265.26636"
       orientation="0,-1"
       id="guide11309" />
    <sodipodi:guide
       position="149.64195,178.09148"
       orientation="0,-1"
       id="guide11349" />
    <sodipodi:guide
       position="152.25917,221.72809"
       orientation="0,-1"
       id="guide12631" />
    <sodipodi:guide
       position="119.92459,227.80625"
       orientation="1,0"
       id="guide12994" />
    <sodipodi:guide
       position="153.29556,245.72692"
       orientation="1,0"
       id="guide13827" />
    <sodipodi:guide
       position="97.524741,242.82365"
       orientation="1,0"
       id="guide14293" />
    <sodipodi:guide
       position="209.08662,289.68228"
       orientation="1,0"
       id="guide14295" />
    <sodipodi:guide
       position="136.53664,277.42247"
       orientation="0,-1"
       id="guide14297" />
    <sodipodi:guide
       position="126.52254,165.93904"
       orientation="0,-1"
       id="guide14451" />
  </sodipodi:namedview>
  <metadata
     id="metadata7">
    <rdf:RDF>
      <cc:Work
         rdf:about="">
        <dc:format>image/svg+xml</dc:format>
        <dc:type
           rdf:resource="http://purl.org/dc/dcmitype/StillImage" />
      </cc:Work>
    </rdf:RDF>
  </metadata>
  <path
     style="display:inline;fill:#c2c2c2;fill-opacity:1;stroke-width:0.459308"
     d="m 176.19694,280.7894 c -16.41614,-2.06641 -31.88166,-8.30783 -45.10051,-18.2012 -4.9043,-3.67052 -12.8532,-11.46774 -17.0748,-16.74898 -10.88484,-13.617 -17.740425,-30.30318 -19.715831,-47.98732 -0.347413,-3.11017 -0.468158,-15.83341 -0.373124,-39.315 l 0.140509,-34.71671 1.497788,-4.29964 C 99.764206,107.48321 108.22202,99.23206 120.68311,95.021989 l 3.21153,-1.085057 34.8682,-0.140646 c 29.8075,-0.120261 35.71178,-0.03404 40.68057,0.594286 21.39406,2.705119 40.14173,12.205578 55.44482,28.096918 17.18017,17.84056 26.14266,40.10356 26.14266,64.93901 0,20.84956 -6.1843,39.61015 -18.61994,56.48515 -3.19422,4.33449 -11.0958,12.56776 -15.66649,16.32409 -13.37373,10.99094 -29.82758,18.11191 -47.05794,20.36596 -5.85144,0.76547 -18.1207,0.86352 -23.48958,0.1877 z m -10.2564,-83.88086 v -30.93723 h 30.94633 c 12.19975,-3.71203 12.19975,-21.47904 0,-25.33815 -10.59935,-0.0434 -31.01965,-0.18293 -31.01965,-0.18293 l 0.0733,-30.71657 c -3.72973,-12.15611 -21.54006,-12.15611 -25.31346,0 0,11.85525 2.4e-4,17.10442 0,30.8995 -7.83458,8.4e-4 -26.47263,0 -30.92859,0 -12.173729,3.76116 -12.173729,21.60452 0,25.33815 h 30.92859 v 30.93723 c 3.89522,12.15244 21.60098,12.15244 25.31346,0 z"
     id="path2680"
     sodipodi:nodetypes="ssssscsscscsssssscccccccccccccc" />
  <path
     id="path4629"
     style="display:inline;opacity:1;fill:#ecf0f1;stroke:none;stroke-width:0.506717;stroke-miterlimit:4;stroke-dasharray:none"
     d="m 174.64194,93.74451 c -2.92441,-0.0088 -5.84993,0.0034 -8.77472,0.0055 -0.001,16.00162 -0.0702,29.63727 0,46.70022 h 56.92193 c 7.7853,1.34034 14.4541,6.5845 20.41317,12.52399 5.5155,5.49736 8.14552,10.05594 10.30389,17.86673 1.2417,4.49365 1.10679,16.06943 -0.26802,22.99435 -2.98709,15.04579 -9.84507,27.89257 -20.66467,38.71002 -6.16638,6.16516 -12.04091,10.42218 -19.43474,14.08672 -10.9511,5.4276 -20.13586,7.6016 -32.15812,7.60963 -7.0069,0.005 -7.96984,-0.0982 -11.71003,-1.25203 -7.05057,-2.17507 -12.30744,-5.36892 -17.00242,-10.3288 -4.44468,-4.75693 -10.50857,-9.87231 -11.77979,-19.5122 v -57.257 c -13.47062,0.004 -30.563,0.0711 -46.547575,0.071 0,14.73234 -0.574673,29.67497 2.662906,43.81813 7.653119,35.13399 37.997679,63.03254 73.015669,69.52358 33.21618,7.13645 69.65641,-5.82166 90.63122,-32.68886 21.60921,-25.53858 26.98236,-63.07462 14.06159,-93.85454 -12.78267,-32.91127 -45.26465,-57.118381 -80.61186,-58.845471 -6.35137,-0.10139 -12.70425,-0.151685 -19.05843,-0.170991 z m -34.16567,-0.0032 c -5.04097,-0.0473 -10.07782,0 -15.10867,0.08038 -1.57007,0.247794 -2.73901,0.5849 -4.21663,1.003826 -12.73544,3.610646 -22.581707,13.382544 -26.272796,26.073874 -0.392515,1.34962 -0.651472,2.68716 -0.838924,4.46393 -0.02542,5.02707 -0.0317,10.05581 -0.01285,15.08688 h 46.46202 z m 77.66117,72.09516 c -1.97548,-0.0286 -5.19648,0.0551 -11.11895,0.0551 h -41.15127 c -4.2e-4,15.0325 0.13316,35.231 0,53.66269 l 0.92153,2.70446 c 1.08576,3.18184 4.71602,6.07529 7.7963,7.37246 2.94952,1.24212 11.94235,0.88913 18.05794,-0.70783 21.28266,-5.55748 36.71919,-24.44541 37.70931,-46.14314 0.2573,-5.63867 0.22657,-5.90365 -1.01699,-8.67414 -1.47048,-3.27601 -4.33222,-6.07327 -7.55398,-7.64272 -0.93794,-0.4569 -1.66842,-0.59825 -3.64389,-0.62694 z"
     sodipodi:nodetypes="scccssssscscccccccccssccsscccccscccssssscc" />
  <path
     id="path12418"
     style="display:inline;opacity:1;fill:#ffffff;fill-opacity:1;stroke:none;stroke-width:0.505044;stroke-miterlimit:4;stroke-dasharray:none"
     d="m 118.52052,147.3285 c -1.3582,0.1307 -2.54384,0.8853 -3.72002,1.517 -1.4425,0.85765 -2.93361,1.66227 -4.23195,2.73481 -0.54386,0.44126 -0.94534,1.10308 -0.87006,1.82552 -0.0544,0.98183 0.77048,1.66374 1.4897,2.18096 1.5578,1.07891 3.19709,2.04061 4.87187,2.92588 0.93465,0.44623 1.95715,0.9886 3.02481,0.7858 0.56242,-0.12316 1.06163,-0.54516 1.16434,-1.1305 0.44928,-1.76242 0.44806,-3.60264 0.44839,-5.41013 -0.0484,-1.48214 -0.0723,-2.99762 -0.50626,-4.42759 -0.19401,-0.70698 -0.99406,-1.03623 -1.67082,-1.00175 z" />
  <path
     id="path13829"
     style="display:inline;opacity:1;fill:#ffffff;fill-opacity:1;stroke:none;stroke-width:0.505044;stroke-miterlimit:4;stroke-dasharray:none"
     d="m 188.05575,147.26627 c 1.3582,0.1307 2.54384,0.8853 3.72002,1.517 1.4425,0.85765 2.93361,1.66227 4.23195,2.73481 0.54386,0.44126 0.94534,1.10308 0.87006,1.82552 0.0544,0.98183 -0.77048,1.66374 -1.4897,2.18096 -1.5578,1.07891 -3.19709,2.04061 -4.87187,2.92588 -0.93465,0.44623 -1.95715,0.9886 -3.02481,0.7858 -0.56242,-0.12316 -1.06163,-0.54516 -1.16434,-1.1305 -0.44928,-1.76242 -0.44806,-3.60264 -0.44839,-5.41013 0.0484,-1.48214 0.0723,-2.99762 0.50626,-4.42759 0.19401,-0.70698 0.99406,-1.03623 1.67082,-1.00175 z" />
  <path
     id="path13831"
     style="display:inline;opacity:1;fill:#ffffff;fill-opacity:1;stroke:none;stroke-width:0.505044;stroke-miterlimit:4;stroke-dasharray:none"
     d="m 147.21823,118.55569 c 0.1307,-1.3582 0.8853,-2.54384 1.517,-3.72002 0.85765,-1.4425 1.66227,-2.93361 2.73481,-4.23195 0.44126,-0.54386 1.10308,-0.94534 1.82552,-0.87006 0.98183,-0.0544 1.66374,0.77048 2.18096,1.4897 1.07891,1.5578 2.04061,3.19709 2.92588,4.87187 0.44623,0.93465 0.9886,1.95715 0.7858,3.02481 -0.12316,0.56242 -0.54516,1.06163 -1.1305,1.16434 -1.76242,0.44928 -3.60264,0.44806 -5.41013,0.44839 -1.48214,-0.0484 -2.99762,-0.0723 -4.42759,-0.50626 -0.70698,-0.19401 -1.03623,-0.99406 -1.00175,-1.67082 z" />
  <path
     id="path13833"
     style="display:inline;opacity:1;fill:#ffffff;fill-opacity:1;stroke:none;stroke-width:0.505044;stroke-miterlimit:4;stroke-dasharray:none"
     d="m 147.2899,188.07742 c 0.1307,1.3582 0.8853,2.54384 1.517,3.72002 0.85765,1.4425 1.66227,2.93361 2.73481,4.23195 0.44126,0.54386 1.10308,0.94534 1.82552,0.87006 0.98183,0.0544 1.66374,-0.77048 2.18096,-1.4897 1.07891,-1.5578 2.04061,-3.19709 2.92588,-4.87187 0.44623,-0.93465 0.9886,-1.95715 0.7858,-3.02481 -0.12316,-0.56242 -0.54516,-1.06163 -1.1305,-1.16434 -1.76242,-0.44928 -3.60264,-0.44806 -5.41013,-0.44839 -1.48214,0.0484 -2.99762,0.0723 -4.42759,0.50626 -0.70698,0.19401 -1.03623,0.99406 -1.00175,1.67082 z" />
</svg>
