<?xml version="1.0" encoding="UTF-8" standalone="no"?>
<!-- Created with Inkscape (http://www.inkscape.org/) -->

<svg
   width="400"
   height="400"
   viewBox="0 0 375.00001 375.00003"
   id="svg2"
   version="1.1"
   inkscape:version="1.1.2 (0a00cf5339, 2022-02-04)"
   sodipodi:docname="os_elementary.svg"
   inkscape:export-filename="../icons/os_elementary.png"
   inkscape:export-xdpi="30.719999"
   inkscape:export-ydpi="30.719999"
   xmlns:inkscape="http://www.inkscape.org/namespaces/inkscape"
   xmlns:sodipodi="http://sodipodi.sourceforge.net/DTD/sodipodi-0.dtd"
   xmlns="http://www.w3.org/2000/svg"
   xmlns:svg="http://www.w3.org/2000/svg"
   xmlns:rdf="http://www.w3.org/1999/02/22-rdf-syntax-ns#"
   xmlns:cc="http://creativecommons.org/ns#"
   xmlns:dc="http://purl.org/dc/elements/1.1/">
  <defs
     id="defs4" />
  <sodipodi:namedview
     id="base"
     pagecolor="#21252e"
     bordercolor="#bebebe"
     borderopacity="1"
     inkscape:pageopacity="0"
     inkscape:pageshadow="2"
     inkscape:zoom="1.2528663"
     inkscape:cx="279.35943"
     inkscape:cy="117.73004"
     inkscape:document-units="px"
     inkscape:current-layer="g4016"
     showgrid="false"
     inkscape:window-width="1942"
     inkscape:window-height="1082"
     inkscape:window-x="258"
     inkscape:window-y="191"
     inkscape:window-maximized="0"
     units="px"
     inkscape:showpageshadow="false"
     showguides="true"
     inkscape:guide-bbox="true"
     inkscape:snap-global="true"
     inkscape:snap-bbox="true"
     inkscape:snap-others="false"
     fit-margin-top="0"
     fit-margin-left="0"
     fit-margin-right="0"
     fit-margin-bottom="0"
     inkscape:pagecheckerboard="0"
     width="400px"
     inkscape:snap-bbox-edge-midpoints="true"
     inkscape:snap-nodes="false">
    <sodipodi:guide
       position="93.750005,375.00002"
       orientation="-1,0"
       id="guide839"
       inkscape:label=""
       inkscape:locked="false"
       inkscape:color="rgb(0,0,255)" />
    <sodipodi:guide
       position="281.25001,375.00002"
       orientation="-1,0"
       id="guide841"
       inkscape:label=""
       inkscape:locked="false"
       inkscape:color="rgb(0,0,255)" />
    <sodipodi:guide
       position="0,281.25001"
       orientation="0,1"
       id="guide843"
       inkscape:label=""
       inkscape:locked="false"
       inkscape:color="rgb(0,0,255)" />
    <sodipodi:guide
       position="0,93.750005"
       orientation="0,1"
       id="guide845"
       inkscape:label=""
       inkscape:locked="false"
       inkscape:color="rgb(0,0,255)" />
  </sodipodi:namedview>
  <metadata
     id="metadata7">
    <rdf:RDF>
      <cc:Work
         rdf:about="">
        <dc:format>image/svg+xml</dc:format>
        <dc:type
           rdf:resource="http://purl.org/dc/dcmitype/StillImage" />
      </cc:Work>
    </rdf:RDF>
  </metadata>
  <g
     inkscape:label="Layer 1"
     inkscape:groupmode="layer"
     id="layer1"
     style="opacity:0.96"
     transform="translate(-39.167521,88.250195)">
    <path
       style="fill:#000000"
       d=""
       id="path4134"
       inkscape:connector-curvature="0" />
    <g
       transform="translate(-141.01382,-425.49872)"
       style="display:inline"
       inkscape:label="debian vector"
       id="layer3">
      <g
         id="g4573"
         transform="translate(131.00657,-3.8976736)">
        <g
           id="g4627"
           style="opacity:0.99">
          <g
             id="g4740"
             transform="translate(-34.291185,268.4348)">
            <g
               transform="translate(380.29592,62.962549)"
               id="g4109">
              <g
                 transform="matrix(0.77230011,0,0,0.77230011,-239.76484,-6.9998595)"
                 style="fill:#ffffff;fill-opacity:1"
                 id="g4077">
                <g
                   id="layer1-5"
                   inkscape:label="Layer 1"
                   transform="matrix(1.2948334,0,0,1.2948334,-524.75052,-387.7468)">
                  <g
                     transform="translate(105.76257,-1.6247732)"
                     id="g6445">
                    <g
                       id="g6415"
                       transform="matrix(3.0715506,0,0,3.0715506,-521.15168,-1035.6235)">
                      <g
                         transform="translate(126.06579,-105.54595)"
                         id="g4016">
                        <g
                           id="g4182"
                           transform="matrix(0.61815127,0,0,0.61815127,205.2279,224.79962)" />
                        <path
                           style="display:inline;opacity:0.96;fill:#ecf0f1;stroke-width:0.313502"
                           d="m 181.7154,637.69549 c -11.81139,-0.63166 -22.03224,-8.51434 -26.10918,-18.24188 -5.1418,-11.57738 -2.41938,-25.79111 7.3817,-34.75833 6.9545,-6.51187 17.82921,-9.59213 27.61416,-7.15277 12.13271,2.79334 20.88494,12.89562 22.89338,23.71546 2.4074,11.57932 -2.44024,24.49409 -13.21368,31.5024 -5.30472,3.51865 -11.96586,5.35251 -18.56638,4.93512 z m 3.6274,-2.35201 c 11.45036,-0.62689 21.17615,-8.59514 24.57077,-18.1813 1.61601,-4.38203 2.24478,-9.09503 1.54561,-13.67928 -1.73879,2.25649 -3.12126,5.22021 -5.10437,7.50901 -5.28948,6.74061 -12.68585,13.20749 -22.17794,14.38479 -4.62599,0.54523 -9.43202,-0.71854 -12.99581,-3.43638 -2.94498,1.31508 -6.05662,2.30522 -9.22887,3.07686 0.81971,1.73246 2.81606,3.13183 4.35465,4.47575 5.20138,4.02164 12.14312,6.31746 19.03596,5.85055 z m -0.61257,-13.18303 c 8.25225,-1.11744 14.5341,-6.83464 19.43199,-12.48152 2.61505,-3.1162 4.81161,-6.51125 6.53605,-10.09078 -2.67285,-9.99398 -11.88687,-18.86017 -23.51957,-20.30404 -9.30078,-1.28369 -18.81703,2.66217 -24.59173,9.16176 -8.29237,9.35514 -9.55326,23.21832 -2.95922,33.62075 3.13393,-0.35877 6.19386,-1.16096 9.14844,-2.15207 -0.50236,-1.18219 -1.73875,-2.25166 -2.35018,-3.48944 -3.62281,-6.4596 -3.26253,-14.31628 0.17525,-20.773 3.09328,-5.98078 8.79408,-11.79042 16.48338,-12.61439 4.85231,-0.42228 9.78207,2.24574 11.42203,6.40792 2.69944,6.09943 -0.32559,12.83291 -4.26975,17.90318 -4.00564,5.24838 -9.49807,9.45053 -15.40361,12.88278 2.77014,1.74377 6.53216,2.35522 9.89692,1.92885 z m -11.43451,-4.11152 c 7.65129,-3.68067 14.31753,-9.38132 18.00214,-16.48956 2.4524,-4.55987 2.73671,-10.84201 -1.52536,-14.64794 -3.35826,-3.02729 -8.97541,-2.63996 -12.53391,-0.13391 -5.20125,3.53307 -7.91702,9.29169 -9.45769,14.81555 -1.47891,5.66461 -0.55988,12.25962 4.10612,16.578 0.32583,0.65391 0.93362,0.009 1.4087,-0.12214 z"
                           id="path4575"
                           inkscape:connector-curvature="0"
                           sodipodi:nodetypes="sscccsscccccsscccsccscscscccsscccccsscccsscccsccccsccccssscsscccscccsscsscsscccsscccscccsscccsccccccccccsccccscccsccccccscsscssccccscssccccscsscssccccscccscc" />
                      </g>
                    </g>
                  </g>
                </g>
              </g>
            </g>
          </g>
        </g>
      </g>
    </g>
  </g>
</svg>
