<?xml version="1.0" encoding="UTF-8" standalone="no"?>
<!-- Created with Inkscape (http://www.inkscape.org/) -->

<svg
   xmlns:dc="http://purl.org/dc/elements/1.1/"
   xmlns:cc="http://creativecommons.org/ns#"
   xmlns:rdf="http://www.w3.org/1999/02/22-rdf-syntax-ns#"
   xmlns:svg="http://www.w3.org/2000/svg"
   xmlns="http://www.w3.org/2000/svg"
   xmlns:sodipodi="http://sodipodi.sourceforge.net/DTD/sodipodi-0.dtd"
   xmlns:inkscape="http://www.inkscape.org/namespaces/inkscape"
   width="110mm"
   height="110mm"
   viewBox="0 0 389.76378 389.7638"
   id="svg2"
   version="1.1"
   inkscape:version="0.91 r13725"
   sodipodi:docname="os_elementary.svg"
   inkscape:export-filename="/home/rain/minidark/icons/os_elementary.png"
   inkscape:export-xdpi="59.150166"
   inkscape:export-ydpi="59.150166">
  <defs
     id="defs4" />
  <sodipodi:namedview
     id="base"
     pagecolor="#21252e"
     bordercolor="#bebebe"
     borderopacity="1"
     inkscape:pageopacity="0"
     inkscape:pageshadow="2"
     inkscape:zoom="0.82427891"
     inkscape:cx="186.79323"
     inkscape:cy="241.64028"
     inkscape:document-units="px"
     inkscape:current-layer="g4573"
     showgrid="false"
     inkscape:window-width="1332"
     inkscape:window-height="714"
     inkscape:window-x="1936"
     inkscape:window-y="36"
     inkscape:window-maximized="0"
     units="mm"
     inkscape:showpageshadow="true"
     showguides="true"
     inkscape:guide-bbox="true"
     inkscape:snap-global="true"
     inkscape:snap-bbox="true"
     inkscape:snap-others="true"
     fit-margin-top="0"
     fit-margin-left="0"
     fit-margin-right="0"
     fit-margin-bottom="0" />
  <metadata
     id="metadata7">
    <rdf:RDF>
      <cc:Work
         rdf:about="">
        <dc:format>image/svg+xml</dc:format>
        <dc:type
           rdf:resource="http://purl.org/dc/dcmitype/StillImage" />
        <dc:title></dc:title>
      </cc:Work>
    </rdf:RDF>
  </metadata>
  <g
     inkscape:label="Layer 1"
     inkscape:groupmode="layer"
     id="layer1"
     style="opacity:0.96"
     transform="translate(-39.167521,88.250195)">
    <path
       style="fill:#000000"
       d=""
       id="path4134"
       inkscape:connector-curvature="0" />
    <g
       transform="translate(-141.01382,-425.49872)"
       style="display:inline"
       inkscape:label="debian vector"
       id="layer3">
      <g
         id="g4573"
         transform="translate(131.00657,-3.8976736)">
        <path
           style="fill:#ecf0f1"
           d="m 238.13035,633.24034 c -20.58639,-1.1772 -40.51349,-9.15588 -56.81946,-22.75015 l -2.46483,-2.05493 -3.56745,-3.56745 -3.56745,-3.56744 -2.05493,-2.46484 c -12.35641,-14.82119 -19.74371,-31.70418 -22.1739,-50.67643 l -0.39296,-3.06774 -0.23682,-4.50266 -0.23683,-4.50266 0.23683,-4.50266 0.23682,-4.50266 0.39296,-3.06774 c 2.43619,-19.01904 9.79071,-35.80156 22.24704,-50.76624 l 1.97693,-2.37502 3.56988,-3.56988 3.56988,-3.56987 2.37502,-1.97693 c 6.60982,-5.50189 12.52401,-9.37172 19.79191,-12.95039 l 3.95838,-1.94908 3.26566,-1.28338 c 10.26932,-4.03576 19.94607,-6.0975 31.41965,-6.69432 l 4.4037,-0.22906 4.4037,0.22906 c 22.15113,1.15222 41.37958,8.68003 58.4356,22.87717 l 2.37502,1.97693 3.56988,3.56987 3.56987,3.56988 2.05251,2.46483 c 12.32791,14.8045 19.7863,31.84556 22.16586,50.64494 l 0.40937,3.23419 0.22771,4.43518 0.22771,4.43518 -0.22771,4.43518 -0.22771,4.43519 -0.40937,3.23418 c -2.38143,18.8142 -9.84339,35.86154 -22.16829,50.64494 l -2.05493,2.46484 -3.56745,3.56744 -3.56745,3.56745 -2.46483,2.05493 c -19.50548,16.2617 -43.44875,24.19292 -68.67952,22.75015 z m 11.57072,-7.50224 c 45.51211,-3.02095 81.05325,-38.72029 84.03318,-84.4072 l 0.23236,-3.56255 -0.123,-3.85942 c -0.12261,-3.84707 -0.423,-7.78929 -0.69372,-9.10427 l -0.14262,-0.69272 -0.27893,0 -0.27893,0 -0.78166,1.38543 c -22.58416,40.02863 -55.48606,65.91761 -87.17236,68.59188 l -2.83066,0.2389 -4.39339,-0.11085 -4.39339,-0.11085 -2.71873,-0.41528 c -8.39044,-1.28164 -15.87303,-4.16489 -22.56976,-8.69677 -1.06373,-0.71986 -2.18784,-1.46621 -2.49805,-1.65856 l -0.564,-0.34974 -1.65825,0.71635 c -7.39277,3.19356 -15.57476,5.96992 -23.82349,8.08394 l -3.95669,1.01403 -0.0674,0.35017 -0.0674,0.35018 0.95549,1.12893 c 17.80505,21.03686 46.06159,32.94903 73.79147,31.1084 z m -1.95396,-42.0501 c 14.38605,-1.78847 27.98893,-8.31065 42.61536,-20.43281 15.68537,-12.99978 29.74239,-30.65434 38.79172,-48.71946 l 1.42612,-2.84695 -0.92401,-2.8927 c -3.44418,-10.78243 -8.67842,-20.43088 -16.00998,-29.51179 l -1.99659,-2.47298 -3.36462,-3.43684 c -32.59763,-33.29726 -83.86952,-36.34953 -120.63166,-7.18133 l -2.86982,2.27701 -4.1649,4.16957 -4.16491,4.16957 -1.98695,2.47398 c -23.70976,29.52158 -26.90568,70.30459 -7.99916,102.07675 l 1.2072,2.02867 0.34072,-0.002 c 0.55846,-0.003 5.29155,-0.75618 8.15852,-1.29753 5.42551,-1.02444 14.10395,-3.31395 19.29711,-5.09089 l 1.38543,-0.47405 0.0605,-0.31009 0.0605,-0.31009 -1.71696,-2.04676 c -0.94432,-1.12572 -2.60542,-3.38272 -3.69133,-5.01555 l -1.97439,-2.96879 -1.74872,-3.56254 -1.74872,-3.56254 -0.90574,-2.52404 c -1.81618,-5.06119 -2.97572,-9.89878 -3.61715,-15.09076 l -0.34232,-2.77086 0.003,-4.94797 0.003,-4.94798 0.351,-2.77087 c 4.17309,-32.94325 30.53029,-62.86562 58.57262,-66.49535 l 2.33569,-0.30233 3.40396,0.003 3.40397,0.003 2.03928,0.28988 c 15.83297,2.25062 27.14368,12.8746 30.11058,28.28244 l 0.41543,2.15738 0.23021,2.92302 0.23022,2.92301 -0.22956,3.03429 c -1.93252,25.54383 -27.34937,56.75739 -62.58298,76.85603 -1.68726,0.96248 -3.12944,1.84355 -3.20486,1.95793 l -0.13712,0.20797 0.23608,0.28903 c 1.64003,2.00787 13.46842,5.56678 20.43001,6.14694 l 2.17092,0.18092 3.1667,-0.0837 3.16671,-0.0836 2.40026,-0.2984 z m -36.47398,-13.11457 c 11.45653,-5.47441 21.44716,-11.92653 30.76387,-19.86785 l 3.10361,-2.64543 3.88183,-3.85943 c 6.88041,-6.84069 11.71348,-12.79781 16.37095,-20.17845 l 1.44215,-2.28536 1.86113,-3.76046 c 2.72076,-5.49734 4.18057,-9.76232 5.04688,-14.74497 l 0.43014,-2.47399 0.11108,-3.36462 0.11107,-3.36462 -0.2384,-2.07815 c -0.68209,-5.94562 -2.66959,-11.33183 -5.81667,-15.76337 l -1.22282,-1.72192 -1.58335,-1.61459 c -4.3767,-4.46306 -10.11031,-7.2918 -16.66825,-8.22347 l -1.6264,-0.23106 -3.61845,0.092 -3.61846,0.092 -2.17711,0.44066 c -1.19741,0.24237 -3.24587,0.79452 -4.55214,1.22702 l -2.37503,0.78635 -2.57294,1.26518 c -3.04765,1.49862 -5.98516,3.38157 -8.70844,5.58211 l -1.97919,1.59929 -2.58796,2.64365 c -11.39825,11.64351 -20.57763,30.89197 -22.9694,48.16503 l -0.35627,2.57295 0.002,5.24485 0.002,5.24486 0.34694,2.37502 c 1.34581,9.21297 4.28038,16.55246 9.2912,23.23773 l 1.4226,1.89799 2.45548,2.52347 2.45547,2.52347 0.38842,0 c 0.21363,0 1.64653,-0.60118 3.18423,-1.33596 z"
           id="path4575"
           inkscape:connector-curvature="0" />
      </g>
    </g>
  </g>
</svg>
