<?xml version="1.0" encoding="UTF-8" standalone="no"?>
<!-- Created with Inkscape (http://www.inkscape.org/) -->

<svg
   width="400"
   height="400"
   viewBox="0 0 375.00001 375.00003"
   id="svg2"
   version="1.1"
   inkscape:version="1.1.2 (0a00cf5339, 2022-02-04)"
   sodipodi:docname="os_freebsd.svg"
   inkscape:export-filename="../icons/os_freebsd.png"
   inkscape:export-xdpi="30.719999"
   inkscape:export-ydpi="30.719999"
   xmlns:inkscape="http://www.inkscape.org/namespaces/inkscape"
   xmlns:sodipodi="http://sodipodi.sourceforge.net/DTD/sodipodi-0.dtd"
   xmlns="http://www.w3.org/2000/svg"
   xmlns:svg="http://www.w3.org/2000/svg"
   xmlns:rdf="http://www.w3.org/1999/02/22-rdf-syntax-ns#"
   xmlns:cc="http://creativecommons.org/ns#"
   xmlns:dc="http://purl.org/dc/elements/1.1/">
  <defs
     id="defs4" />
  <sodipodi:namedview
     id="base"
     pagecolor="#21252e"
     bordercolor="#bebebe"
     borderopacity="1"
     inkscape:pageopacity="0"
     inkscape:pageshadow="2"
     inkscape:zoom="0.88591022"
     inkscape:cx="239.3019"
     inkscape:cy="300.82055"
     inkscape:document-units="px"
     inkscape:current-layer="svg2"
     showgrid="false"
     inkscape:window-width="1942"
     inkscape:window-height="1082"
     inkscape:window-x="258"
     inkscape:window-y="191"
     inkscape:window-maximized="0"
     units="px"
     inkscape:showpageshadow="false"
     showguides="true"
     inkscape:guide-bbox="true"
     inkscape:snap-global="false"
     inkscape:snap-bbox="true"
     inkscape:snap-others="true"
     fit-margin-top="0"
     fit-margin-left="0"
     fit-margin-right="0"
     fit-margin-bottom="0"
     inkscape:pagecheckerboard="0"
     width="400px">
    <sodipodi:guide
       position="93.750005,375.00002"
       orientation="-1,0"
       id="guide839"
       inkscape:label=""
       inkscape:locked="false"
       inkscape:color="rgb(0,0,255)" />
    <sodipodi:guide
       position="281.25001,375.00002"
       orientation="-1,0"
       id="guide841"
       inkscape:label=""
       inkscape:locked="false"
       inkscape:color="rgb(0,0,255)" />
    <sodipodi:guide
       position="0,281.25001"
       orientation="0,1"
       id="guide843"
       inkscape:label=""
       inkscape:locked="false"
       inkscape:color="rgb(0,0,255)" />
    <sodipodi:guide
       position="0,93.750005"
       orientation="0,1"
       id="guide845"
       inkscape:label=""
       inkscape:locked="false"
       inkscape:color="rgb(0,0,255)" />
  </sodipodi:namedview>
  <metadata
     id="metadata7">
    <rdf:RDF>
      <cc:Work
         rdf:about="">
        <dc:format>image/svg+xml</dc:format>
        <dc:type
           rdf:resource="http://purl.org/dc/dcmitype/StillImage" />
      </cc:Work>
    </rdf:RDF>
  </metadata>
  <path
     sodipodi:nodetypes="cssccccsscccc"
     inkscape:connector-curvature="0"
     id="path4665"
     transform="matrix(0.58134,0,0,0.578195,78.3545,68.1795)"
     d="M 193.74805,58.837891 C 108.22318,58.837314 38.891128,128.16849 38.890625,213.69336 c -5.74e-4,85.52563 69.331795,154.858 154.857425,154.85742 85.52487,-5e-4 154.85604,-69.33255 154.85547,-154.85742 -0.0139,-24.13212 -5.66747,-47.92702 -16.50977,-69.48633 -4.15874,5.71147 -8.06554,13.50616 -13.14445,19.03929 4.43003,13.59447 2.60016,17.64792 -3.82235,23.88454 -7.06196,6.78251 -25.04345,5.50906 -35.75,1.08398 -26.4984,-10.95194 -45.25711,-29.92136 -55.38867,-56.74414 -4.13756,-10.95398 -7.42554,-24.71719 -0.32031,-31.587888 5.76215,-5.546938 11.72295,-11.458224 23.37477,-8.099685 5.45949,-5.675094 13.26641,-10.193224 19.05296,-14.904221 C 243.80916,65.062454 218.97338,58.869264 193.74805,58.837891 Z"
     style="display:inline;opacity:1;fill:#ecf0f1;fill-opacity:1;stroke:none;stroke-width:4.3;stroke-linecap:round;stroke-linejoin:miter;stroke-miterlimit:4;stroke-dasharray:none;stroke-opacity:1" />
  <path
     inkscape:connector-curvature="0"
     id="path4667"
     d="m 104.22487,386.07296 a 87.32769,43.487068 42.70573 0 0 -21.996086,8.06836 87.32769,43.487068 42.70573 0 0 19.615236,75.33008 154.85638,154.85638 0 0 1 60.29687,-59.43751 87.32769,43.487068 42.70573 0 0 -57.91602,-23.96093 z"
     style="display:inline;opacity:1;fill:#ecf0f1;fill-opacity:1;stroke:none;stroke-width:4.3;stroke-linecap:round;stroke-linejoin:miter;stroke-miterlimit:4;stroke-dasharray:none;stroke-opacity:1"
     transform="matrix(0.58134,0,0,0.578195,49.7667,-129.071)" />
  <path
     sodipodi:nodetypes="ccsc"
     inkscape:connector-curvature="0"
     id="ellipse4682"
     d="m 347.51588,517.57743 c -56.33821,-6.75046 -63.43196,-58.24191 -64.61976,-62.17073 32.71102,-35.44147 79.54628,-54.50292 97.19527,-38.21362 17.64899,16.28929 0.13551,64.94288 -32.57551,100.38435 z"
     style="display:inline;opacity:1;fill:#ecf0f1;fill-opacity:1;stroke:none;stroke-width:4.3;stroke-linecap:round;stroke-linejoin:miter;stroke-miterlimit:4;stroke-dasharray:none;stroke-opacity:1"
     transform="matrix(0.58134,0,0,0.578195,49.7667,-129.071)" />
</svg>
