<?xml version="1.0" encoding="UTF-8" standalone="no"?>
<!-- Created with Inkscape (http://www.inkscape.org/) -->

<svg
   xmlns:dc="http://purl.org/dc/elements/1.1/"
   xmlns:cc="http://creativecommons.org/ns#"
   xmlns:rdf="http://www.w3.org/1999/02/22-rdf-syntax-ns#"
   xmlns:svg="http://www.w3.org/2000/svg"
   xmlns="http://www.w3.org/2000/svg"
   xmlns:sodipodi="http://sodipodi.sourceforge.net/DTD/sodipodi-0.dtd"
   xmlns:inkscape="http://www.inkscape.org/namespaces/inkscape"
   width="110mm"
   height="110mm"
   viewBox="0 0 389.76378 389.7638"
   id="svg2"
   version="1.1"
   inkscape:version="0.91 r13725"
   sodipodi:docname="os_fedora.svg"
   inkscape:export-filename="/home/rain/minidark/icons/os_fedora.png"
   inkscape:export-xdpi="29.556362"
   inkscape:export-ydpi="29.556362">
  <defs
     id="defs4" />
  <sodipodi:namedview
     id="base"
     pagecolor="#21252e"
     bordercolor="#bebebe"
     borderopacity="1"
     inkscape:pageopacity="0"
     inkscape:pageshadow="2"
     inkscape:zoom="1.1657064"
     inkscape:cx="215.10012"
     inkscape:cy="200.24095"
     inkscape:document-units="px"
     inkscape:current-layer="g4627"
     showgrid="false"
     inkscape:window-width="1332"
     inkscape:window-height="714"
     inkscape:window-x="1936"
     inkscape:window-y="36"
     inkscape:window-maximized="0"
     units="mm"
     inkscape:showpageshadow="true"
     showguides="true"
     inkscape:guide-bbox="true"
     inkscape:snap-global="true"
     inkscape:snap-bbox="true"
     inkscape:snap-others="true"
     fit-margin-top="0"
     fit-margin-left="0"
     fit-margin-right="0"
     fit-margin-bottom="0" />
  <metadata
     id="metadata7">
    <rdf:RDF>
      <cc:Work
         rdf:about="">
        <dc:format>image/svg+xml</dc:format>
        <dc:type
           rdf:resource="http://purl.org/dc/dcmitype/StillImage" />
        <dc:title />
      </cc:Work>
    </rdf:RDF>
  </metadata>
  <g
     inkscape:label="Layer 1"
     inkscape:groupmode="layer"
     id="layer1"
     style="opacity:0.96"
     transform="translate(-39.167521,88.250195)">
    <path
       style="fill:#000000"
       d=""
       id="path4134"
       inkscape:connector-curvature="0" />
    <g
       transform="translate(-141.01382,-425.49872)"
       style="display:inline"
       inkscape:label="debian vector"
       id="layer3">
      <g
         id="g4573"
         transform="translate(131.00657,-3.8976736)">
        <g
           id="g4627"
           style="opacity:0.99">
          <g
             id="g4177"
             transform="matrix(0.52473599,0,0,0.52473599,115.97267,254.77445)">
            <path
               sodipodi:nodetypes="cscccccccsscccccsscccccsscccccssccccccccscccsscccccsscccccccssccscccccccccsscsscccsscccccccsscccccccccsscccccsscccsscccccsscccccccccccsscsscccccsscccccccccccccsscssccccscsscsscccccccccssccccc"
               inkscape:connector-curvature="0"
               id="path4631"
               d="m 95.965176,721.32696 c -3.823191,-0.36925 -8.485625,-1.62549 -12.368502,-3.33256 l -3.252319,-1.42985 -3.189169,-2.122 -3.189169,-2.122 -3.100913,-3.10091 -3.100912,-3.10092 -2.122001,-3.18917 -2.122,-3.18916 -1.428365,-3.25232 c -1.767951,-4.02554 -2.873562,-8.18317 -3.338547,-12.55455 l -0.356213,-3.3488 2.43e-4,-73.30157 2.42e-4,-73.30157 0.364802,-7.51592 0.364802,-7.51593 0.748177,-5.87928 C 70.641914,428.46508 136.50769,362.61208 221.13495,351.84213 l 5.91519,-0.75279 8.50326,-0.39601 8.50327,-0.39602 8.50326,0.39602 8.50327,0.39601 5.91519,0.75279 c 84.66764,10.77509 150.48913,76.59658 161.26422,161.26423 l 0.75279,5.91519 0.39601,8.50326 0.39602,8.50327 -0.39602,8.50326 -0.39601,8.50326 -0.75279,5.91519 c -10.77444,84.66253 -76.60744,150.4946 -161.26716,161.26488 l -5.91812,0.75289 -7.66313,0.35832 -7.66313,0.35833 -73.48761,-0.0439 -73.487615,-0.0439 -2.790669,-0.26952 z m 81.859614,-20.66248 c 14.74834,-2.14937 28.26451,-7.83121 40.51912,-17.03317 l 3.56173,-2.6745 4.68478,-4.65112 4.68478,-4.65111 2.43367,-3.16276 c 9.77997,-12.70986 15.35396,-25.64604 17.87648,-41.48794 l 0.77022,-4.83716 0.2226,-26.79042 0.22259,-26.79042 20.27886,-0.2085 20.27886,-0.2085 1.48836,-0.48477 c 2.27544,-0.74113 5.00267,-2.18869 7.16011,-3.80044 l 1.95085,-1.45743 1.84231,-2.62335 1.8423,-2.62335 0.85795,-2.48279 0.85796,-2.4828 -0.0295,-4.27902 -0.0295,-4.27903 -0.86324,-2.23253 c -1.18721,-3.07041 -3.00377,-5.81945 -5.28034,-7.99084 l -1.91979,-1.83108 -2.0783,-1.1 c -1.1431,-0.605 -2.99926,-1.39621 -4.12483,-1.75824 l -2.04649,-0.65823 -18.26212,-0.21446 -18.26213,-0.21445 -1.31322,-1.00224 -1.31321,-1.00225 -0.6105,-1.28652 -0.61049,-1.28653 0,-23.05758 0,-23.05757 0.5549,-3.18208 c 0.3052,-1.75015 0.99269,-4.5767 1.52775,-6.28124 l 0.97284,-3.09915 2.00248,-3.90694 c 3.29289,-6.42457 7.78182,-11.70325 13.65632,-16.05892 l 2.90616,-2.15479 3.72631,-1.86546 3.72632,-1.86546 3.04467,-0.92236 c 1.67457,-0.5073 4.53171,-1.179 6.34919,-1.49268 l 3.30452,-0.5703 4.68039,0 4.6804,0 4.85216,0.60014 4.85217,0.60015 3.3488,-0.21367 3.3488,-0.21367 1.78476,-0.55994 c 0.98162,-0.30797 2.81838,-1.10978 4.0817,-1.78181 l 2.29694,-1.22187 1.89927,-1.92787 1.89926,-1.92787 1.17442,-2.20345 1.17443,-2.20344 0.60367,-2.56629 0.60367,-2.56629 -0.18189,-3.16276 -0.1819,-3.16276 -0.79277,-1.98307 c -0.43603,-1.09069 -1.4525,-2.95455 -2.25882,-4.14191 l -1.46604,-2.15884 -2.12924,-1.89776 -2.12924,-1.89776 -2.93516,-1.52704 -2.93516,-1.52704 -4.30418,-1.08703 c -2.36729,-0.59787 -6.33269,-1.35575 -8.812,-1.68419 l -4.50782,-0.59716 -6.88365,0.20799 -6.88365,0.20799 -3.72089,0.57647 c -24.38086,3.77725 -45.60193,17.33274 -59.42438,37.95879 l -2.98187,4.4496 -2.74152,5.5968 -2.74152,5.59681 -1.64877,5.02321 -1.64878,5.0232 -0.94438,4.65112 c -0.51941,2.55811 -1.1208,6.27705 -1.33643,8.26432 l -0.39205,3.6132 0,25.64326 0,25.64325 -0.48149,0.3996 -0.48148,0.3996 -20.26249,0.11214 -20.26248,0.11215 -2.47304,0.96199 -2.47304,0.962 -2.46178,1.75669 -2.46179,1.75669 -1.4427,1.93136 c -0.79349,1.06225 -1.89267,2.83033 -2.44263,3.92908 l -0.99993,1.99772 -0.52298,2.46735 c -0.66637,3.14382 -0.66005,5.16617 0.0263,8.42077 l 0.54928,2.60463 1.16781,2.37802 1.16781,2.37803 2.46246,2.50249 2.46245,2.5025 2.32299,1.16999 c 1.27765,0.64349 3.28024,1.41932 4.45022,1.72406 l 2.12723,0.55407 16.75886,0.002 16.75886,0.002 1.47996,0.41087 1.47997,0.41087 1.36797,1.36797 1.36796,1.36797 0.4353,1.61655 0.43529,1.61655 -0.15413,22.7418 -0.15413,22.7418 -0.82568,3.72089 -0.82567,3.72089 -1.45195,3.63154 c -2.55203,6.38301 -5.71673,11.14324 -10.69473,16.08665 l -2.87866,2.85866 -3.32254,2.22815 c -5.4746,3.67137 -9.98866,5.63276 -16.21214,7.04429 l -3.16276,0.71735 -5.0232,0.2186 -5.02321,0.2186 -4.96557,-0.59511 c -2.73106,-0.32762 -6.4743,-0.59542 -8.3183,-0.59542 l -3.35272,0 -2.28625,0.58697 c -1.25743,0.32283 -3.34261,1.10415 -4.63373,1.73627 l -2.34749,1.14931 -1.99837,1.96671 c -2.30891,2.27231 -3.59757,4.32369 -4.66594,7.42755 l -0.75821,2.2028 -0.21997,2.60463 -0.21996,2.60462 0.45468,2.23253 0.45467,2.23254 1.13638,2.41858 1.13637,2.41858 3.01327,3.00331 3.01326,3.0033 2.04649,1.15532 c 3.80002,2.14527 11.0275,4.08519 18.27223,4.90445 l 3.1229,0.35314 6.32551,-0.1371 6.32552,-0.1371 4.27902,-0.62361 z"
               style="fill:#c2c2c2;fill-opacity:1" />
            <path
               inkscape:connector-curvature="0"
               id="path4629"
               d="m 93.368371,720.50561 c -8.22048,-1.48522 -15.306465,-5.18742 -21.54616,-11.2572 l -3.256015,-3.16735 -1.886709,-2.72922 c -1.03769,-1.50107 -2.636748,-4.31257 -3.553463,-6.24777 l -1.666755,-3.51855 -1.004394,-3.63805 -1.004394,-3.63804 -0.115583,-78.51082 -0.115584,-78.51081 0.418892,-5.95343 C 69.860917,378.0459 238.54266,300.39964 354.4888,387.61106 491.35291,490.55639 427.98707,707.95891 257.40192,720.70743 l -5.20925,0.38931 -77.95268,-0.0319 -77.952681,-0.0319 -2.918938,-0.52737 z m 81.801839,-18.7925 c 2.0465,-0.20673 5.77013,-0.78565 8.27475,-1.28649 l 4.55385,-0.91062 5.17078,-1.69543 5.17079,-1.69542 5.15893,-2.5204 c 9.08939,-4.44062 15.63236,-8.99421 22.75216,-15.83438 l 4.24053,-4.07399 3.01329,-3.73989 c 9.82687,-12.1964 16.00838,-26.00828 18.74297,-41.87902 l 0.60907,-3.53485 0.15436,-27.59899 0.15436,-27.599 19.60613,-0.17663 c 10.78337,-0.0971 23.20609,-0.35415 27.60604,-0.57114 l 7.99992,-0.39451 4.39102,-0.75672 c 49.0482,-8.45263 80.81701,-54.58919 71.11224,-103.27344 l -0.96425,-4.83716 -1.64925,-5.0232 -1.64925,-5.02321 -2.93773,-5.95342 -2.93772,-5.95343 -2.42708,-3.62564 c -3.64753,-5.4488 -7.49885,-10.06154 -12.19903,-14.61082 l -4.22781,-4.09207 -3.81888,-2.87385 c -7.93131,-5.96857 -16.35186,-10.2932 -26.50638,-13.61315 l -5.76739,-1.8856 -4.65111,-0.95162 -4.65111,-0.95161 -5.48832,-0.43188 -5.48832,-0.43188 -5.48831,0.42407 c -41.84834,3.23348 -74.0839,32.85887 -81.0482,74.48559 l -0.65364,3.90693 -0.14924,27.25553 -0.14923,27.25553 -17.74342,0.003 -17.74343,0.003 -10.23766,0.54379 -10.23767,0.5438 -5.07346,0.93703 c -23.56957,4.35333 -43.67588,17.68823 -57.106017,37.874 l -2.78688,4.18874 -2.617628,5.34556 -2.617628,5.34556 -1.793567,5.44502 -1.793568,5.44503 -0.95593,4.90925 c -0.525761,2.70009 -1.147017,6.96981 -1.380568,9.48828 l -0.424639,4.57902 0.227661,5.95343 0.22766,5.95342 0.567044,3.70534 c 7.091772,46.34105 49.06609,78.91306 95.63076,74.20933 z m -19.90677,-42.22445 -3.53484,-0.50853 -2.23254,-0.80187 c -3.2231,-1.15767 -6.25498,-2.72787 -9.86036,-5.10664 l -3.16276,-2.08674 -3.53485,-3.54681 -3.53484,-3.54681 -2.09846,-3.16276 c -3.75502,-5.6595 -5.69972,-10.30768 -7.04681,-16.84311 l -0.78487,-3.80784 -0.003,-5.0232 -0.003,-5.0232 0.41067,-2.47376 c 3.11783,-18.78084 17.15656,-33.6347 35.91597,-38.00134 l 3.37583,-0.7858 23.44162,0.0952 23.44162,0.0952 1.19069,0.37209 1.19069,0.3721 1.11651,1.27163 1.11652,1.27164 0.22678,1.21725 c 0.12473,0.66948 0.16241,11.68225 0.0837,24.47282 l -0.14303,23.25557 -0.65189,2.79067 c -4.36468,18.68468 -18.50566,32.32096 -36.83122,35.51667 l -3.30288,0.57598 -5.62562,-0.04 -5.62562,-0.04 -3.53485,-0.50852 z m 120.5569,-131.83955 -18.41842,-0.22176 -1.36893,-0.85123 -1.36894,-0.85123 -0.79337,-1.6389 -0.79338,-1.63891 0.14336,-23.37006 0.14335,-23.37007 0.77238,-3.3488 c 1.42628,-6.1839 3.23218,-10.45193 6.65187,-15.72088 l 1.99241,-3.06984 3.06044,-3.18783 c 7.99506,-8.32784 17.58394,-12.92109 29.06008,-13.92032 l 3.80263,-0.3311 5.04899,0.3387 c 2.77694,0.18629 6.29291,0.60037 7.81327,0.92019 l 2.76428,0.58148 2.9001,1.25384 c 1.59506,0.68961 4.35481,2.14827 6.13277,3.24146 l 3.23266,1.98761 4.33867,4.27903 4.33868,4.27903 1.93133,2.97671 c 3.46158,5.33524 5.61313,10.5777 6.94827,16.93006 l 0.66475,3.16275 -0.006,5.3953 -0.006,5.39529 -0.64144,3.24083 c -1.26348,6.38362 -3.71246,12.23838 -7.43688,17.77925 l -1.87779,2.79363 -3.56109,3.56108 -3.56108,3.56108 -2.79362,1.8778 c -5.50146,3.69792 -11.42434,6.18536 -17.57745,7.382 l -3.07058,0.59715 -5.02321,0.10422 c -2.76276,0.0573 -13.31149,0.004 -23.44161,-0.11756 z"
               style="fill:#ecf0f1" />
          </g>
        </g>
      </g>
    </g>
  </g>
</svg>
