<?xml version="1.0" encoding="UTF-8" standalone="no"?>
<!-- Created with Inkscape (http://www.inkscape.org/) -->

<svg
   width="400"
   height="400"
   viewBox="0 0 375.00001 375.00003"
   id="svg2"
   version="1.1"
   inkscape:version="1.1.2 (0a00cf5339, 2022-02-04)"
   sodipodi:docname="os_fedora.svg"
   inkscape:export-filename="../icons/os_fedora.png"
   inkscape:export-xdpi="30.719999"
   inkscape:export-ydpi="30.719999"
   xmlns:inkscape="http://www.inkscape.org/namespaces/inkscape"
   xmlns:sodipodi="http://sodipodi.sourceforge.net/DTD/sodipodi-0.dtd"
   xmlns="http://www.w3.org/2000/svg"
   xmlns:svg="http://www.w3.org/2000/svg"
   xmlns:rdf="http://www.w3.org/1999/02/22-rdf-syntax-ns#"
   xmlns:cc="http://creativecommons.org/ns#"
   xmlns:dc="http://purl.org/dc/elements/1.1/">
  <defs
     id="defs4" />
  <sodipodi:namedview
     id="base"
     pagecolor="#21252e"
     bordercolor="#bebebe"
     borderopacity="1"
     inkscape:pageopacity="0"
     inkscape:pageshadow="2"
     inkscape:zoom="1.6485578"
     inkscape:cx="177.73111"
     inkscape:cy="342.11721"
     inkscape:document-units="px"
     inkscape:current-layer="g4177"
     showgrid="false"
     inkscape:window-width="2370"
     inkscape:window-height="1141"
     inkscape:window-x="105"
     inkscape:window-y="214"
     inkscape:window-maximized="0"
     units="px"
     inkscape:showpageshadow="true"
     showguides="true"
     inkscape:guide-bbox="true"
     inkscape:snap-global="false"
     inkscape:snap-bbox="true"
     inkscape:snap-others="true"
     fit-margin-top="0"
     fit-margin-left="0"
     fit-margin-right="0"
     fit-margin-bottom="0"
     inkscape:pagecheckerboard="0">
    <sodipodi:guide
       position="93.750005,375.00002"
       orientation="-1,0"
       id="guide848"
       inkscape:label=""
       inkscape:locked="false"
       inkscape:color="rgb(0,0,255)" />
    <sodipodi:guide
       position="0,281.25001"
       orientation="0,1"
       id="guide850"
       inkscape:label=""
       inkscape:locked="false"
       inkscape:color="rgb(0,0,255)" />
    <sodipodi:guide
       position="281.25001,375.00002"
       orientation="-1,0"
       id="guide852"
       inkscape:label=""
       inkscape:locked="false"
       inkscape:color="rgb(0,0,255)" />
    <sodipodi:guide
       position="0,93.750005"
       orientation="0,1"
       id="guide854"
       inkscape:label=""
       inkscape:locked="false"
       inkscape:color="rgb(0,0,255)" />
  </sodipodi:namedview>
  <metadata
     id="metadata7">
    <rdf:RDF>
      <cc:Work
         rdf:about="">
        <dc:format>image/svg+xml</dc:format>
        <dc:type
           rdf:resource="http://purl.org/dc/dcmitype/StillImage" />
      </cc:Work>
    </rdf:RDF>
  </metadata>
  <g
     inkscape:label="Layer 1"
     inkscape:groupmode="layer"
     id="layer1"
     style="opacity:0.96"
     transform="translate(-39.167521,88.250195)">
    <path
       style="fill:#000000"
       d=""
       id="path4134"
       inkscape:connector-curvature="0" />
    <g
       transform="translate(-141.01382,-425.49872)"
       style="display:inline"
       inkscape:label="debian vector"
       id="layer3">
      <g
         id="g4573"
         transform="translate(131.00657,-3.8976736)">
        <g
           id="g4627"
           style="opacity:0.99">
          <g
             id="g4177"
             transform="matrix(0.52473599,0,0,0.52473599,115.97267,254.77445)">
            <g
               id="g1136"
               transform="matrix(0.96232221,0,0,0.96166046,-4.6333374,6.2439839)">
              <path
                 sodipodi:nodetypes="cscccccccsscccccsscccccsscccccssccccccccscccsscccccsscccccccssccscccccccccsscsscccsscccccccsscccccccccsscccccsscccsscccccsscccccccccccsscsscccccsscccccccccccccsscssccccscsscsscccccccccssccccc"
                 inkscape:connector-curvature="0"
                 id="path4631"
                 d="M 95.965176,721.32696 C 72.952668,719.5068 55.938429,696.8099 58.397087,674.28205 58.693069,624.31385 57.796322,574.31672 58.864204,524.36724 62.520255,448.7745 117.5674,379.24058 190.35014,358.39192 c 71.27016,-22.51288 154.63089,3.66637 199.93303,63.28392 44.48673,55.62403 52.10295,137.27857 18.39836,200.07453 -31.29559,62.14717 -99.97655,101.94902 -169.25313,99.93007 -47.81562,-0.20627 -95.66985,0.29876 -143.463224,-0.35348 z m 81.859614,-20.66248 c 42.44699,-5.07174 76.42964,-45.37204 74.60933,-87.95145 0.12222,-14.70905 0.24443,-29.4181 0.36664,-44.12715 13.98797,-0.46758 28.18603,0.34572 42.04608,-0.90177 15.79809,-3.70372 19.92977,-26.41982 6.78864,-35.70159 -10.0478,-6.93396 -22.85576,-2.94576 -34.26388,-4.19834 -5.26164,-0.3097 -14.28192,1.86938 -14.75694,-5.7561 0.35016,-16.06796 -0.71273,-32.25821 0.5549,-48.24678 3.54063,-24.32788 28.60726,-41.87725 52.66235,-37.95942 11.34946,3.06139 26.84063,-0.78511 29.23138,-13.87747 3.55833,-12.83717 -8.61139,-24.31286 -20.73765,-25.58145 -41.84183,-9.44541 -87.29133,18.81926 -98.97434,59.80161 -6.35171,21.12497 -2.69881,43.44913 -3.66645,65.15746 2.8987,9.06401 -7.09139,6.13183 -12.5177,6.54793 -10.42629,0.66176 -21.31879,-1.12357 -31.44328,1.12233 -14.81606,4.61316 -17.79814,26.5325 -5.2209,35.33106 10.57114,6.66464 23.5985,2.59029 35.36547,3.70752 6.20905,-1.19557 15.06829,0.84723 13.85706,8.89249 -0.72106,16.01231 1.04679,32.30598 -1.34726,48.12915 -4.9414,23.56819 -29.98191,39.30402 -53.33287,35.10412 -12.14692,-3.5434 -28.18687,2.93745 -28.58098,17.07882 -1.33335,14.17837 14.07238,23.12358 26.59809,23.61526 7.46461,1.05622 15.3003,0.82579 22.76231,-0.18623 z"
                 style="fill:#c2c2c2;fill-opacity:1" />
              <path
                 inkscape:connector-curvature="0"
                 id="path4629"
                 d="m 93.368371,720.50561 c -21.116168,-3.35514 -36.779744,-24.66437 -33.934833,-45.70494 0.176168,-50.23944 -0.646921,-100.51325 0.152947,-150.73123 3.406349,-69.86957 51.152405,-134.07496 116.063155,-159.342 60.70713,-25.54004 134.73873,-14.92238 185.10837,27.7918 52.99007,41.4601 78.54752,113.4913 64.47235,179.14849 -12.80225,69.21876 -67.82829,129.20133 -137.12291,144.32897 -33.04151,8.13169 -67.15295,4.14836 -100.78242,5.07349 -31.0213,-0.25886 -62.13124,0.4692 -93.096888,-0.40928 l -0.859771,-0.15534 z m 81.801839,-18.7925 c 43.49253,-3.73662 80.24175,-44.8128 77.75149,-88.67909 0.0815,-14.56313 0.1629,-29.12626 0.24435,-43.68939 29.26694,-1.19027 60.5247,3.79411 87.15026,-11.41984 37.38679,-19.26527 55.13807,-67.55544 39.97248,-106.5951 -14.28554,-40.16497 -61.0398,-65.88313 -102.47128,-54.5704 -40.46404,8.80593 -69.73516,49.67002 -66.57009,90.61826 -0.0728,13.28792 -0.14552,26.57583 -0.21827,39.86375 -29.47653,0.8673 -61.0759,-3.84704 -87.83092,11.64031 -35.19736,18.7917 -53.134282,63.41224 -40.769424,101.27396 11.439677,39.31676 52.113464,66.25708 92.741404,61.55754 z m -19.90677,-42.22445 c -28.45383,-4.56 -44.72739,-40.12603 -31.0965,-65.17809 8.58314,-18.11731 29.12258,-27.94796 48.60381,-25.48508 11.85076,0.53266 24.00309,-0.88415 35.66345,0.87935 6.27094,8.88144 0.97359,21.93694 2.51777,32.41827 0.37226,14.06849 0.63282,29.15639 -9.50895,40.46743 -10.6773,14.44905 -29.077,19.69182 -46.17958,16.89812 z m 120.5569,-131.83955 c -6.95477,-0.97464 -14.98725,1.74055 -21.15629,-1.92422 -3.42224,-8.21767 -0.62588,-17.8413 -1.44339,-26.64787 0.17917,-15.13911 -1.8676,-31.54219 8.70679,-44.19498 15.74007,-22.47407 53.53196,-25.84602 71.24186,-3.94753 17.69889,18.28307 14.7668,50.51537 -4.84017,66.26916 -14.63931,13.13504 -34.46768,10.74276 -52.5088,10.44544 z"
                 style="fill:#ecf0f1;stroke:none;stroke-width:1.0005;stroke-miterlimit:4;stroke-dasharray:none" />
            </g>
          </g>
        </g>
      </g>
    </g>
  </g>
</svg>
