<?xml version="1.0" encoding="UTF-8" standalone="no"?>
<!-- Created with Inkscape (http://www.inkscape.org/) -->

<svg
   width="400"
   height="400"
   viewBox="0 0 375.00001 375.00003"
   id="svg2"
   version="1.1"
   inkscape:version="1.1.2 (0a00cf5339, 2022-02-04)"
   sodipodi:docname="os_garuda.svg"
   inkscape:export-filename="../icons/os_garuda.png"
   inkscape:export-xdpi="30.719999"
   inkscape:export-ydpi="30.719999"
   xmlns:inkscape="http://www.inkscape.org/namespaces/inkscape"
   xmlns:sodipodi="http://sodipodi.sourceforge.net/DTD/sodipodi-0.dtd"
   xmlns="http://www.w3.org/2000/svg"
   xmlns:svg="http://www.w3.org/2000/svg"
   xmlns:rdf="http://www.w3.org/1999/02/22-rdf-syntax-ns#"
   xmlns:cc="http://creativecommons.org/ns#"
   xmlns:dc="http://purl.org/dc/elements/1.1/">
  <defs
     id="defs4" />
  <sodipodi:namedview
     id="base"
     pagecolor="#21252e"
     bordercolor="#bebebe"
     borderopacity="1"
     inkscape:pageopacity="0"
     inkscape:pageshadow="2"
     inkscape:zoom="1.7718204"
     inkscape:cx="168.1886"
     inkscape:cy="190.48206"
     inkscape:document-units="px"
     inkscape:current-layer="svg2"
     showgrid="false"
     inkscape:window-width="1942"
     inkscape:window-height="1082"
     inkscape:window-x="613"
     inkscape:window-y="78"
     inkscape:window-maximized="0"
     units="px"
     inkscape:showpageshadow="false"
     showguides="true"
     inkscape:guide-bbox="true"
     inkscape:snap-global="true"
     inkscape:snap-bbox="true"
     inkscape:snap-others="false"
     fit-margin-top="0"
     fit-margin-left="0"
     fit-margin-right="0"
     fit-margin-bottom="0"
     inkscape:pagecheckerboard="0"
     width="400px"
     inkscape:bbox-paths="true"
     inkscape:bbox-nodes="true"
     inkscape:snap-nodes="true">
    <sodipodi:guide
       position="93.750005,375.00002"
       orientation="-1,0"
       id="guide839"
       inkscape:label=""
       inkscape:locked="false"
       inkscape:color="rgb(0,0,255)" />
    <sodipodi:guide
       position="281.25001,375.00002"
       orientation="-1,0"
       id="guide841"
       inkscape:label=""
       inkscape:locked="false"
       inkscape:color="rgb(0,0,255)" />
    <sodipodi:guide
       position="0,281.25001"
       orientation="0,1"
       id="guide843"
       inkscape:label=""
       inkscape:locked="false"
       inkscape:color="rgb(0,0,255)" />
    <sodipodi:guide
       position="0,93.750005"
       orientation="0,1"
       id="guide845"
       inkscape:label=""
       inkscape:locked="false"
       inkscape:color="rgb(0,0,255)" />
  </sodipodi:namedview>
  <metadata
     id="metadata7">
    <rdf:RDF>
      <cc:Work
         rdf:about="">
        <dc:format>image/svg+xml</dc:format>
        <dc:type
           rdf:resource="http://purl.org/dc/dcmitype/StillImage" />
      </cc:Work>
    </rdf:RDF>
  </metadata>
  <path
     id="path1167"
     style="opacity:1;fill:#ecf0f1;stroke-width:1"
     d="M 200,100 A 100,100 0 0 0 100,200 100,100 0 0 0 200,300 100,100 0 0 0 300,200 100,100 0 0 0 200,100 Z m -5.45898,31.5332 13.60546,0.98047 c 7.48294,0.53929 17.22811,1.21917 21.6543,1.51172 4.4262,0.29255 9.79908,0.69983 11.93945,0.9043 l 3.89063,0.37109 7.30469,9.02149 7.30273,9.02343 6.625,3.06641 6.62305,3.06836 7.95312,10.59961 7.95313,10.59765 -0.59766,3.53516 c -0.32924,1.94402 -0.77358,5.77191 -0.98633,8.50586 l -0.38671,4.9707 -5.69727,5.66407 -5.69922,5.6621 0.34961,-3.73632 c 0.94981,-10.17585 1.15109,-15.65983 0.58203,-15.85547 -0.72214,-0.24827 -47.03138,-3.15662 -47.17773,-2.96289 -0.0567,0.0752 1.01022,9.44846 2.37109,20.83008 1.36088,11.38162 2.48681,21.23815 2.50391,21.90234 0.0171,0.66417 -1.40835,3.21362 -3.16797,5.66602 -1.80506,2.51572 -3.06032,4.81945 -2.88086,5.2871 0.18851,0.49125 -1.20599,2.67276 -3.42383,5.35352 l -3.74219,4.52344 0.99805,2.09179 c 0.67753,1.42077 0.80015,2.22059 0.38281,2.49024 -6.72216,4.34351 -9.97851,6.7006 -9.97851,7.22656 0,0.35741 0.25566,1.53758 0.5664,2.62109 0.31076,1.08352 0.47516,2.06001 0.36524,2.16993 -0.1099,0.1099 -3.5812,-0.32652 -7.71289,-0.96875 -4.13168,-0.64225 -7.78771,-1.16797 -8.125,-1.16797 -0.33725,0 -0.61328,0.90713 -0.61328,2.01367 0,1.25012 -0.27229,1.99454 -0.71875,1.9668 -0.39522,-0.0246 -6.79689,-2.09608 -14.22657,-4.60352 -7.42966,-2.50744 -13.93817,-4.69572 -14.46289,-4.86328 -0.70037,-0.22368 -1.13174,0.23589 -1.625,1.73047 l -0.67187,2.03515 -4.12305,-2.24414 c -12.83973,-6.98974 -15.10961,-8.17106 -16.17383,-8.41796 -0.90245,-0.20939 -1.61398,0.3884 -3.10937,2.60742 -1.06675,1.58299 -2.10375,2.8789 -2.30469,2.8789 -0.20093,0 -2.5376,-6.27267 -5.19336,-13.93945 -2.65578,-7.66679 -4.89268,-14.02472 -4.9707,-14.12695 -0.078,-0.10219 -2.81367,1.7572 -6.07813,4.13086 -3.26447,2.37364 -6.00977,4.24022 -6.10156,4.14843 -0.0917,-0.0917 1.7509,-4.46073 4.0957,-9.70898 l 4.26368,-9.54297 -5.70118,2.86133 -5.70117,2.86133 0.38672,-1.59375 c 0.21364,-0.87619 1.12437,-3.66216 2.02344,-6.19141 0.89908,-2.52926 1.63711,-4.75916 1.63867,-4.95703 0.002,-0.19788 -1.71304,0.26208 -3.81055,1.02344 -2.0975,0.76135 -3.95947,1.23975 -4.13672,1.0625 -0.17724,-0.17725 1.36222,-2.06045 3.42188,-4.18555 8.7453,-9.02307 10.81439,-11.52508 15.51953,-18.76367 l 4.95703,-7.625 -2.08203,0.40625 c -6.08832,1.18702 -6.6594,1.25342 -6.10742,0.72656 0.31615,-0.30177 8.01207,-5.14425 17.10156,-10.76172 9.08949,-5.61746 16.52734,-10.34323 16.52734,-10.50195 0,-0.15872 -1.29421,-0.13003 -2.875,0.0625 -1.58077,0.19253 -2.87304,0.23235 -2.87304,0.0898 0,-0.1425 6.91784,-5.62189 15.375,-12.17773 8.45719,-6.55584 17.53194,-13.59259 20.16601,-15.63672 z"
     transform="scale(0.9375, 0.9375)" />
  <path
     style="opacity:1;fill:#ecf0f1;fill-opacity:1;stroke-width:1.25"
     d="m 474.6331,15.565322 c 0,-2.899687 1.82404,-5.378862 5.26764,-7.159612 4.9081,-2.5380775 5.89429,-1.2629537 2.13312,2.758112 -3.61791,3.867913 -7.40076,6.117713 -7.40076,4.4015 z m -83.125,-7.024887 c -6.41017,-2.2678375 -10.6195,-7.1136137 -10.64414,-12.25353 -0.01,-2.1960375 -0.47629,-4.7132 -1.03501,-5.593695 -1.35959,-2.142584 -11.90305,-6.064581 -19.27539,-7.17013 -7.61192,-1.14148 -8.48219,-2.622293 -2.51496,-4.279409 13.91184,-3.863359 25.60486,-0.756506 53.22889,14.1429802 11.44973,6.17561505 19.51966,7.8870138 24.7908,5.2574225 5.35327,-2.6705637 5.75177,-2.4978 2.41971,1.0490138 -7.87737,8.385085 -34.24041,13.3508845 -46.9699,8.8473475 z m 10.05681,-4.9395063 c 1.6875,-1.6875 3.06819,-4.47443245 3.06819,-6.1931824 v -3.125 l -3.05324,2.706427 c -1.73116,1.5345167 -4.81842,2.35629477 -7.04534,2.3913929 -3.20748,0.0505527 -6.32571,-2.9299358 -7.22638,-7.0193646 -0.4122,-1.8715974 -0.53509,-4.3795916 -0.70788,-5.0670916 -0.17278,-0.6875 -1.28426,0.619181 -2.46995,2.9037363 -1.40346,2.70418 -1.8765,5.4252425 -1.35552,7.7972675 1.80104,8.2000587 12.88817,11.5077712 18.79012,5.6058149 z"
     id="path1532"
     sodipodi:nodetypes="ssssscssssssssscsssssss"
     transform="matrix(0.428804 0 0 0.428804 42.3051 152.222)" />
</svg>
