<?xml version="1.0" encoding="UTF-8" standalone="no"?>
<!-- Created with Inkscape (http://www.inkscape.org/) -->

<svg
   width="400"
   height="400"
   viewBox="0 0 375.00001 375.00003"
   id="svg2"
   version="1.1"
   inkscape:version="1.1.2 (0a00cf5339, 2022-02-04)"
   sodipodi:docname="os_gentoo.svg"
   inkscape:export-filename="../icons/os_gentoo.png"
   inkscape:export-xdpi="30.719999"
   inkscape:export-ydpi="30.719999"
   xmlns:inkscape="http://www.inkscape.org/namespaces/inkscape"
   xmlns:sodipodi="http://sodipodi.sourceforge.net/DTD/sodipodi-0.dtd"
   xmlns="http://www.w3.org/2000/svg"
   xmlns:svg="http://www.w3.org/2000/svg"
   xmlns:rdf="http://www.w3.org/1999/02/22-rdf-syntax-ns#"
   xmlns:cc="http://creativecommons.org/ns#"
   xmlns:dc="http://purl.org/dc/elements/1.1/">
  <defs
     id="defs4" />
  <sodipodi:namedview
     id="base"
     pagecolor="#21252e"
     bordercolor="#bebebe"
     borderopacity="1"
     inkscape:pageopacity="0"
     inkscape:pageshadow="2"
     inkscape:zoom="1.2528662"
     inkscape:cx="109.34927"
     inkscape:cy="243.84088"
     inkscape:document-units="px"
     inkscape:current-layer="svg2"
     showgrid="false"
     inkscape:window-width="1942"
     inkscape:window-height="1082"
     inkscape:window-x="391"
     inkscape:window-y="193"
     inkscape:window-maximized="0"
     units="px"
     inkscape:showpageshadow="false"
     showguides="true"
     inkscape:guide-bbox="true"
     inkscape:snap-global="false"
     inkscape:snap-bbox="true"
     inkscape:snap-others="false"
     fit-margin-top="0"
     fit-margin-left="0"
     fit-margin-right="0"
     fit-margin-bottom="0"
     inkscape:pagecheckerboard="0"
     width="400px"
     inkscape:snap-bbox-edge-midpoints="true"
     inkscape:snap-nodes="false">
    <sodipodi:guide
       position="93.750005,375.00002"
       orientation="-1,0"
       id="guide839"
       inkscape:label=""
       inkscape:locked="false"
       inkscape:color="rgb(0,0,255)" />
    <sodipodi:guide
       position="281.25001,375.00002"
       orientation="-1,0"
       id="guide841"
       inkscape:label=""
       inkscape:locked="false"
       inkscape:color="rgb(0,0,255)" />
    <sodipodi:guide
       position="0,281.25001"
       orientation="0,1"
       id="guide843"
       inkscape:label=""
       inkscape:locked="false"
       inkscape:color="rgb(0,0,255)" />
    <sodipodi:guide
       position="0,93.750005"
       orientation="0,1"
       id="guide845"
       inkscape:label=""
       inkscape:locked="false"
       inkscape:color="rgb(0,0,255)" />
  </sodipodi:namedview>
  <metadata
     id="metadata7">
    <rdf:RDF>
      <cc:Work
         rdf:about="">
        <dc:format>image/svg+xml</dc:format>
        <dc:type
           rdf:resource="http://purl.org/dc/dcmitype/StillImage" />
      </cc:Work>
    </rdf:RDF>
  </metadata>
  <path
     style="font-size:16px;font-family:'Times New Roman';display:inline;opacity:1;fill:#ffffff;fill-opacity:1;stroke:none;stroke-width:0.137882;marker-start:none;marker-end:none"
     d="m 182.11046,568.1946 c -7.90094,-0.18325 -15.43133,4.30683 -20.18685,10.42747 -2.57116,3.31191 -4.19619,7.90198 -2.26142,11.91985 2.37823,5.20845 8.17953,7.19308 12.83212,9.81356 -4.62196,4.11646 -9.5109,8.2212 -12.70001,13.60441 -1.81451,3.076 -2.24621,6.89834 -1.46701,10.35042 1.79953,4.81206 7.05301,7.95915 12.15803,7.27573 9.39588,-0.69506 17.82023,-5.59657 25.58883,-10.56119 7.65427,-5.23102 15.15397,-11.0023 20.92941,-18.3249 2.89724,-3.93127 1.85322,-9.60923 -1.06519,-13.23998 -5.98161,-7.84153 -13.99673,-14.07405 -22.7565,-18.53704 -3.42928,-1.71083 -7.27232,-2.46283 -11.07141,-2.72833 z m 0.0966,0.76808 c 5.33901,0.1269 10.41199,2.18504 14.69049,5.30577 6.54832,4.62312 12.9332,9.78128 17.69918,16.28878 1.9338,2.64337 1.90962,6.37897 -0.0595,9.02132 -4.56344,6.75854 -11.40777,11.55373 -18.09587,16.02242 -7.66997,4.76518 -15.79492,9.26683 -24.72058,11.10068 -4.5611,0.75904 -10.29761,-1.21779 -11.53754,-6.12162 -1.76891,-4.80355 1.69162,-9.41752 4.92349,-12.63021 3.9295,-3.5397 6.35135,-5.83969 11.48078,-9.5964 0.25737,-1.14089 -2.21349,-2.15132 -6.16164,-3.89181 -3.75375,-1.83869 -8.28078,-3.84511 -9.63141,-8.1621 -0.6244,-4.65501 2.95841,-8.54917 6.22363,-11.36948 4.25641,-3.42819 9.59897,-6.1477 15.18901,-5.96735 z"
     id="path87"
     inkscape:connector-curvature="0"
     sodipodi:nodetypes="ccccccccccccccccccccccccc"
     transform="matrix(2.87396,0,0,2.95323,-353.779,-1584.24)" />
  <path
     style="font-size:16px;font-family:'Times New Roman';display:inline;opacity:1;fill:#ecf0f1;fill-opacity:1;stroke:none;stroke-width:0.137882;marker-start:none;marker-end:none"
     d="m 180.92641,569.68395 c -6.69456,0.48134 -12.68856,4.54061 -16.94189,9.54478 -1.8926,2.39584 -3.65147,5.96838 -1.62101,8.81763 3.70376,4.89515 14.58482,7.67666 14.95678,9.1164 0.49084,1.89989 -2.26173,3.52716 -3.92936,4.94503 -4.6644,3.5612 -9.7519,7.32157 -12.01079,12.94291 -1.69318,4.0602 1.27181,9.23526 5.72331,9.58707 4.85828,0.52601 9.49659,-1.50569 14.0546,-2.88312 9.8727,-3.57684 18.19697,-10.18836 26.30264,-16.67564 3.0627,-2.67879 6.15146,-5.87468 6.9703,-9.99273 -0.009,-4.86689 -4.23728,-8.06884 -7.35303,-11.22252 -5.77057,-5.29625 -12.24721,-10.02132 -19.52844,-13.00801 -2.11204,-0.78036 -4.3608,-1.28112 -6.62311,-1.1718 z m 9.21064,10.97497 c 2.7959,1.36041 5.75017,4.54258 4.55723,7.86716 -1.76994,3.50765 -6.53166,3.81708 -9.73855,2.26119 -2.65349,-0.99448 -5.39092,-3.77799 -4.16521,-6.81171 1.21507,-3.84401 5.96186,-5.24688 9.34653,-3.31664 z"
     id="path95"
     inkscape:connector-curvature="0"
     sodipodi:nodetypes="cccscccccccccccccc"
     transform="matrix(2.87396,0,0,2.95323,-353.779,-1584.24)" />
  <path
     style="font-size:16px;font-family:'Times New Roman';display:inline;opacity:1;fill:#ecf0f1;fill-opacity:1;stroke:none;stroke-width:0.137882;marker-start:none;marker-end:none"
     d="m 186.42445,581.55767 c -1.89895,0.0461 -3.74675,1.38009 -4.28706,3.21518 -0.35445,1.56517 0.55048,3.14695 1.82392,4.01609 0.63519,0.45183 -0.46893,-0.69415 -0.39891,-1.11207 -0.22501,-0.88878 -0.19684,-2.06357 0.66225,-2.61148 1.51782,-0.96205 3.6673,-0.35985 4.68745,1.05983 0.59496,0.66265 0.71801,1.73008 0.11684,2.43005 -0.63976,0.85161 -1.74699,1.22455 -2.7832,1.19958 0.63796,0.46767 1.58965,0.39898 2.36682,0.36017 1.3316,-0.16889 2.71663,-0.71629 3.56577,-1.79374 0.68924,-0.90442 0.3679,-2.11323 -0.13942,-3.01791 -1.0225,-1.70361 -2.68374,-3.09024 -4.62395,-3.59866 -0.32462,-0.0797 -0.65659,-0.13023 -0.99051,-0.14704 z"
     id="path4067"
     inkscape:connector-curvature="0"
     transform="matrix(2.87396,0,0,2.95323,-353.779,-1584.24)" />
</svg>
