<?xml version="1.0" encoding="UTF-8" standalone="no"?>
<!-- Created with Inkscape (http://www.inkscape.org/) -->

<svg
   xmlns:dc="http://purl.org/dc/elements/1.1/"
   xmlns:cc="http://creativecommons.org/ns#"
   xmlns:rdf="http://www.w3.org/1999/02/22-rdf-syntax-ns#"
   xmlns:svg="http://www.w3.org/2000/svg"
   xmlns="http://www.w3.org/2000/svg"
   xmlns:xlink="http://www.w3.org/1999/xlink"
   xmlns:sodipodi="http://sodipodi.sourceforge.net/DTD/sodipodi-0.dtd"
   xmlns:inkscape="http://www.inkscape.org/namespaces/inkscape"
   width="110mm"
   height="110mm"
   viewBox="0 0 389.76378 389.7638"
   id="svg2"
   version="1.1"
   inkscape:version="0.91 r13725"
   sodipodi:docname="os_kubuntu.svg"
   inkscape:export-filename="/home/rain/minidark/icons/os_kubuntu.png"
   inkscape:export-xdpi="29.556362"
   inkscape:export-ydpi="29.556362">
  <defs
     id="defs4">
    <pattern
       patternTransform="matrix(0.4295427,0,0,0.4295427,-4.3554687e-6,-4.3457032e-7)"
       id="pattern4486"
       xlink:href="#pattern4481"
       inkscape:collect="always" />
    <pattern
       patternTransform="matrix(0.4295427,0,0,0.4295427,-130.66779,-129.37468)"
       id="pattern4481"
       xlink:href="#pattern4467"
       inkscape:collect="always" />
    <linearGradient
       id="linearGradient3588">
      <stop
         id="stop3590"
         offset="0"
         style="stop-color:#bfe699;stop-opacity:1;" />
      <stop
         id="stop3592"
         offset="1"
         style="stop-color:#313e24;stop-opacity:1;" />
    </linearGradient>
    <linearGradient
       id="linearGradient3570">
      <stop
         style="stop-color:#e5ffcb;stop-opacity:1;"
         offset="0"
         id="stop3572" />
      <stop
         style="stop-color:#bfff80;stop-opacity:1;"
         offset="1"
         id="stop3574" />
    </linearGradient>
    <linearGradient
       id="linearGradient3303">
      <stop
         id="stop3305"
         offset="0"
         style="stop-color:#bfff80;stop-opacity:1;" />
      <stop
         id="stop3307"
         offset="1"
         style="stop-color:#6a8b4a;stop-opacity:1;" />
    </linearGradient>
    <linearGradient
       id="linearGradient3431">
      <stop
         style="stop-color:#3d3d3d;stop-opacity:1;"
         offset="0"
         id="stop3433" />
      <stop
         style="stop-color:#000000;stop-opacity:0.11400651;"
         offset="1"
         id="stop3435" />
    </linearGradient>
    <linearGradient
       id="linearGradient3349">
      <stop
         id="stop3351"
         offset="0"
         style="stop-color:#d3d3d3;stop-opacity:1;" />
      <stop
         id="stop3353"
         offset="1"
         style="stop-color:#ffffff;stop-opacity:1;" />
    </linearGradient>
    <linearGradient
       id="linearGradient3312">
      <stop
         id="stop3314"
         offset="0"
         style="stop-color:#c7f994;stop-opacity:1;" />
      <stop
         id="stop3316"
         offset="1"
         style="stop-color:#87cf3e;stop-opacity:1;" />
    </linearGradient>
    <linearGradient
       y2="408.57144"
       x2="116.42857"
       y1="362.14285"
       x1="61.42857"
       gradientUnits="userSpaceOnUse"
       id="linearGradient3335"
       xlink:href="#linearGradient3312"
       inkscape:collect="always" />
    <linearGradient
       y2="348.57098"
       x2="67.175148"
       y1="424.33243"
       x1="140.66374"
       gradientUnits="userSpaceOnUse"
       id="linearGradient3374"
       xlink:href="#linearGradient3349"
       inkscape:collect="always" />
    <linearGradient
       gradientTransform="translate(0,-9.49911)"
       y2="408.57144"
       x2="116.42857"
       y1="362.14285"
       x1="61.42857"
       gradientUnits="userSpaceOnUse"
       id="linearGradient3377"
       xlink:href="#linearGradient3312"
       inkscape:collect="always" />
    <linearGradient
       y2="408.57144"
       x2="116.42857"
       y1="362.14285"
       x1="61.42857"
       gradientTransform="matrix(1,0,0,-1,0,649.49911)"
       gradientUnits="userSpaceOnUse"
       id="linearGradient3416"
       xlink:href="#linearGradient3312"
       inkscape:collect="always" />
    <linearGradient
       y2="375.87961"
       x2="113.64215"
       y1="416.38858"
       x1="70.491508"
       spreadMethod="pad"
       gradientUnits="userSpaceOnUse"
       id="linearGradient2259"
       xlink:href="#linearGradient3431"
       inkscape:collect="always" />
    <linearGradient
       y2="323.98651"
       x2="149.90654"
       y1="216.34912"
       x1="26.795013"
       gradientUnits="userSpaceOnUse"
       id="linearGradient3737"
       xlink:href="#linearGradient3588"
       inkscape:collect="always" />
    <pattern
       id="pattern4467"
       patternTransform="translate(-297.8418,85.357452)"
       height="256"
       width="256"
       patternUnits="userSpaceOnUse">
      <image
         y="0"
         x="0"
         id="image4464"
         height="256"
         width="256"
         sodipodi:absref="/home/rain/minidark/metal5.jpg"
         xlink:href="file:///home/rain/minidark/metal5.jpg" />
    </pattern>
    <pattern
       id="pattern4483"
       patternTransform="translate(-130.66779,-129.37468)"
       height="109.96293"
       width="109.96293"
       patternUnits="userSpaceOnUse">
      <rect
         style="fill:url(#pattern4486);stroke:none"
         width="109.96293"
         height="109.96293"
         x="0"
         y="0"
         id="rect4470" />
    </pattern>
    <linearGradient
       y2="379.95963"
       x2="100.47015"
       y1="426.11398"
       x1="148.5945"
       gradientTransform="matrix(1.0484996,0,0,1.0484996,59.525242,85.095989)"
       gradientUnits="userSpaceOnUse"
       id="linearGradient3000"
       xlink:href="#linearGradient3349"
       inkscape:collect="always" />
    <linearGradient
       y2="408.57144"
       x2="116.42857"
       y1="362.14285"
       x1="61.42857"
       gradientTransform="matrix(1.0484996,0,0,1.0484996,59.525242,75.136176)"
       gradientUnits="userSpaceOnUse"
       id="linearGradient3006"
       xlink:href="#linearGradient3312"
       inkscape:collect="always" />
    <linearGradient
       y2="408.57144"
       x2="116.42857"
       y1="362.14285"
       x1="61.42857"
       gradientTransform="matrix(1.0484996,0,0,1.0484996,210.01137,213.49817)"
       gradientUnits="userSpaceOnUse"
       id="linearGradient4003"
       xlink:href="#linearGradient3312"
       inkscape:collect="always" />
    <linearGradient
       y2="379.95963"
       x2="100.47015"
       y1="426.11398"
       x1="148.5945"
       gradientTransform="matrix(1.0484996,0,0,1.0484996,210.01137,223.45798)"
       gradientUnits="userSpaceOnUse"
       id="linearGradient4007"
       xlink:href="#linearGradient3349"
       inkscape:collect="always" />
    <inkscape:perspective
       id="perspective4247"
       inkscape:persp3d-origin="372.04724 : 350.78739 : 1"
       inkscape:vp_z="744.09448 : 526.18109 : 1"
       inkscape:vp_y="0 : 1000 : 0"
       inkscape:vp_x="0 : 526.18109 : 1"
       sodipodi:type="inkscape:persp3d" />
    <inkscape:perspective
       sodipodi:type="inkscape:persp3d"
       inkscape:vp_x="0 : 0.5 : 1"
       inkscape:vp_y="0 : 1000 : 0"
       inkscape:vp_z="1 : 0.5 : 1"
       inkscape:persp3d-origin="0.5 : 0.33333333 : 1"
       id="perspective4230" />
  </defs>
  <sodipodi:namedview
     id="base"
     pagecolor="#21252e"
     bordercolor="#bebebe"
     borderopacity="1"
     inkscape:pageopacity="0"
     inkscape:pageshadow="2"
     inkscape:zoom="0.42328017"
     inkscape:cx="251.86127"
     inkscape:cy="108.52768"
     inkscape:document-units="px"
     inkscape:current-layer="g6354"
     showgrid="false"
     inkscape:window-width="662"
     inkscape:window-height="714"
     inkscape:window-x="1936"
     inkscape:window-y="36"
     inkscape:window-maximized="0"
     units="mm"
     inkscape:showpageshadow="false"
     showguides="true"
     inkscape:guide-bbox="true"
     inkscape:snap-global="false"
     inkscape:snap-bbox="true"
     inkscape:snap-others="true"
     fit-margin-top="0"
     fit-margin-left="0"
     fit-margin-right="0"
     fit-margin-bottom="0" />
  <metadata
     id="metadata7">
    <rdf:RDF>
      <cc:Work
         rdf:about="">
        <dc:format>image/svg+xml</dc:format>
        <dc:type
           rdf:resource="http://purl.org/dc/dcmitype/StillImage" />
        <dc:title />
      </cc:Work>
    </rdf:RDF>
  </metadata>
  <g
     inkscape:label="Layer 1"
     inkscape:groupmode="layer"
     id="layer1"
     style="opacity:0.96"
     transform="translate(-39.167521,88.250195)">
    <path
       style="fill:#000000"
       d=""
       id="path4134"
       inkscape:connector-curvature="0" />
    <g
       transform="translate(-141.01382,-425.49872)"
       style="display:inline"
       inkscape:label="debian vector"
       id="layer3">
      <g
         id="g4573"
         transform="translate(131.00657,-3.8976736)">
        <g
           id="g4627"
           style="opacity:0.99">
          <g
             id="g4740"
             transform="translate(-34.291185,268.4348)">
            <g
               transform="translate(380.29592,62.962549)"
               id="g4109">
              <g
                 transform="matrix(0.77230011,0,0,0.77230011,-239.76484,-6.9998595)"
                 style="fill:#ffffff;fill-opacity:1"
                 id="g4077">
                <g
                   id="layer1-5"
                   inkscape:label="Layer 1"
                   transform="matrix(1.2948334,0,0,1.2948334,-524.75052,-387.7468)">
                  <g
                     transform="translate(105.76257,-1.6247732)"
                     id="g6445">
                    <g
                       transform="matrix(0.73714688,0,0,0.72683577,246.12512,-72.471736)"
                       id="layer1-2"
                       inkscape:label="Layer 1">
                      <g
                         inkscape:export-ydpi="90"
                         inkscape:export-xdpi="90"
                         inkscape:export-filename="/ssh/alshainfi/emonk.fi/open/xubuntu/Logo renew/comparison.png"
                         transform="matrix(11.396466,0,0,11.396466,-4205.4876,-10080.568)"
                         id="g6354">
                        <path
                           style="fill:#ecf0f1"
                           d="m 390.73755,966.89782 c -3.44474,-0.34501 -6.5297,-2.25366 -8.45059,-5.22832 l -0.34429,-0.53315 -0.35306,-0.73627 c -0.56845,-1.18545 -0.89554,-2.26536 -1.09195,-3.60517 l -0.0856,-0.58394 1.9e-4,-1.04093 1.9e-4,-1.04093 0.0881,-0.60932 c 0.75484,-5.222 4.51707,-9.13811 9.61729,-10.01064 l 0.5395,-0.0923 1.12803,2.3e-4 1.12803,2.3e-4 0.56228,0.0911 c 0.30924,0.0501 0.85305,0.1683 1.20845,0.2626 l 0.64618,0.17147 0.58169,0.23705 c 3.79896,1.54816 6.48078,4.96528 7.13112,9.08635 l 0.0961,0.60932 1e-5,1.30246 10e-6,1.30247 -0.099,0.60167 c -0.83779,5.09165 -4.72116,9.02665 -9.61242,9.74023 l -0.56351,0.0822 -0.83376,0.0197 -0.83377,0.0198 -0.45924,-0.046 z m 0.74513,-3.62884 0.64681,-1.21865 0.46551,-0.0358 c 0.25602,-0.0197 0.57585,-0.0582 0.71073,-0.0855 l 0.24522,-0.0496 0.0804,0.0601 c 0.0442,0.0331 0.44872,0.48853 0.89886,1.01217 l 0.81843,0.95207 0.0956,0 0.0956,0 0.72958,-0.43289 0.72957,-0.43289 0.029,-0.0783 0.029,-0.0783 -0.34304,-1.21644 c -0.18867,-0.66904 -0.34303,-1.24972 -0.34303,-1.29041 l 0,-0.074 0.29345,-0.33525 c 0.1614,-0.18438 0.38841,-0.47617 0.50446,-0.64841 l 0.211,-0.31317 0.0718,0 c 0.0395,0 0.631,0.0315 1.31444,0.07 l 1.24261,0.07 0.0735,-0.0761 0.0735,-0.0761 0.22151,-0.85006 0.22151,-0.85006 -0.0677,-0.0701 -0.0677,-0.0701 -1.54051,-0.35582 c -0.84728,-0.19571 -1.58697,-0.35582 -1.64377,-0.35582 l -0.10327,0 -0.1391,0.44429 c -0.17509,0.55932 -0.43612,1.09794 -0.76898,1.58678 l -0.25931,0.38083 -0.36403,0.36888 -0.36404,0.36888 -0.40457,0.2787 c -0.50122,0.34528 -1.00874,0.59086 -1.5676,0.75853 l -0.42902,0.12872 -0.55436,0.0598 -0.55435,0.0598 -0.54365,-0.061 -0.54364,-0.061 -0.40538,-0.12231 -0.40538,-0.12232 -0.0536,0.0603 c -0.0295,0.0331 -0.14531,0.42588 -0.25739,0.87272 -0.11208,0.44683 -0.30067,1.19225 -0.41908,1.65648 l -0.21529,0.84406 0.0383,0.0641 0.0383,0.0641 0.75321,0.21969 0.7532,0.21969 0.16285,-0.0107 0.16286,-0.0107 0.64681,-1.21865 z m -5.63045,-1.38367 c 0.40963,-0.44714 2.15937,-2.46377 2.17339,-2.50489 0.009,-0.0271 -0.11669,-0.19686 -0.27979,-0.37736 -0.69381,-0.76788 -1.16776,-1.74743 -1.36036,-2.81155 l -0.0784,-0.4329 0.002,-0.61164 0.002,-0.61164 0.0762,-0.40568 c 0.1458,-0.77636 0.42227,-1.48096 0.83699,-2.13317 l 0.19373,-0.30466 0.48866,-0.52242 0.48866,-0.52242 -0.14431,-0.14366 c -0.0794,-0.079 -0.64647,-0.6151 -1.26024,-1.19131 l -1.11593,-1.04764 -0.085,0 -0.085,0 -0.62601,0.64667 -0.62601,0.64668 0,0.0696 c 0,0.0383 0.30899,0.59349 0.68663,1.23387 0.37765,0.64038 0.68663,1.18432 0.68663,1.20877 0,0.0384 -0.26422,0.64647 -0.53068,1.22138 l -0.0824,0.17773 -1.2476,0.26828 -1.24761,0.26828 -0.0643,0.0553 -0.0643,0.0553 0,0.93136 0,0.93138 0.0931,0.0516 c 0.0512,0.0284 0.55332,0.16696 1.11578,0.30797 0.56245,0.141 1.10398,0.27901 1.20338,0.30669 l 0.18074,0.0503 0.0802,0.28579 c 0.0655,0.23343 0.20256,0.58337 0.49501,1.26427 l 0.0233,0.0543 -0.71299,1.1291 -0.71299,1.1291 0,0.0886 0,0.0886 0.62954,0.6449 c 0.69201,0.70889 0.68491,0.70476 0.86767,0.50526 z m 13.09367,-7.95763 c 0.80924,-0.18173 1.51954,-0.34219 1.57844,-0.35658 l 0.10708,-0.0262 0.0295,-0.0964 0.0295,-0.0964 -0.20135,-0.82919 c -0.11075,-0.45604 -0.2246,-0.85816 -0.253,-0.8936 l -0.0516,-0.0644 -1.33048,-5.9e-4 -1.33047,-5.9e-4 -0.0516,-0.0373 c -0.0284,-0.0205 -0.10426,-0.1287 -0.16859,-0.24041 -0.0643,-0.11171 -0.2342,-0.36608 -0.37751,-0.56526 l -0.26055,-0.36216 0,-0.0919 c 0,-0.0505 0.19087,-0.6466 0.42415,-1.3246 l 0.42416,-1.23273 -0.0561,-0.07 c -0.0309,-0.0385 -0.37264,-0.26773 -0.75946,-0.50935 l -0.70332,-0.43932 -0.0922,0 -0.0922,0 -0.90981,0.93722 -0.90982,0.93722 -0.36748,-0.0975 c -0.20212,-0.0536 -0.56424,-0.12061 -0.80472,-0.1489 -0.53305,-0.0627 -0.41237,0.0857 -1.03507,-1.27263 -0.28807,-0.62836 -0.54612,-1.17104 -0.57346,-1.20595 l -0.0497,-0.0635 -0.12887,10e-4 c -0.18672,0.002 -1.62649,0.3865 -1.68914,0.45136 l -0.0529,0.0548 0.35381,1.68687 c 0.19459,0.92778 0.37343,1.70719 0.39742,1.73202 l 0.0436,0.0452 0.3111,-0.08 c 0.1711,-0.044 0.47663,-0.10646 0.67894,-0.13886 l 0.36783,-0.0589 0.61307,0.0289 0.61306,0.029 0.49045,0.1299 0.49045,0.1299 0.58854,0.30079 0.58854,0.30079 0.40679,0.3393 0.40679,0.33929 0.29761,0.358 c 0.37321,0.44894 0.58814,0.79574 0.8555,1.38037 l 0.21021,0.45969 0.11455,0.45699 c 0.063,0.25135 0.13233,0.48649 0.15406,0.52253 l 0.0395,0.0655 0.0817,-0.0264 c 0.0449,-0.0146 0.74381,-0.17512 1.55305,-0.35685 z"
                           id="path5714"
                           inkscape:connector-curvature="0" />
                      </g>
                    </g>
                  </g>
                </g>
              </g>
            </g>
          </g>
        </g>
      </g>
    </g>
  </g>
</svg>
