<?xml version="1.0" encoding="UTF-8" standalone="no"?>
<!-- Created with Inkscape (http://www.inkscape.org/) -->

<svg
   width="400"
   height="400"
   viewBox="0 0 375.00001 375.00003"
   id="svg2"
   version="1.1"
   inkscape:version="1.1.2 (0a00cf5339, 2022-02-04)"
   sodipodi:docname="os_kali.svg"
   inkscape:export-filename="../icons/os_kali.png"
   inkscape:export-xdpi="30.719999"
   inkscape:export-ydpi="30.719999"
   xmlns:inkscape="http://www.inkscape.org/namespaces/inkscape"
   xmlns:sodipodi="http://sodipodi.sourceforge.net/DTD/sodipodi-0.dtd"
   xmlns="http://www.w3.org/2000/svg"
   xmlns:svg="http://www.w3.org/2000/svg"
   xmlns:rdf="http://www.w3.org/1999/02/22-rdf-syntax-ns#"
   xmlns:cc="http://creativecommons.org/ns#"
   xmlns:dc="http://purl.org/dc/elements/1.1/">
  <defs
     id="defs4" />
  <sodipodi:namedview
     id="base"
     pagecolor="#21252e"
     bordercolor="#bebebe"
     borderopacity="1"
     inkscape:pageopacity="0"
     inkscape:pageshadow="2"
     inkscape:zoom="0.88591022"
     inkscape:cx="48.53765"
     inkscape:cy="119.08656"
     inkscape:document-units="px"
     inkscape:current-layer="g4016"
     showgrid="false"
     inkscape:window-width="1942"
     inkscape:window-height="1082"
     inkscape:window-x="258"
     inkscape:window-y="191"
     inkscape:window-maximized="0"
     units="px"
     inkscape:showpageshadow="false"
     showguides="true"
     inkscape:guide-bbox="true"
     inkscape:snap-global="true"
     inkscape:snap-bbox="true"
     inkscape:snap-others="false"
     fit-margin-top="0"
     fit-margin-left="0"
     fit-margin-right="0"
     fit-margin-bottom="0"
     inkscape:pagecheckerboard="0"
     width="400px"
     inkscape:snap-bbox-edge-midpoints="true"
     inkscape:bbox-nodes="true"
     inkscape:snap-nodes="false">
    <sodipodi:guide
       position="93.750005,375.00002"
       orientation="-1,0"
       id="guide839"
       inkscape:label=""
       inkscape:locked="false"
       inkscape:color="rgb(0,0,255)" />
    <sodipodi:guide
       position="281.25001,375.00002"
       orientation="-1,0"
       id="guide841"
       inkscape:label=""
       inkscape:locked="false"
       inkscape:color="rgb(0,0,255)" />
    <sodipodi:guide
       position="0,281.25001"
       orientation="0,1"
       id="guide843"
       inkscape:label=""
       inkscape:locked="false"
       inkscape:color="rgb(0,0,255)" />
    <sodipodi:guide
       position="0,93.750005"
       orientation="0,1"
       id="guide845"
       inkscape:label=""
       inkscape:locked="false"
       inkscape:color="rgb(0,0,255)" />
  </sodipodi:namedview>
  <metadata
     id="metadata7">
    <rdf:RDF>
      <cc:Work
         rdf:about="">
        <dc:format>image/svg+xml</dc:format>
        <dc:type
           rdf:resource="http://purl.org/dc/dcmitype/StillImage" />
      </cc:Work>
    </rdf:RDF>
  </metadata>
  <g
     inkscape:label="Layer 1"
     inkscape:groupmode="layer"
     id="layer1"
     style="opacity:0.96"
     transform="translate(-39.167521,88.250195)">
    <path
       style="fill:#000000"
       d=""
       id="path4134"
       inkscape:connector-curvature="0" />
    <g
       transform="translate(-141.01382,-425.49872)"
       style="display:inline"
       inkscape:label="debian vector"
       id="layer3">
      <g
         id="g4573"
         transform="translate(131.00657,-3.8976736)">
        <g
           id="g4627"
           style="opacity:0.99">
          <g
             id="g4740"
             transform="translate(-34.291185,268.4348)">
            <g
               transform="translate(380.29592,62.962549)"
               id="g4109">
              <g
                 transform="matrix(0.77230011,0,0,0.77230011,-239.76484,-6.9998595)"
                 style="fill:#ffffff;fill-opacity:1"
                 id="g4077">
                <g
                   id="layer1-5"
                   inkscape:label="Layer 1"
                   transform="matrix(1.2948334,0,0,1.2948334,-524.75052,-387.7468)">
                  <g
                     transform="translate(105.76257,-1.6247732)"
                     id="g6445">
                    <g
                       id="g6415"
                       transform="matrix(3.0715506,0,0,3.0715506,-521.15168,-1035.6235)">
                      <g
                         transform="translate(126.06579,-105.54595)"
                         id="g4016">
                        <g
                           id="g4182"
                           transform="matrix(0.61815127,0,0,0.61815127,205.2279,224.79962)" />
                        <path
                           style="display:inline;opacity:0.99;fill:#ecf0f1;fill-opacity:1;stroke-width:0.241914"
                           d="m 218.83205,637.75398 c -3.13941,-8.51546 -10.53768,-14.7526 -18.85244,-17.95905 -5.54489,-2.51904 -12.28752,-3.28485 -16.34205,-8.30067 -3.27455,-3.47608 -3.71036,-9.89241 -0.7478,-13.11832 1.8108,-1.97175 6.34363,-4.69984 3.99631,-8.23759 -1.6265,-2.55344 -0.32016,-7.246 -4.37016,-7.29021 -11.65922,-3.32024 -23.73548,-4.87504 -35.76509,-6.13825 13.51952,0.14926 27.53525,0.2375 40.15092,5.74885 -0.20347,3.72098 0.50537,8.51187 4.70706,9.69708 3.81935,1.17948 8.03233,1.05737 11.61067,3.03378 0.32455,-1.94544 3.60683,3.43862 2.73126,0.126 1.08003,0.4016 3.42319,4.22984 2.98356,1.32031 1.36553,1.70097 2.79056,2.9481 4.78561,3.12415 1.60979,1.31408 1.68061,3.42976 2.831,4.6417 0.4777,1.09377 3.61776,1.19985 2.68277,2.07942 -1.32413,1.05835 -1.88296,2.16956 -2.94936,0.31212 -1.58562,-1.78716 -4.12804,-2.38101 -5.75978,-4.04086 0.1309,-2.00995 -1.42274,-2.62874 -3.23384,-3.16807 -5.31468,-2.34461 -11.93575,-4.83795 -17.32733,-1.31708 -3.80831,2.10087 -6.1094,7.32032 -3.21116,11.09907 3.40146,5.57438 10.43639,6.26073 16.29973,6.9973 6.1928,0.55215 12.76819,2.53586 16.55918,7.82413 1.02234,1.16528 4.12376,6.39754 1.53065,2.87137 -3.61871,-4.23467 -8.93671,-7.12378 -14.53933,-7.39654 6.67335,3.58658 11.77803,10.39229 12.22962,18.09135 z m -4.29968,-35.13656 c -1.09876,-2.08213 -1.12659,-0.0692 0,0 z m -63.13666,-2.47885 c 8.26215,-7.21458 19.20605,-12.85685 29.82356,-12.13174 1.632,0.11143 5.344,0.67573 4.10154,2.69441 -9.28515,-0.0776 -18.35745,2.4727 -26.76939,6.25991 -2.40004,1.02544 -4.78063,2.09571 -7.15571,3.17742 z m 45.26341,-10.96707 c 5.57546,1.76509 11.44721,3.81795 15.61725,8.09389 2.16717,2.20986 -0.53382,2.05913 -1.29535,0.0303 -4.0868,-3.72527 -9.30771,-5.93905 -14.3219,-8.12408 z m -51.65292,-1.46191 c 12.79272,-3.41063 26.14689,-3.01632 39.26423,-3.51133 2.2697,2.08562 -4.61186,2.11282 -7.07212,2.11216 -11.03836,-0.002 -21.49575,0.40399 -32.19211,1.39917 z"
                           id="path4820"
                           inkscape:connector-curvature="0"
                           sodipodi:nodetypes="cccsccccccccccccccccccccccccscccccccccsc" />
                      </g>
                    </g>
                  </g>
                </g>
              </g>
            </g>
          </g>
        </g>
      </g>
    </g>
  </g>
</svg>
