<?xml version="1.0" encoding="UTF-8" standalone="no"?>
<!-- Created with Inkscape (http://www.inkscape.org/) -->

<svg
   width="400"
   height="400"
   viewBox="0 0 375.00001 375.00003"
   id="svg2"
   version="1.1"
   inkscape:version="1.1.2 (0a00cf5339, 2022-02-04)"
   sodipodi:docname="os_kubuntu.svg"
   inkscape:export-filename="../icons/os_kubuntu.png"
   inkscape:export-xdpi="30.719999"
   inkscape:export-ydpi="30.719999"
   xmlns:inkscape="http://www.inkscape.org/namespaces/inkscape"
   xmlns:sodipodi="http://sodipodi.sourceforge.net/DTD/sodipodi-0.dtd"
   xmlns="http://www.w3.org/2000/svg"
   xmlns:svg="http://www.w3.org/2000/svg"
   xmlns:rdf="http://www.w3.org/1999/02/22-rdf-syntax-ns#"
   xmlns:cc="http://creativecommons.org/ns#"
   xmlns:dc="http://purl.org/dc/elements/1.1/">
  <defs
     id="defs4" />
  <sodipodi:namedview
     id="base"
     pagecolor="#21252e"
     bordercolor="#bebebe"
     borderopacity="1"
     inkscape:pageopacity="0"
     inkscape:pageshadow="2"
     inkscape:zoom="1.2528662"
     inkscape:cx="217.10219"
     inkscape:cy="212.71225"
     inkscape:document-units="px"
     inkscape:current-layer="g4016"
     showgrid="false"
     inkscape:window-width="1942"
     inkscape:window-height="1082"
     inkscape:window-x="258"
     inkscape:window-y="191"
     inkscape:window-maximized="0"
     units="px"
     inkscape:showpageshadow="false"
     showguides="true"
     inkscape:guide-bbox="true"
     inkscape:snap-global="true"
     inkscape:snap-bbox="true"
     inkscape:snap-others="false"
     fit-margin-top="0"
     fit-margin-left="0"
     fit-margin-right="0"
     fit-margin-bottom="0"
     inkscape:pagecheckerboard="0"
     width="400px"
     inkscape:snap-nodes="false"
     inkscape:snap-bbox-edge-midpoints="true"
     inkscape:bbox-paths="true">
    <sodipodi:guide
       position="93.750005,375.00002"
       orientation="-1,0"
       id="guide839"
       inkscape:label=""
       inkscape:locked="false"
       inkscape:color="rgb(0,0,255)" />
    <sodipodi:guide
       position="281.25001,375.00002"
       orientation="-1,0"
       id="guide841"
       inkscape:label=""
       inkscape:locked="false"
       inkscape:color="rgb(0,0,255)" />
    <sodipodi:guide
       position="0,281.25001"
       orientation="0,1"
       id="guide843"
       inkscape:label=""
       inkscape:locked="false"
       inkscape:color="rgb(0,0,255)" />
    <sodipodi:guide
       position="0,93.750005"
       orientation="0,1"
       id="guide845"
       inkscape:label=""
       inkscape:locked="false"
       inkscape:color="rgb(0,0,255)" />
  </sodipodi:namedview>
  <metadata
     id="metadata7">
    <rdf:RDF>
      <cc:Work
         rdf:about="">
        <dc:format>image/svg+xml</dc:format>
        <dc:type
           rdf:resource="http://purl.org/dc/dcmitype/StillImage" />
      </cc:Work>
    </rdf:RDF>
  </metadata>
  <g
     inkscape:label="Layer 1"
     inkscape:groupmode="layer"
     id="layer1"
     style="opacity:0.96"
     transform="translate(-39.167521,88.250195)">
    <path
       style="fill:#000000"
       d=""
       id="path4134"
       inkscape:connector-curvature="0" />
    <g
       transform="translate(-141.01382,-425.49872)"
       style="display:inline"
       inkscape:label="debian vector"
       id="layer3">
      <g
         id="g4573"
         transform="translate(131.00657,-3.8976736)">
        <g
           id="g4627"
           style="opacity:0.99">
          <g
             id="g4740"
             transform="translate(-34.291185,268.4348)">
            <g
               transform="translate(380.29592,62.962549)"
               id="g4109">
              <g
                 transform="matrix(0.77230011,0,0,0.77230011,-239.76484,-6.9998595)"
                 style="fill:#ffffff;fill-opacity:1"
                 id="g4077">
                <g
                   id="layer1-5"
                   inkscape:label="Layer 1"
                   transform="matrix(1.2948334,0,0,1.2948334,-524.75052,-387.7468)">
                  <g
                     transform="translate(105.76257,-1.6247732)"
                     id="g6445">
                    <g
                       id="g6415"
                       transform="matrix(3.0715506,0,0,3.0715506,-521.15168,-1035.6235)">
                      <g
                         transform="translate(126.06579,-105.54595)"
                         id="g4016">
                        <g
                           id="g4182"
                           transform="matrix(0.61815127,0,0,0.61815127,205.2279,224.79962)" />
                        <path
                           style="display:inline;opacity:0.99;fill:#ecf0f1;fill-opacity:1;stroke-width:2.63991"
                           d="m 180.79047,637.63491 c -9.25239,-0.89519 -17.53846,-5.84747 -22.69787,-13.56569 l -0.92475,-1.38334 -0.9483,-1.91036 c -1.52682,-3.07583 -2.40537,-5.87783 -2.93292,-9.35417 l -0.22992,-1.51513 5.1e-4,-2.70085 5.2e-4,-2.70086 0.23662,-1.58097 c 2.02747,-13.54929 12.13264,-23.71025 25.83158,-25.97416 l 1.44907,-0.23949 3.02983,6.1e-4 3.02984,5.9e-4 1.51025,0.23637 c 0.83061,0.13 2.29126,0.43668 3.24585,0.68136 l 1.7356,0.44491 1.56241,0.61505 c 10.20381,4.01694 17.40704,12.88319 19.15383,23.57595 l 0.25812,1.58097 3e-5,3.37944 3e-5,3.37946 -0.26591,1.56112 c -2.25026,13.21108 -12.68081,23.42104 -25.8185,25.27254 l -1.51356,0.21328 -2.23945,0.0511 -2.23947,0.0514 -1.23348,-0.11934 z m 2.00139,-9.41559 1.73731,-3.16198 1.25032,-0.0928 c 0.68766,-0.0511 1.54672,-0.151 1.90899,-0.22184 l 0.65865,-0.12869 0.21596,0.15593 c 0.11872,0.0859 1.20524,1.26757 2.4143,2.62623 l 2.19825,2.47029 h 0.25678 0.25677 l 1.95963,-1.1232 1.95958,-1.12319 0.0778,-0.20316 0.0779,-0.20317 -0.92139,-3.15624 c -0.50677,-1.73593 -0.92137,-3.24259 -0.92137,-3.34817 v -0.192 l 0.78819,-0.86986 c 0.43351,-0.4784 1.04326,-1.2355 1.35496,-1.6824 l 0.56673,-0.81257 h 0.19286 c 0.10609,0 1.69483,0.0817 3.53052,0.18163 l 3.33758,0.18162 0.19743,-0.19745 0.19741,-0.19745 0.59497,-2.20561 0.59497,-2.20562 -0.18184,-0.18188 -0.18185,-0.18189 -4.13772,-0.92323 c -2.27576,-0.50779 -4.26253,-0.92323 -4.4151,-0.92323 h -0.27737 l -0.37361,1.15278 c -0.4703,1.45125 -1.17141,2.84878 -2.06546,4.11715 l -0.69649,0.98812 -0.97776,0.95712 -0.9778,0.95712 -1.08665,0.72312 c -1.34626,0.89589 -2.70944,1.53309 -4.2105,1.96813 l -1.15234,0.33398 -1.48897,0.15516 -1.48896,0.15517 -1.46023,-0.15828 -1.46017,-0.15827 -1.08884,-0.31736 -1.08883,-0.31738 -0.14397,0.15647 c -0.0793,0.0859 -0.3903,1.105 -0.69133,2.2644 -0.30105,1.15937 -0.80758,3.09348 -1.12564,4.29799 l -0.57826,2.19005 0.10287,0.16631 0.10287,0.16632 2.0231,0.57002 2.02305,0.57002 0.43742,-0.0278 0.43743,-0.0278 1.7373,-3.16196 z m -15.12311,-3.59014 c 1.10024,-1.16018 5.79996,-6.39264 5.83761,-6.49933 0.0241,-0.0704 -0.31342,-0.51078 -0.7515,-0.97912 -1.86354,-1.99238 -3.13654,-4.53398 -3.65386,-7.29499 l -0.21058,-1.12324 0.005,-1.587 0.005,-1.58699 0.20467,-1.0526 c 0.39161,-2.01438 1.1342,-3.84257 2.24812,-5.53483 l 0.52035,-0.7905 1.31252,-1.35549 1.31252,-1.3555 -0.38762,-0.37276 c -0.21326,-0.20497 -1.73638,-1.59596 -3.38494,-3.09103 l -2.99734,-2.71827 h -0.22831 -0.22829 l -1.68144,1.67789 -1.68143,1.67791 v 0.1806 c 0,0.0994 0.82993,1.53989 1.84425,3.20146 1.01435,1.66156 1.84426,3.07289 1.84426,3.13634 0,0.0996 -0.70968,1.67737 -1.42538,3.16906 l -0.22132,0.46114 -3.351,0.69611 -3.35102,0.69608 -0.17271,0.14349 -0.1727,0.14348 v 2.41656 2.41661 l 0.25006,0.13388 c 0.13751,0.0737 1.48619,0.4332 2.99693,0.79909 1.51072,0.36584 2.96523,0.72393 3.23222,0.79575 l 0.48546,0.13051 0.21541,0.74153 c 0.17593,0.60566 0.54407,1.51364 1.32958,3.28033 l 0.0625,0.1409 -1.91505,2.92962 -1.91506,2.92963 v 0.22988 0.22988 l 1.69092,1.6733 c 1.85871,1.83933 1.83964,1.82861 2.33052,1.31099 z m 35.16896,-20.64731 c 2.17358,-0.47153 4.08142,-0.88787 4.23961,-0.9252 l 0.28762,-0.068 0.0793,-0.25013 0.0793,-0.25013 -0.54082,-2.15146 c -0.29746,-1.18326 -0.60326,-2.22663 -0.67954,-2.31858 l -0.13859,-0.1671 -3.57361,-0.002 -3.57359,-0.002 -0.13859,-0.0968 c -0.0763,-0.0532 -0.28003,-0.33394 -0.45282,-0.62379 -0.1727,-0.28985 -0.62905,-0.94985 -1.01398,-1.46665 l -0.69982,-0.93969 v -0.23843 c 0,-0.13104 0.51266,-1.67771 1.13924,-3.43689 l 1.13928,-3.19851 -0.15068,-0.18163 c -0.083,-0.0999 -1.00089,-0.69466 -2.03988,-1.32158 l -1.88908,-1.13989 h -0.24764 -0.24765 l -2.44371,2.43176 -2.44373,2.43177 -0.98704,-0.25298 c -0.54288,-0.13908 -1.51551,-0.31294 -2.16143,-0.38634 -1.43175,-0.16269 -1.10761,0.22235 -2.78016,-3.30204 -0.77373,-1.63037 -1.46684,-3.03844 -1.54027,-3.12903 l -0.1335,-0.16476 -0.34613,0.003 c -0.50152,0.005 -4.36868,1.00284 -4.53695,1.17112 l -0.14208,0.14218 0.95031,4.37686 c 0.52266,2.40727 1.00301,4.42957 1.06745,4.49399 l 0.11711,0.11728 0.83559,-0.20757 c 0.45957,-0.11417 1.28021,-0.27623 1.82361,-0.36029 l 0.98797,-0.15283 1.64668,0.0749 1.64664,0.0752 1.31733,0.33704 1.31732,0.33704 1.58079,0.78045 1.58079,0.78044 1.09262,0.88037 1.09262,0.88035 0.79937,0.92888 c 1.00242,1.16484 1.57972,2.06467 2.29783,3.58158 l 0.56461,1.19275 0.30768,1.18573 c 0.16921,0.65217 0.35543,1.26227 0.41379,1.35578 l 0.1061,0.16995 0.21944,-0.0685 c 0.12061,-0.0379 1.99784,-0.45437 4.17142,-0.9259 z"
                           id="path5714"
                           inkscape:connector-curvature="0" />
                      </g>
                    </g>
                  </g>
                </g>
              </g>
            </g>
          </g>
        </g>
      </g>
    </g>
  </g>
</svg>
