<?xml version="1.0" encoding="UTF-8" standalone="no"?>
<!-- Created with Inkscape (http://www.inkscape.org/) -->

<svg
   width="400"
   height="400"
   viewBox="0 0 375.00001 375.00003"
   id="svg2"
   version="1.1"
   inkscape:version="1.1.2 (0a00cf5339, 2022-02-04)"
   sodipodi:docname="os_linux.svg"
   inkscape:export-filename="../icons/os_linux.png"
   inkscape:export-xdpi="30.719999"
   inkscape:export-ydpi="30.719999"
   xmlns:inkscape="http://www.inkscape.org/namespaces/inkscape"
   xmlns:sodipodi="http://sodipodi.sourceforge.net/DTD/sodipodi-0.dtd"
   xmlns="http://www.w3.org/2000/svg"
   xmlns:svg="http://www.w3.org/2000/svg"
   xmlns:rdf="http://www.w3.org/1999/02/22-rdf-syntax-ns#"
   xmlns:cc="http://creativecommons.org/ns#"
   xmlns:dc="http://purl.org/dc/elements/1.1/">
  <defs
     id="defs4" />
  <sodipodi:namedview
     id="base"
     pagecolor="#21252e"
     bordercolor="#bebebe"
     borderopacity="1"
     inkscape:pageopacity="0"
     inkscape:pageshadow="2"
     inkscape:zoom="1.7718204"
     inkscape:cx="117.39339"
     inkscape:cy="266.67488"
     inkscape:document-units="px"
     inkscape:current-layer="g4016"
     showgrid="false"
     inkscape:window-width="1942"
     inkscape:window-height="1082"
     inkscape:window-x="458"
     inkscape:window-y="292"
     inkscape:window-maximized="0"
     units="px"
     inkscape:showpageshadow="false"
     showguides="true"
     inkscape:guide-bbox="true"
     inkscape:snap-global="true"
     inkscape:snap-bbox="true"
     inkscape:snap-others="false"
     fit-margin-top="0"
     fit-margin-left="0"
     fit-margin-right="0"
     fit-margin-bottom="0"
     inkscape:pagecheckerboard="0"
     width="400px"
     inkscape:bbox-paths="true"
     inkscape:bbox-nodes="true"
     inkscape:snap-nodes="false">
    <sodipodi:guide
       position="93.750005,375.00002"
       orientation="-1,0"
       id="guide839"
       inkscape:label=""
       inkscape:locked="false"
       inkscape:color="rgb(0,0,255)" />
    <sodipodi:guide
       position="281.25001,375.00002"
       orientation="-1,0"
       id="guide841"
       inkscape:label=""
       inkscape:locked="false"
       inkscape:color="rgb(0,0,255)" />
    <sodipodi:guide
       position="0,281.25001"
       orientation="0,1"
       id="guide843"
       inkscape:label=""
       inkscape:locked="false"
       inkscape:color="rgb(0,0,255)" />
    <sodipodi:guide
       position="0,93.750005"
       orientation="0,1"
       id="guide845"
       inkscape:label=""
       inkscape:locked="false"
       inkscape:color="rgb(0,0,255)" />
  </sodipodi:namedview>
  <metadata
     id="metadata7">
    <rdf:RDF>
      <cc:Work
         rdf:about="">
        <dc:format>image/svg+xml</dc:format>
        <dc:type
           rdf:resource="http://purl.org/dc/dcmitype/StillImage" />
      </cc:Work>
    </rdf:RDF>
  </metadata>
  <g
     inkscape:label="Layer 1"
     inkscape:groupmode="layer"
     id="layer1"
     style="opacity:0.96"
     transform="translate(-39.167521,88.250195)">
    <path
       style="fill:#000000"
       d=""
       id="path4134"
       inkscape:connector-curvature="0" />
    <g
       transform="translate(-141.01382,-425.49872)"
       style="display:inline"
       inkscape:label="debian vector"
       id="layer3">
      <g
         id="g4573"
         transform="translate(131.00657,-3.8976736)">
        <g
           id="g4627"
           style="opacity:0.99">
          <g
             id="g4740"
             transform="translate(-34.291185,268.4348)">
            <g
               transform="translate(380.29592,62.962549)"
               id="g4109">
              <g
                 transform="matrix(0.77230011,0,0,0.77230011,-239.76484,-6.9998595)"
                 style="fill:#ffffff;fill-opacity:1"
                 id="g4077">
                <g
                   id="layer1-5"
                   inkscape:label="Layer 1"
                   transform="matrix(1.2948334,0,0,1.2948334,-524.75052,-387.7468)">
                  <g
                     transform="translate(105.76257,-1.6247732)"
                     id="g6445">
                    <g
                       id="g6415"
                       transform="matrix(3.0715506,0,0,3.0715506,-521.15168,-1035.6235)">
                      <g
                         transform="translate(126.06579,-105.54595)"
                         id="g4016">
                        <g
                           id="g4182"
                           transform="matrix(0.61815127,0,0,0.61815127,205.2279,224.79962)" />
                        <path
                           style="display:inline;opacity:0.99;fill:#ecf0f1;fill-opacity:1;stroke-width:0.196051"
                           d="m 200.00612,619.33665 c -0.81365,-5.0353 -2.90934,-9.33257 -7.04985,-12.36897 -0.89295,-1.1882 -5.46641,-1.13167 -2.14942,-1.58618 3.07579,-0.55417 5.58609,-3.76237 4.38746,-6.8601 -1.48012,-3.76305 -8.9634,-6.90185 -10.37182,-0.68114 -0.24051,1.06233 1.48406,0.25803 1.94187,1.24637 0.69486,1.50006 -1.63768,5.23829 -3.80031,4.49017 -3.77432,-2.37735 -3.86816,-4.7323 -0.93314,-4.91467 3.41026,-0.55467 -0.37525,-4.99201 -2.39687,-5.79446 -3.03026,-1.6001 -6.51278,0.79398 -7.36932,3.81444 -1.30504,3.18666 -0.40887,7.04473 2.0335,9.43762 -1.09972,2.47664 -4.11326,3.54673 -4.95703,6.28744 -2.53152,4.50354 -3.12807,9.45255 -2.69814,14.27651 0.3316,3.72075 1.96659,6.75805 -0.76885,4.09741 -2.39447,-3.75111 -3.97768,-8.12407 -3.79125,-12.63766 -3.17196,0.1453 -5.91826,4.30686 -9.0105,2.4814 -0.27582,-3.11882 3.13894,-5.18357 5.21356,-7.10469 3.19182,-2.47259 6.42381,-5.50829 7.02428,-9.71755 0.76814,-4.09465 0.18752,-8.59266 2.63113,-12.22789 4.34115,-7.87708 15.1187,-11.49307 23.20638,-7.33844 6.22261,2.9193 10.4629,9.67124 10.10263,16.57761 0.17045,4.63892 2.47291,9.16118 6.32923,11.80321 2.50398,2.05105 5.35069,4.07294 6.52114,7.22853 -1.38449,3.40792 -5.11471,-1.28139 -7.32649,-1.83688 -3.25628,-0.0176 -4.41613,9.29474 -6.46211,13.06421 -0.88966,1.6391 -1.72599,1.27894 -1.03882,-3.22231 0.46194,-3.02589 0.82856,-7.92095 0.73274,-8.51398 z m -17.37739,-6.68757 c -2.58363,-1.48851 -3.56481,-5.06688 -6.8342,-5.50763 3.05504,-0.88102 4.18159,2.69228 6.22274,4.17651 1.92671,2.06055 6.03614,-2.05413 8.20335,-4.44623 -0.43592,1.63983 -5.77011,6.81598 -7.59189,5.77735 z m 7.32347,-18.86786 c 0.75336,-0.0571 2.34389,0.11176 2.60047,-0.0795 -3.00356,-2.82203 -9.104,-0.4343 -2.60047,0.0795 z m -11.18118,-3.23404 c -1.40289,-0.90347 -5.90267,0.69944 -2.16225,1.15712 2.07021,0.26231 5.22762,1.22712 2.16225,-1.15712 z"
                           id="path4942"
                           inkscape:connector-curvature="0"
                           sodipodi:nodetypes="scccssccccccscccccccccccsssccccccccccc" />
                      </g>
                    </g>
                  </g>
                </g>
              </g>
            </g>
          </g>
        </g>
      </g>
    </g>
  </g>
</svg>
