<?xml version="1.0" encoding="UTF-8" standalone="no"?>
<!-- Created with Inkscape (http://www.inkscape.org/) -->

<svg
   width="400"
   height="400"
   viewBox="0 0 375.00001 375.00003"
   id="svg2"
   version="1.1"
   inkscape:version="1.1.2 (0a00cf5339, 2022-02-04)"
   sodipodi:docname="os_linux.svg"
   inkscape:export-filename="../icons/os_linux.png"
   inkscape:export-xdpi="30.719999"
   inkscape:export-ydpi="30.719999"
   xmlns:inkscape="http://www.inkscape.org/namespaces/inkscape"
   xmlns:sodipodi="http://sodipodi.sourceforge.net/DTD/sodipodi-0.dtd"
   xmlns="http://www.w3.org/2000/svg"
   xmlns:svg="http://www.w3.org/2000/svg"
   xmlns:rdf="http://www.w3.org/1999/02/22-rdf-syntax-ns#"
   xmlns:cc="http://creativecommons.org/ns#"
   xmlns:dc="http://purl.org/dc/elements/1.1/">
  <defs
     id="defs4" />
  <sodipodi:namedview
     id="base"
     pagecolor="#21252e"
     bordercolor="#bebebe"
     borderopacity="1"
     inkscape:pageopacity="0"
     inkscape:pageshadow="2"
     inkscape:zoom="0.62643311"
     inkscape:cx="298.51551"
     inkscape:cy="288.1393"
     inkscape:document-units="px"
     inkscape:current-layer="svg2"
     showgrid="false"
     inkscape:window-width="1942"
     inkscape:window-height="1082"
     inkscape:window-x="458"
     inkscape:window-y="292"
     inkscape:window-maximized="0"
     units="px"
     inkscape:showpageshadow="false"
     showguides="true"
     inkscape:guide-bbox="true"
     inkscape:snap-global="true"
     inkscape:snap-bbox="true"
     inkscape:snap-others="false"
     fit-margin-top="0"
     fit-margin-left="0"
     fit-margin-right="0"
     fit-margin-bottom="0"
     inkscape:pagecheckerboard="0"
     width="400px"
     inkscape:bbox-paths="true"
     inkscape:bbox-nodes="true"
     inkscape:snap-nodes="false">
    <sodipodi:guide
       position="93.750005,375.00002"
       orientation="-1,0"
       id="guide839"
       inkscape:label=""
       inkscape:locked="false"
       inkscape:color="rgb(0,0,255)" />
    <sodipodi:guide
       position="281.25001,375.00002"
       orientation="-1,0"
       id="guide841"
       inkscape:label=""
       inkscape:locked="false"
       inkscape:color="rgb(0,0,255)" />
    <sodipodi:guide
       position="0,281.25001"
       orientation="0,1"
       id="guide843"
       inkscape:label=""
       inkscape:locked="false"
       inkscape:color="rgb(0,0,255)" />
    <sodipodi:guide
       position="0,93.750005"
       orientation="0,1"
       id="guide845"
       inkscape:label=""
       inkscape:locked="false"
       inkscape:color="rgb(0,0,255)" />
  </sodipodi:namedview>
  <metadata
     id="metadata7">
    <rdf:RDF>
      <cc:Work
         rdf:about="">
        <dc:format>image/svg+xml</dc:format>
        <dc:type
           rdf:resource="http://purl.org/dc/dcmitype/StillImage" />
      </cc:Work>
    </rdf:RDF>
  </metadata>
  <path
     style="display:inline;opacity:1;fill:#ecf0f1;fill-opacity:1;stroke-width:0.241913"
     d="m 203.81257,622.16831 c -1.004,-6.21323 -3.58992,-11.51575 -8.69903,-15.26246 -1.10184,-1.46614 -6.74517,-1.3964 -2.65224,-1.95724 3.79531,-0.6838 6.89285,-4.64249 5.41382,-8.46487 -1.82636,-4.64334 -11.06022,-8.51641 -12.7981,-0.84048 -0.29676,1.31084 1.83123,0.31838 2.39613,1.53792 0.85741,1.85098 -2.02078,6.4637 -4.68931,5.54057 -4.65724,-2.93349 -4.77304,-5.83932 -1.15142,-6.06435 4.20802,-0.68443 -0.46303,-6.15981 -2.95758,-7.14998 -3.73912,-1.9744 -8.03631,0.97972 -9.09323,4.70676 -1.61033,3.93212 -0.50451,8.6927 2.5092,11.64536 -1.35698,3.056 -5.07548,4.37642 -6.11662,7.75828 -3.12373,5.55704 -3.85982,11.66378 -3.32931,17.6162 0.40915,4.59115 2.42663,8.33895 -0.94871,5.05592 -2.95462,-4.62862 -4.90819,-10.02453 -4.67814,-15.59399 -3.91399,0.17929 -3.77621,6.31121 -5.22638,4.94245 -2.06512,-1.9492 -2.01871,-8.27673 0.54121,-10.64727 3.93849,-3.051 7.92654,-6.79685 8.66748,-11.99078 0.94783,-5.0525 0.23138,-10.60274 3.24663,-15.08835 5.35668,-9.71977 18.65542,-14.18164 28.63506,-9.05512 7.67825,3.60221 12.91046,11.93363 12.46592,20.45562 0.21032,5.7241 3.0514,11.30424 7.80983,14.56432 3.08974,2.53085 3.99243,6.75358 3.99024,11.32808 -1.70837,4.20514 -2.2548,-3.98972 -4.98398,-4.67517 -4.01803,-0.0218 -5.4492,11.46907 -7.97379,16.12033 -1.09779,2.02254 -2.12975,1.57813 -1.28184,-3.97611 0.57,-3.73373 1.02239,-9.7739 0.90416,-10.50564 z m -21.44249,-8.252 c -3.18801,-1.83672 -4.39873,-6.25218 -8.43292,-6.79603 3.76971,-1.08713 5.15978,3.32207 7.67842,5.15351 2.37743,2.54258 7.44818,-2.53463 10.12237,-5.48633 -0.5379,2.02344 -7.11993,8.41045 -9.36787,7.12885 z m 9.03665,-23.28162 c 0.92959,-0.0705 2.89219,0.1379 3.20879,-0.0981 -3.70617,-3.48219 -11.2337,-0.5359 -3.20879,0.0981 z m -13.79679,-3.99058 c -1.73106,-1.11482 -7.28348,0.86306 -2.66807,1.4278 2.55449,0.32367 6.45053,1.51418 2.66807,-1.4278 z"
     id="path4942"
     inkscape:connector-curvature="0"
     sodipodi:nodetypes="scccssccccccsccsccccccccsssccccccccccc"
     transform="matrix(3.07155,0,0,3.07155,-376.371,-1677.65)" />
</svg>
