<?xml version="1.0" encoding="UTF-8" standalone="no"?>
<!-- Created with Inkscape (http://www.inkscape.org/) -->

<svg
   width="110mm"
   height="110mm"
   viewBox="0 0 389.76378 389.7638"
   id="svg2"
   version="1.1"
   inkscape:version="1.1.2 (0a00cf5339, 2022-02-04)"
   sodipodi:docname="os_mandriva.svg"
   inkscape:export-filename="/home/rain/minidark/icons/os_mandriva.png"
   inkscape:export-xdpi="29.556362"
   inkscape:export-ydpi="29.556362"
   xmlns:inkscape="http://www.inkscape.org/namespaces/inkscape"
   xmlns:sodipodi="http://sodipodi.sourceforge.net/DTD/sodipodi-0.dtd"
   xmlns="http://www.w3.org/2000/svg"
   xmlns:svg="http://www.w3.org/2000/svg"
   xmlns:rdf="http://www.w3.org/1999/02/22-rdf-syntax-ns#"
   xmlns:cc="http://creativecommons.org/ns#"
   xmlns:dc="http://purl.org/dc/elements/1.1/">
  <defs
     id="defs4" />
  <sodipodi:namedview
     id="base"
     pagecolor="#21252e"
     bordercolor="#bebebe"
     borderopacity="1"
     inkscape:pageopacity="0"
     inkscape:pageshadow="2"
     inkscape:zoom="0.40426563"
     inkscape:cx="185.52158"
     inkscape:cy="129.86511"
     inkscape:document-units="px"
     inkscape:current-layer="g6445"
     showgrid="false"
     inkscape:window-width="1300"
     inkscape:window-height="714"
     inkscape:window-x="1260"
     inkscape:window-y="36"
     inkscape:window-maximized="0"
     units="mm"
     inkscape:showpageshadow="false"
     showguides="true"
     inkscape:guide-bbox="true"
     inkscape:snap-global="false"
     inkscape:snap-bbox="true"
     inkscape:snap-others="true"
     fit-margin-top="0"
     fit-margin-left="0"
     fit-margin-right="0"
     fit-margin-bottom="0"
     inkscape:pagecheckerboard="0" />
  <metadata
     id="metadata7">
    <rdf:RDF>
      <cc:Work
         rdf:about="">
        <dc:format>image/svg+xml</dc:format>
        <dc:type
           rdf:resource="http://purl.org/dc/dcmitype/StillImage" />
      </cc:Work>
    </rdf:RDF>
  </metadata>
  <g
     inkscape:label="Layer 1"
     inkscape:groupmode="layer"
     id="layer1"
     style="opacity:0.96"
     transform="translate(-39.167521,88.250195)">
    <path
       style="fill:#000000"
       d=""
       id="path4134"
       inkscape:connector-curvature="0" />
    <g
       transform="translate(-141.01382,-425.49872)"
       style="display:inline"
       inkscape:label="debian vector"
       id="layer3">
      <g
         id="g4573"
         transform="translate(131.00657,-3.8976736)">
        <g
           id="g4627"
           style="opacity:0.99">
          <g
             id="g4740"
             transform="translate(-34.291185,268.4348)">
            <g
               transform="translate(380.29592,62.962549)"
               id="g4109">
              <g
                 transform="matrix(0.77230011,0,0,0.77230011,-239.76484,-6.9998595)"
                 style="fill:#ffffff;fill-opacity:1"
                 id="g4077">
                <g
                   id="layer1-5"
                   inkscape:label="Layer 1"
                   transform="matrix(1.2948334,0,0,1.2948334,-524.75052,-387.7468)">
                  <g
                     transform="translate(105.76257,-1.6247732)"
                     id="g6445">
                    <path
                       style="fill:#ecf0f1"
                       d="m 483.63806,610.02737 c -14.60855,-12.12663 -27.18898,-26.71268 -41.02816,-39.77983 -4.27036,-6.57216 -12.75818,-8.39791 -19.72177,-5.30896 -18.09464,7.22317 -36.20072,14.91001 -54.60276,21.09029 -5.23378,-3.85447 2.24373,-11.81597 4.36727,-17.40936 5.53021,-14.56652 15.26088,-27.26454 21.58077,-41.46288 2.66992,-11.6568 -9.00276,-19.01694 -14.6687,-27.84671 -7.56153,-11.78385 -19.51726,-20.61087 -25.62652,-33.2807 0.90966,-6.77508 9.93949,-1.20099 14.91917,-0.99243 17.60484,0.73732 34.85984,5.44896 52.26618,7.90659 8.24976,-2.53455 11.37637,-11.96831 16.39115,-18.50769 9.45923,-12.33504 14.83593,-27.68815 25.6958,-38.91526 6.13137,0.50932 4.86799,10.7488 6.52705,15.24057 2.9225,16.26033 2.79675,33.10688 7.38367,48.96652 5.4607,11.62549 20.38861,10.21998 30.97712,13.87085 12.08839,4.16803 25.33454,5.40042 36.8596,11.03292 -0.10373,7.00474 -10.87752,7.72299 -15.45802,11.24271 -13.34414,7.4817 -27.672,13.34823 -40.82478,21.06146 -8.09893,6.08413 -3.65712,16.6155 -4.1513,25.07228 -0.87845,15.03286 2.40955,30.09777 2.1381,45.12488 0.036,1.48155 -1.30924,3.64969 -3.02387,2.89475 z m -132.19776,-0.0452 c -14.26759,-1.40868 -29.40933,-8.62709 -38.03737,-20.07722 -12.97467,-17.21846 -14.44267,-41.77949 -13.25397,-63.30632 0.99396,-18.00028 7.83325,-35.77889 16.84364,-51.39333 5.84433,-10.12786 14.22131,-18.81753 23.39464,-26.13922 -16.42696,19.64101 -24.60574,45.74433 -25.72463,70.84213 -0.91909,20.6161 2.3596,43.01796 15.86895,59.84139 10.27318,11.7321 26.73783,15.95651 41.54064,15.7163 22.35656,-0.36278 43.12723,-13.77719 61.93534,-25.7593 -10.02146,12.03602 -13.51717,11.02891 -31.68882,25.15739 -15.69369,8.16869 -33.27168,16.85655 -50.87842,15.11818 z m 187.42619,-82.67783 c -5.46581,-5.04558 4.36591,-12.14797 5.53563,-17.34025 2.41953,-4.04205 7.33193,0.63087 4.6513,3.66684 -3.26431,3.65046 -4.40743,13.86599 -10.18693,13.67341 z m 22.40824,-0.38643 c -5.17679,-3.26721 -9.2626,-10.78263 -10.22825,-16.84664 6.41286,-5.31447 9.50011,8.80514 13.25678,12.19818 0.43786,2.09093 -0.14634,5.25637 -3.02853,4.64846 z m -5.70676,-19.05721 c -6.42834,-6.08393 5.5566,-6.44453 9.59262,-5.76073 3.19634,0.50811 9.55741,-1.86475 9.79521,3.04244 -1.55257,5.21981 -8.84011,2.13855 -13.09422,3.01471 -2.03004,-0.21089 -4.41699,0.35788 -6.29361,-0.29642 z m -9.87029,-4.93387 c -4.08057,-4.91504 -10.30762,-11.15658 -10.23235,-17.88236 5.5714,-6.0262 9.48505,8.64769 12.63523,11.88975 2.25073,2.00936 1.44282,7.31659 -2.40288,5.99261 z m 5.75854,-0.22361 c -4.676,-4.87635 4.60862,-11.27903 5.67181,-16.60507 1.05613,-4.23505 7.42171,-2.10761 5.66038,2.02174 -3.78074,3.85425 -5.00483,14.54369 -11.33219,14.58333 z"
                       id="path5380"
                       inkscape:connector-curvature="0"
                       sodipodi:nodetypes="ccccacacacacccscccaccaaaacacaccaccccccccccccccccccccc" />
                  </g>
                </g>
              </g>
            </g>
          </g>
        </g>
      </g>
    </g>
  </g>
</svg>
