<?xml version="1.0" encoding="UTF-8" standalone="no"?>
<!-- Created with Inkscape (http://www.inkscape.org/) -->

<svg
   width="400"
   height="400"
   viewBox="0 0 375.00001 375.00003"
   id="svg2"
   version="1.1"
   inkscape:version="1.1.2 (0a00cf5339, 2022-02-04)"
   sodipodi:docname="os_mac.svg"
   inkscape:export-filename="../icons/os_mac.png"
   inkscape:export-xdpi="30.719999"
   inkscape:export-ydpi="30.719999"
   xmlns:inkscape="http://www.inkscape.org/namespaces/inkscape"
   xmlns:sodipodi="http://sodipodi.sourceforge.net/DTD/sodipodi-0.dtd"
   xmlns="http://www.w3.org/2000/svg"
   xmlns:svg="http://www.w3.org/2000/svg"
   xmlns:rdf="http://www.w3.org/1999/02/22-rdf-syntax-ns#"
   xmlns:cc="http://creativecommons.org/ns#"
   xmlns:dc="http://purl.org/dc/elements/1.1/">
  <defs
     id="defs4" />
  <sodipodi:namedview
     id="base"
     pagecolor="#21252e"
     bordercolor="#bebebe"
     borderopacity="1"
     inkscape:pageopacity="0"
     inkscape:pageshadow="2"
     inkscape:zoom="1.7718204"
     inkscape:cx="152.95004"
     inkscape:cy="279.09149"
     inkscape:document-units="px"
     inkscape:current-layer="svg2"
     showgrid="false"
     inkscape:window-width="1942"
     inkscape:window-height="1082"
     inkscape:window-x="458"
     inkscape:window-y="292"
     inkscape:window-maximized="0"
     units="px"
     inkscape:showpageshadow="false"
     showguides="true"
     inkscape:guide-bbox="true"
     inkscape:snap-global="true"
     inkscape:snap-bbox="true"
     inkscape:snap-others="false"
     fit-margin-top="0"
     fit-margin-left="0"
     fit-margin-right="0"
     fit-margin-bottom="0"
     inkscape:pagecheckerboard="0"
     width="400px"
     inkscape:bbox-paths="true"
     inkscape:bbox-nodes="true"
     inkscape:snap-nodes="false">
    <sodipodi:guide
       position="93.750005,375.00002"
       orientation="-1,0"
       id="guide839"
       inkscape:label=""
       inkscape:locked="false"
       inkscape:color="rgb(0,0,255)" />
    <sodipodi:guide
       position="281.25001,375.00002"
       orientation="-1,0"
       id="guide841"
       inkscape:label=""
       inkscape:locked="false"
       inkscape:color="rgb(0,0,255)" />
    <sodipodi:guide
       position="0,281.25001"
       orientation="0,1"
       id="guide843"
       inkscape:label=""
       inkscape:locked="false"
       inkscape:color="rgb(0,0,255)" />
    <sodipodi:guide
       position="0,93.750005"
       orientation="0,1"
       id="guide845"
       inkscape:label=""
       inkscape:locked="false"
       inkscape:color="rgb(0,0,255)" />
  </sodipodi:namedview>
  <metadata
     id="metadata7">
    <rdf:RDF>
      <cc:Work
         rdf:about="">
        <dc:format>image/svg+xml</dc:format>
        <dc:type
           rdf:resource="http://purl.org/dc/dcmitype/StillImage" />
      </cc:Work>
    </rdf:RDF>
  </metadata>
  <path
     style="display:inline;opacity:1;fill:#ecf0f1;fill-opacity:1;stroke-width:0.313236"
     d="m 173.11588,637.55898 c -5.32472,-1.14763 -8.04823,-6.40092 -10.68646,-10.63953 -4.44952,-7.94927 -6.73247,-17.92531 -3.17066,-26.63983 2.91096,-6.49768 10.48078,-11.08502 17.59872,-9.15494 3.69897,0.93495 7.59583,3.32071 11.43221,1.54111 4.31753,-1.69673 9.38706,-3.094 13.75565,-0.75297 2.38456,0.77081 7.71301,3.99509 4.43783,6.45751 -2.74426,2.52501 -4.99435,5.90744 -4.8679,9.78081 -0.17082,4.97744 2.54456,10.15892 7.1637,12.26927 2.55579,2.7128 -1.22196,5.69526 -2.32638,8.1903 -2.43198,4.03134 -5.73305,8.51346 -10.7577,9.12929 -3.31663,0.0715 -6.04007,-2.57845 -9.38512,-2.30348 -3.78158,-0.6897 -7.22585,1.27944 -10.72789,2.24141 -0.81843,0.12195 -1.66612,0.10756 -2.466,-0.11895 z m 10.10469,-46.81056 c -1.21684,-4.63098 2.01117,-9.11229 5.51471,-11.79956 2.05909,-1.8529 7.77121,-4.23048 6.95997,0.6543 -1.12489,5.25908 -4.94967,10.33094 -10.47006,11.35726 -0.64255,-0.01 -1.64988,0.56462 -2.00462,-0.212 z"
     id="path5348"
     inkscape:connector-curvature="0"
     transform="matrix(3.07155,0,0,3.07155,-376.371,-1677.65)" />
</svg>
