<?xml version="1.0" encoding="UTF-8" standalone="no"?>
<!-- Created with Inkscape (http://www.inkscape.org/) -->

<svg
   width="400"
   height="400"
   viewBox="0 0 375.00001 375.00003"
   id="svg2"
   version="1.1"
   inkscape:version="1.1.2 (0a00cf5339, 2022-02-04)"
   sodipodi:docname="os_mandriva.svg"
   inkscape:export-filename="../icons/os_mandriva.png"
   inkscape:export-xdpi="30.719999"
   inkscape:export-ydpi="30.719999"
   xmlns:inkscape="http://www.inkscape.org/namespaces/inkscape"
   xmlns:sodipodi="http://sodipodi.sourceforge.net/DTD/sodipodi-0.dtd"
   xmlns="http://www.w3.org/2000/svg"
   xmlns:svg="http://www.w3.org/2000/svg"
   xmlns:rdf="http://www.w3.org/1999/02/22-rdf-syntax-ns#"
   xmlns:cc="http://creativecommons.org/ns#"
   xmlns:dc="http://purl.org/dc/elements/1.1/">
  <defs
     id="defs4" />
  <sodipodi:namedview
     id="base"
     pagecolor="#21252e"
     bordercolor="#bebebe"
     borderopacity="1"
     inkscape:pageopacity="0"
     inkscape:pageshadow="2"
     inkscape:zoom="2.5057325"
     inkscape:cx="206.32689"
     inkscape:cy="204.53101"
     inkscape:document-units="px"
     inkscape:current-layer="g4016"
     showgrid="false"
     inkscape:window-width="1942"
     inkscape:window-height="1082"
     inkscape:window-x="107"
     inkscape:window-y="966"
     inkscape:window-maximized="0"
     units="px"
     inkscape:showpageshadow="false"
     showguides="true"
     inkscape:guide-bbox="true"
     inkscape:snap-global="true"
     inkscape:snap-bbox="true"
     inkscape:snap-others="false"
     fit-margin-top="0"
     fit-margin-left="0"
     fit-margin-right="0"
     fit-margin-bottom="0"
     inkscape:pagecheckerboard="0"
     width="400px"
     inkscape:bbox-paths="true"
     inkscape:bbox-nodes="true"
     inkscape:snap-nodes="false">
    <sodipodi:guide
       position="93.750005,375.00002"
       orientation="-1,0"
       id="guide839"
       inkscape:label=""
       inkscape:locked="false"
       inkscape:color="rgb(0,0,255)" />
    <sodipodi:guide
       position="281.25001,375.00002"
       orientation="-1,0"
       id="guide841"
       inkscape:label=""
       inkscape:locked="false"
       inkscape:color="rgb(0,0,255)" />
    <sodipodi:guide
       position="0,281.25001"
       orientation="0,1"
       id="guide843"
       inkscape:label=""
       inkscape:locked="false"
       inkscape:color="rgb(0,0,255)" />
    <sodipodi:guide
       position="0,93.750005"
       orientation="0,1"
       id="guide845"
       inkscape:label=""
       inkscape:locked="false"
       inkscape:color="rgb(0,0,255)" />
  </sodipodi:namedview>
  <metadata
     id="metadata7">
    <rdf:RDF>
      <cc:Work
         rdf:about="">
        <dc:format>image/svg+xml</dc:format>
        <dc:type
           rdf:resource="http://purl.org/dc/dcmitype/StillImage" />
      </cc:Work>
    </rdf:RDF>
  </metadata>
  <g
     inkscape:label="Layer 1"
     inkscape:groupmode="layer"
     id="layer1"
     style="opacity:0.96"
     transform="translate(-39.167521,88.250195)">
    <path
       style="fill:#000000"
       d=""
       id="path4134"
       inkscape:connector-curvature="0" />
    <g
       transform="translate(-141.01382,-425.49872)"
       style="display:inline"
       inkscape:label="debian vector"
       id="layer3">
      <g
         id="g4573"
         transform="translate(131.00657,-3.8976736)">
        <g
           id="g4627"
           style="opacity:0.99">
          <g
             id="g4740"
             transform="translate(-34.291185,268.4348)">
            <g
               transform="translate(380.29592,62.962549)"
               id="g4109">
              <g
                 transform="matrix(0.77230011,0,0,0.77230011,-239.76484,-6.9998595)"
                 style="fill:#ffffff;fill-opacity:1"
                 id="g4077">
                <g
                   id="layer1-5"
                   inkscape:label="Layer 1"
                   transform="matrix(1.2948334,0,0,1.2948334,-524.75052,-387.7468)">
                  <g
                     transform="translate(105.76257,-1.6247732)"
                     id="g6445">
                    <g
                       id="g6415"
                       transform="matrix(3.0715506,0,0,3.0715506,-521.15168,-1035.6235)">
                      <g
                         transform="translate(126.06579,-105.54595)"
                         id="g4016">
                        <g
                           id="g4182"
                           transform="matrix(0.61815127,0,0,0.61815127,205.2279,224.79962)" />
                        <path
                           style="display:inline;opacity:0.99;fill:#ecf0f1;fill-opacity:1;stroke-width:0.275159"
                           d="m 196.30549,633.96768 c -4.0197,-3.33679 -7.48133,-7.35031 -11.28935,-10.94587 -1.17502,-1.8084 -3.51055,-2.31077 -5.42666,-1.46082 -4.97893,1.98755 -9.96101,4.10265 -15.02456,5.80323 -1.44013,-1.0606 0.61739,-3.25131 1.20171,-4.79037 1.5217,-4.00815 4.1992,-7.50215 5.93818,-11.40898 0.73467,-3.2075 -2.47721,-5.23272 -4.03626,-7.66234 -2.08063,-3.24244 -5.37038,-5.67132 -7.05142,-9.15756 0.2503,-1.86424 2.73497,-0.33047 4.10517,-0.27308 4.84419,0.20288 9.59209,1.49934 14.38164,2.17559 2.27001,-0.69741 3.13033,-3.29322 4.51021,-5.09259 2.60281,-3.39412 4.08228,-7.6187 7.07049,-10.70797 1.6871,0.14015 1.33947,2.95766 1.79598,4.19362 0.80415,4.47421 0.76955,9.10972 2.03169,13.47368 1.50258,3.19888 5.61017,2.81214 8.52371,3.81672 3.32626,1.14688 6.97108,1.48599 10.14233,3.03582 -0.0286,1.92743 -2.99307,2.12508 -4.25345,3.09356 -3.67178,2.05867 -7.61426,3.67292 -11.23339,5.79531 -2.22851,1.67411 -1.00629,4.57192 -1.14228,6.8989 -0.24171,4.13646 0.66301,8.28175 0.58833,12.41661 0.0103,0.40768 -0.36026,1.00427 -0.83207,0.79654 z m -36.37568,-0.0124 c -3.92588,-0.38762 -8.0923,-2.37384 -10.46641,-5.52446 -3.57011,-4.73787 -3.97406,-11.49611 -3.64697,-17.41946 0.27349,-4.95297 2.1554,-9.84496 4.63471,-14.14145 1.60813,-2.7868 3.91315,-5.17786 6.4373,-7.19249 -4.52006,5.40445 -6.77056,12.58705 -7.07842,19.49299 -0.25289,5.67275 0.64927,11.83689 4.36652,16.46603 2.82678,3.22823 7.35721,4.39062 11.43037,4.32453 6.15167,-0.0998 11.86693,-3.79095 17.0422,-7.08797 -2.75751,3.31185 -3.7194,3.03473 -8.71952,6.92233 -4.31831,2.24772 -9.15509,4.63828 -13.99978,4.15995 z m 51.57242,-22.74974 c -1.50399,-1.38835 1.20132,-3.34264 1.52317,-4.77136 0.66577,-1.11222 2.01747,0.17358 1.27986,1.00897 -0.8982,1.00447 -1.21274,3.81539 -2.80303,3.76239 z m 6.16586,-0.10628 c -1.42445,-0.89901 -2.5487,-2.96695 -2.8144,-4.63554 1.76456,-1.46234 2.61405,2.42282 3.64774,3.35647 0.12042,0.57533 -0.0402,1.44634 -0.83334,1.27907 z m -1.57027,-5.24381 c -1.76881,-1.67405 1.52896,-1.77327 2.63952,-1.58513 0.87951,0.13982 2.62983,-0.5131 2.69526,0.83717 -0.42722,1.43629 -2.43244,0.58844 -3.60303,0.82953 -0.55858,-0.0581 -1.21537,0.0985 -1.73175,-0.0816 z m -2.71591,-1.3576 c -1.12283,-1.35244 -2.83627,-3.06986 -2.81556,-4.92054 1.53305,-1.65817 2.60993,2.37952 3.47673,3.2716 0.61932,0.55291 0.39702,2.01324 -0.66117,1.64894 z m 1.58451,-0.0615 c -1.28664,-1.34176 1.26813,-3.10355 1.56067,-4.56906 0.2906,-1.16533 2.04217,-0.57995 1.55751,0.55629 -1.04029,1.06055 -1.37713,4.00188 -3.11818,4.01277 z"
                           id="path5380"
                           inkscape:connector-curvature="0"
                           sodipodi:nodetypes="ccccacacacacccscccaccaaaacacaccaccccccccccccccccccccc" />
                      </g>
                    </g>
                  </g>
                </g>
              </g>
            </g>
          </g>
        </g>
      </g>
    </g>
  </g>
</svg>
