<?xml version="1.0" encoding="UTF-8" standalone="no"?>
<!-- Created with Inkscape (http://www.inkscape.org/) -->

<svg
   width="110mm"
   height="110mm"
   viewBox="0 0 389.76378 389.7638"
   id="svg2"
   version="1.1"
   inkscape:version="1.1.2 (0a00cf5339, 2022-02-04)"
   sodipodi:docname="os_mac.svg"
   inkscape:export-filename="/home/rain/minidark/icons/os_mac.png"
   inkscape:export-xdpi="29.556362"
   inkscape:export-ydpi="29.556362"
   xmlns:inkscape="http://www.inkscape.org/namespaces/inkscape"
   xmlns:sodipodi="http://sodipodi.sourceforge.net/DTD/sodipodi-0.dtd"
   xmlns="http://www.w3.org/2000/svg"
   xmlns:svg="http://www.w3.org/2000/svg"
   xmlns:rdf="http://www.w3.org/1999/02/22-rdf-syntax-ns#"
   xmlns:cc="http://creativecommons.org/ns#"
   xmlns:dc="http://purl.org/dc/elements/1.1/">
  <defs
     id="defs4" />
  <sodipodi:namedview
     id="base"
     pagecolor="#21252e"
     bordercolor="#bebebe"
     borderopacity="1"
     inkscape:pageopacity="0"
     inkscape:pageshadow="2"
     inkscape:zoom="0.88591022"
     inkscape:cx="9.0302604"
     inkscape:cy="145.04856"
     inkscape:document-units="px"
     inkscape:current-layer="g6445"
     showgrid="false"
     inkscape:window-width="1332"
     inkscape:window-height="714"
     inkscape:window-x="1228"
     inkscape:window-y="36"
     inkscape:window-maximized="0"
     units="mm"
     inkscape:showpageshadow="false"
     showguides="true"
     inkscape:guide-bbox="true"
     inkscape:snap-global="false"
     inkscape:snap-bbox="true"
     inkscape:snap-others="true"
     fit-margin-top="0"
     fit-margin-left="0"
     fit-margin-right="0"
     fit-margin-bottom="0"
     inkscape:pagecheckerboard="0" />
  <metadata
     id="metadata7">
    <rdf:RDF>
      <cc:Work
         rdf:about="">
        <dc:format>image/svg+xml</dc:format>
        <dc:type
           rdf:resource="http://purl.org/dc/dcmitype/StillImage" />
      </cc:Work>
    </rdf:RDF>
  </metadata>
  <g
     inkscape:label="Layer 1"
     inkscape:groupmode="layer"
     id="layer1"
     style="opacity:0.96"
     transform="translate(-39.167521,88.250195)">
    <path
       style="fill:#000000"
       d=""
       id="path4134"
       inkscape:connector-curvature="0" />
    <g
       transform="translate(-141.01382,-425.49872)"
       style="display:inline"
       inkscape:label="debian vector"
       id="layer3">
      <g
         id="g4573"
         transform="translate(131.00657,-3.8976736)">
        <g
           id="g4627"
           style="opacity:0.99">
          <g
             id="g4740"
             transform="translate(-34.291185,268.4348)">
            <g
               transform="translate(380.29592,62.962549)"
               id="g4109">
              <g
                 transform="matrix(0.77230011,0,0,0.77230011,-239.76484,-6.9998595)"
                 style="fill:#ffffff;fill-opacity:1"
                 id="g4077">
                <g
                   id="layer1-5"
                   inkscape:label="Layer 1"
                   transform="matrix(1.2948334,0,0,1.2948334,-524.75052,-387.7468)">
                  <g
                     transform="translate(105.76257,-1.6247732)"
                     id="g6445">
                    <path
                       style="fill:#ecf0f1"
                       d="m 403.91662,609.53074 c -16.99907,-3.66382 -25.69381,-20.43482 -34.11633,-33.96647 -14.20496,-25.37789 -21.49324,-57.2262 -10.12225,-85.04709 9.29319,-20.74373 33.45967,-35.3887 56.1835,-29.22699 11.80894,2.98484 24.24958,10.60131 36.49713,4.91998 13.78362,-5.41677 29.96797,-9.8775 43.9146,-2.40384 7.61266,2.4608 24.6236,12.75424 14.16769,20.61546 -8.761,8.06104 -15.94436,18.85938 -15.5407,31.22504 -0.54533,15.89039 8.12348,32.43211 22.86996,39.16934 8.1593,8.66058 -3.90108,18.18203 -7.42691,26.14739 -7.76401,12.86998 -18.30259,27.17902 -34.34373,29.14504 -10.58826,0.22833 -19.28275,-8.23166 -29.96178,-7.3538 -12.07258,-2.20185 -23.06836,4.08457 -34.24854,7.15565 -2.61285,0.38932 -5.31907,0.34337 -7.87264,-0.37971 z M 436.17561,460.089 c -3.88472,-14.78428 6.42064,-29.09078 17.6056,-37.66984 6.57358,-5.91532 24.80942,-13.5057 22.21955,2.08884 -3.5912,16.78952 -15.80173,32.98132 -33.42545,36.25782 -2.05133,-0.0313 -5.26721,1.80255 -6.3997,-0.67682 z"
                       id="path5348"
                       inkscape:connector-curvature="0" />
                  </g>
                </g>
              </g>
            </g>
          </g>
        </g>
      </g>
    </g>
  </g>
</svg>
