<?xml version="1.0" encoding="UTF-8" standalone="no"?>
<!-- Created with Inkscape (http://www.inkscape.org/) -->

<svg
   width="400"
   height="400"
   viewBox="0 0 375.00001 375.00003"
   id="svg2"
   version="1.1"
   inkscape:version="1.1.2 (0a00cf5339, 2022-02-04)"
   sodipodi:docname="os_mandriva.svg"
   inkscape:export-filename="../icons/os_mandriva.png"
   inkscape:export-xdpi="30.719999"
   inkscape:export-ydpi="30.719999"
   xmlns:inkscape="http://www.inkscape.org/namespaces/inkscape"
   xmlns:sodipodi="http://sodipodi.sourceforge.net/DTD/sodipodi-0.dtd"
   xmlns="http://www.w3.org/2000/svg"
   xmlns:svg="http://www.w3.org/2000/svg"
   xmlns:rdf="http://www.w3.org/1999/02/22-rdf-syntax-ns#"
   xmlns:cc="http://creativecommons.org/ns#"
   xmlns:dc="http://purl.org/dc/elements/1.1/">
  <defs
     id="defs4" />
  <sodipodi:namedview
     id="base"
     pagecolor="#21252e"
     bordercolor="#bebebe"
     borderopacity="1"
     inkscape:pageopacity="0"
     inkscape:pageshadow="2"
     inkscape:zoom="2.5057325"
     inkscape:cx="206.32689"
     inkscape:cy="204.53101"
     inkscape:document-units="px"
     inkscape:current-layer="g4016"
     showgrid="false"
     inkscape:window-width="1942"
     inkscape:window-height="1082"
     inkscape:window-x="458"
     inkscape:window-y="292"
     inkscape:window-maximized="0"
     units="px"
     inkscape:showpageshadow="false"
     showguides="true"
     inkscape:guide-bbox="true"
     inkscape:snap-global="true"
     inkscape:snap-bbox="true"
     inkscape:snap-others="false"
     fit-margin-top="0"
     fit-margin-left="0"
     fit-margin-right="0"
     fit-margin-bottom="0"
     inkscape:pagecheckerboard="0"
     width="400px"
     inkscape:bbox-paths="true"
     inkscape:bbox-nodes="true"
     inkscape:snap-nodes="false">
    <sodipodi:guide
       position="93.750005,375.00002"
       orientation="-1,0"
       id="guide839"
       inkscape:label=""
       inkscape:locked="false"
       inkscape:color="rgb(0,0,255)" />
    <sodipodi:guide
       position="281.25001,375.00002"
       orientation="-1,0"
       id="guide841"
       inkscape:label=""
       inkscape:locked="false"
       inkscape:color="rgb(0,0,255)" />
    <sodipodi:guide
       position="0,281.25001"
       orientation="0,1"
       id="guide843"
       inkscape:label=""
       inkscape:locked="false"
       inkscape:color="rgb(0,0,255)" />
    <sodipodi:guide
       position="0,93.750005"
       orientation="0,1"
       id="guide845"
       inkscape:label=""
       inkscape:locked="false"
       inkscape:color="rgb(0,0,255)" />
  </sodipodi:namedview>
  <metadata
     id="metadata7">
    <rdf:RDF>
      <cc:Work
         rdf:about="">
        <dc:format>image/svg+xml</dc:format>
        <dc:type
           rdf:resource="http://purl.org/dc/dcmitype/StillImage" />
      </cc:Work>
    </rdf:RDF>
  </metadata>
  <g
     inkscape:label="Layer 1"
     inkscape:groupmode="layer"
     id="layer1"
     style="opacity:0.96"
     transform="translate(-39.167521,88.250195)">
    <path
       style="fill:#000000"
       d=""
       id="path4134"
       inkscape:connector-curvature="0" />
    <g
       transform="translate(-141.01382,-425.49872)"
       style="display:inline"
       inkscape:label="debian vector"
       id="layer3">
      <g
         id="g4573"
         transform="translate(131.00657,-3.8976736)">
        <g
           id="g4627"
           style="opacity:0.99">
          <g
             id="g4740"
             transform="translate(-34.291185,268.4348)">
            <g
               transform="translate(380.29592,62.962549)"
               id="g4109">
              <g
                 transform="matrix(0.77230011,0,0,0.77230011,-239.76484,-6.9998595)"
                 style="fill:#ffffff;fill-opacity:1"
                 id="g4077">
                <g
                   id="layer1-5"
                   inkscape:label="Layer 1"
                   transform="matrix(1.2948334,0,0,1.2948334,-524.75052,-387.7468)">
                  <g
                     transform="translate(105.76257,-1.6247732)"
                     id="g6445">
                    <g
                       id="g6415"
                       transform="matrix(3.0715506,0,0,3.0715506,-521.15168,-1035.6235)">
                      <g
                         transform="translate(126.06579,-105.54595)"
                         id="g4016">
                        <g
                           id="g4182"
                           transform="matrix(0.61815127,0,0,0.61815127,205.2279,224.79962)" />
                        <path
                           style="display:inline;opacity:0.99;fill:#ecf0f1;fill-opacity:1;stroke-width:0.221865"
                           d="m 193.84049,628.78931 c -3.24114,-2.69049 -6.0323,-5.92664 -9.10275,-8.82579 -0.94744,-1.45814 -2.8306,-1.86321 -4.37559,-1.17788 -4.01458,1.60258 -8.0317,3.30802 -12.1145,4.67922 -1.16119,-0.85518 0.49781,-2.62157 0.96896,-3.86254 1.22696,-3.23182 3.38587,-6.04908 4.78803,-9.19921 0.59237,-2.58625 -1.99741,-4.21921 -3.25449,-6.17824 -1.67764,-2.61443 -4.33021,-4.57286 -5.68565,-7.38386 0.20182,-1.50316 2.20524,-0.26646 3.31005,-0.22019 3.90593,0.16359 7.73422,1.20894 11.5961,1.75421 1.83034,-0.56233 2.52403,-2.65537 3.63664,-4.10622 2.09868,-2.73673 3.29159,-6.14306 5.70103,-8.63398 1.36033,0.113 1.08003,2.3848 1.44812,3.38137 0.6484,3.60761 0.6205,7.34528 1.63818,10.864 1.21155,2.5793 4.52355,2.26747 6.87278,3.07747 2.682,0.92475 5.62087,1.19817 8.17789,2.44783 -0.023,1.55411 -2.41335,1.71347 -3.42961,2.49437 -2.96061,1.65994 -6.13948,2.96153 -9.05763,4.67283 -1.79687,1.34986 -0.81139,3.68641 -0.92103,5.56268 -0.1949,3.33528 0.53459,6.67768 0.47437,10.01168 0.008,0.32871 -0.29048,0.80975 -0.6709,0.64225 z m -29.33019,-0.01 c -3.16549,-0.31254 -6.52493,-1.91406 -8.4392,-4.45445 -2.87863,-3.8202 -3.20434,-9.26946 -2.9406,-14.04553 0.22052,-3.99365 1.73793,-7.93812 3.73703,-11.40244 1.29666,-2.24703 3.15522,-4.17497 5.19047,-5.7994 -3.64458,4.35768 -5.45918,10.14911 -5.70742,15.71746 -0.20391,4.57401 0.52352,9.54423 3.52078,13.27677 2.27927,2.60296 5.93222,3.54021 9.21646,3.48692 4.96017,-0.0805 9.56846,-3.05669 13.74135,-5.71512 -2.22342,2.67039 -2.999,2.44695 -7.03067,5.58157 -3.4819,1.81236 -7.38186,3.7399 -11.2882,3.35422 z m 41.58351,-18.34341 c -1.21268,-1.11945 0.96865,-2.69522 1.22816,-3.84721 0.53682,-0.8968 1.62671,0.13996 1.03197,0.81354 -0.72424,0.80992 -0.97786,3.0764 -2.26013,3.03367 z m 4.97162,-0.0857 c -1.14855,-0.72488 -2.05505,-2.39229 -2.26929,-3.73769 1.42279,-1.17911 2.10774,1.95355 2.94122,2.70636 0.0971,0.4639 -0.0324,1.16621 -0.67193,1.03133 z m -1.26613,-4.22815 c -1.42622,-1.34981 1.23282,-1.42981 2.12828,-1.27811 0.70916,0.11274 2.12046,-0.41372 2.17322,0.67502 -0.34447,1.1581 -1.96131,0.47447 -2.90517,0.66886 -0.45039,-0.0468 -0.97997,0.0794 -1.39633,-0.0658 z m -2.18988,-1.09465 c -0.90535,-1.09049 -2.28692,-2.47527 -2.27022,-3.96749 1.23612,-1.33701 2.10442,1.91863 2.80334,2.63793 0.49936,0.44581 0.32011,1.6233 -0.53312,1.32956 z m 1.27762,-0.0496 c -1.03744,-1.08188 1.0225,-2.50243 1.25838,-3.68409 0.23432,-0.93962 1.64663,-0.46762 1.25585,0.44855 -0.83881,0.85513 -1.11041,3.22676 -2.51423,3.23554 z"
                           id="path5380"
                           inkscape:connector-curvature="0"
                           sodipodi:nodetypes="ccccacacacacccscccaccaaaacacaccaccccccccccccccccccccc" />
                      </g>
                    </g>
                  </g>
                </g>
              </g>
            </g>
          </g>
        </g>
      </g>
    </g>
  </g>
</svg>
