<?xml version="1.0" encoding="UTF-8" standalone="no"?>
<!-- Created with Inkscape (http://www.inkscape.org/) -->

<svg
   width="109.99999mm"
   height="109.99999mm"
   viewBox="0 0 389.76378 389.7638"
   id="svg2"
   version="1.1"
   inkscape:version="1.1.2 (0a00cf5339, 2022-02-04)"
   sodipodi:docname="os_nobara.svg"
   inkscape:export-filename="../icons/os_nobara.png"
   inkscape:export-xdpi="29.556362"
   inkscape:export-ydpi="29.556362"
   xmlns:inkscape="http://www.inkscape.org/namespaces/inkscape"
   xmlns:sodipodi="http://sodipodi.sourceforge.net/DTD/sodipodi-0.dtd"
   xmlns="http://www.w3.org/2000/svg"
   xmlns:svg="http://www.w3.org/2000/svg"
   xmlns:rdf="http://www.w3.org/1999/02/22-rdf-syntax-ns#"
   xmlns:cc="http://creativecommons.org/ns#"
   xmlns:dc="http://purl.org/dc/elements/1.1/">
  <defs
     id="defs4" />
  <sodipodi:namedview
     id="base"
     pagecolor="#21252e"
     bordercolor="#bebebe"
     borderopacity="1"
     inkscape:pageopacity="0"
     inkscape:pageshadow="2"
     inkscape:zoom="0.88591022"
     inkscape:cx="137.71147"
     inkscape:cy="165.36664"
     inkscape:document-units="px"
     inkscape:current-layer="g4016"
     showgrid="false"
     inkscape:window-width="2486"
     inkscape:window-height="1376"
     inkscape:window-x="74"
     inkscape:window-y="27"
     inkscape:window-maximized="1"
     units="mm"
     inkscape:showpageshadow="false"
     showguides="true"
     inkscape:guide-bbox="true"
     inkscape:snap-global="false"
     inkscape:snap-bbox="true"
     inkscape:snap-others="true"
     fit-margin-top="0"
     fit-margin-left="0"
     fit-margin-right="0"
     fit-margin-bottom="0"
     inkscape:pagecheckerboard="0" />
  <metadata
     id="metadata7">
    <rdf:RDF>
      <cc:Work
         rdf:about="">
        <dc:format>image/svg+xml</dc:format>
        <dc:type
           rdf:resource="http://purl.org/dc/dcmitype/StillImage" />
      </cc:Work>
    </rdf:RDF>
  </metadata>
  <g
     inkscape:label="Layer 1"
     inkscape:groupmode="layer"
     id="layer1"
     style="opacity:0.96"
     transform="translate(-39.167521,88.250195)">
    <path
       style="fill:#000000"
       d=""
       id="path4134"
       inkscape:connector-curvature="0" />
    <g
       transform="translate(-141.01382,-425.49872)"
       style="display:inline"
       inkscape:label="debian vector"
       id="layer3">
      <g
         id="g4573"
         transform="translate(131.00657,-3.8976736)">
        <g
           id="g4627"
           style="opacity:0.99">
          <g
             id="g4740"
             transform="translate(-34.291185,268.4348)">
            <g
               transform="translate(380.29592,62.962549)"
               id="g4109">
              <g
                 transform="matrix(0.77230011,0,0,0.77230011,-239.76484,-6.9998595)"
                 style="fill:#ffffff;fill-opacity:1"
                 id="g4077">
                <g
                   id="layer1-5"
                   inkscape:label="Layer 1"
                   transform="matrix(1.2948334,0,0,1.2948334,-524.75052,-387.7468)">
                  <g
                     transform="translate(105.76257,-1.6247732)"
                     id="g6445">
                    <g
                       id="g6415"
                       transform="matrix(3.0715506,0,0,3.0715506,-521.15168,-1035.6235)">
                      <g
                         transform="translate(126.06579,-105.54595)"
                         id="g4016">
                        <g
                           id="g4182"
                           transform="matrix(0.61815127,0,0,0.61815127,205.2279,224.79962)" />
                        <path
                           style="fill:#ffffff;stroke-width:0.088203;fill-opacity:1"
                           d="m 189.38711,645.06736 c -0.10942,-1.60396 -0.6557,-3.23969 -1.58254,-4.73864 -0.62047,-1.00345 -2.06498,-2.47342 -3.09603,-3.15059 -3.47905,-2.28499 -7.82507,-2.3319 -11.42523,-0.12331 -1.87438,1.09985 -2.8466,2.93739 -4.17655,4.43432 -1.40755,1.53513 -3.30975,2.66038 -5.30654,3.13911 -0.92763,0.2224 -3.26221,0.24288 -4.43199,0.0389 -4.51571,-0.60214 -6.8867,-2.35168 -8.63914,-8.6406 v -53.01012 c 0.84577,-6.69317 6.36359,-8.55677 10.23157,-8.7521 3.43392,-0.15512 6.48163,1.55365 8.63415,3.91587 5.96274,-3.78541 13.33915,-4.59307 20.6493,-3.73538 6.99216,0.90827 13.01462,3.52823 18.47857,8.03878 6.98703,6.01994 11.04478,14.1516 12.28065,22.4072 0.18937,1.30837 0.19182,1.48437 0.22059,15.86579 0.0258,12.85295 0.0132,14.63521 -0.10824,15.33863 -0.74805,4.33469 -4.22193,7.81691 -8.55139,8.5719 -1.16978,0.204 -3.50436,0.18351 -4.432,-0.0389 -5.44086,-0.65264 -8.00012,-5.8226 -8.00942,-8.5135 v -11.81637 -11.81638 l 10.18747,-2.96058 c 0,-0.0383 -7.23187,-2.13828 -10.36604,-3.01013 -0.24258,-0.0675 -0.28162,-0.13233 -0.43032,-0.71502 -0.62641,-2.45461 -2.28596,-5.09989 -4.28639,-6.83239 -2.10621,-1.82413 -4.57325,-2.96176 -7.3195,-3.37528 -0.84726,-0.12759 -3.0313,-0.12809 -3.88367,-5.7e-4 -4.71469,0.7035 -8.68085,3.61911 -10.72122,7.88141 -1.26995,2.65291 -1.4963,4.30815 -1.42941,10.45309 0.0437,4.0196 0.0764,4.25955 0.77493,5.69858 0.73537,1.51487 1.70218,2.48186 3.21828,3.2189 1.06541,0.51793 1.77596,0.67685 3.52812,0.78907 2.13087,0.13646 3.79367,0.66693 5.36237,1.7107 2.37237,1.57853 3.99265,3.97564 4.55609,6.74048 0.17543,0.86088 0.18113,1.12581 0.15933,7.40321 -0.0127,3.65884 -0.0503,6.10473 -0.0858,5.58425 z M 184.2022,616.3958 c -2.5206,-0.65623 -4.47303,-2.62069 -5.11489,-5.14642 -0.24408,-0.96047 -0.24408,-2.49534 0,-3.45581 0.64626,-2.54305 2.608,-4.50478 5.15104,-5.15105 0.95659,-0.24309 2.4935,-0.24388 3.45581,-0.002 2.52301,0.63478 4.50733,2.61977 5.15105,5.15282 0.24309,0.95658 0.24388,2.49348 0.002,3.4558 -0.63154,2.51015 -2.64266,4.52128 -5.15281,5.15282 -0.9481,0.23853 -2.56252,0.23558 -3.49197,-0.006 z"
                           id="path57"
                           sodipodi:nodetypes="sssccsccccccccccscccccscsscsssssssssscssscscscc" />
                      </g>
                    </g>
                  </g>
                </g>
              </g>
            </g>
          </g>
        </g>
      </g>
    </g>
  </g>
</svg>
