<?xml version="1.0" encoding="UTF-8" standalone="no"?>
<!-- Created with Inkscape (http://www.inkscape.org/) -->

<svg
   width="109.99999mm"
   height="109.99999mm"
   viewBox="0 0 389.76378 389.7638"
   id="svg2"
   version="1.1"
   inkscape:version="1.1.2 (0a00cf5339, 2022-02-04)"
   sodipodi:docname="os_nobara.svg"
   inkscape:export-filename="../icons/os_nobara.png"
   inkscape:export-xdpi="29.556362"
   inkscape:export-ydpi="29.556362"
   xmlns:inkscape="http://www.inkscape.org/namespaces/inkscape"
   xmlns:sodipodi="http://sodipodi.sourceforge.net/DTD/sodipodi-0.dtd"
   xmlns="http://www.w3.org/2000/svg"
   xmlns:svg="http://www.w3.org/2000/svg"
   xmlns:rdf="http://www.w3.org/1999/02/22-rdf-syntax-ns#"
   xmlns:cc="http://creativecommons.org/ns#"
   xmlns:dc="http://purl.org/dc/elements/1.1/">
  <defs
     id="defs4" />
  <sodipodi:namedview
     id="base"
     pagecolor="#21252e"
     bordercolor="#bebebe"
     borderopacity="1"
     inkscape:pageopacity="0"
     inkscape:pageshadow="2"
     inkscape:zoom="0.88591022"
     inkscape:cx="137.71147"
     inkscape:cy="165.36664"
     inkscape:document-units="px"
     inkscape:current-layer="g4016"
     showgrid="false"
     inkscape:window-width="2486"
     inkscape:window-height="1376"
     inkscape:window-x="74"
     inkscape:window-y="27"
     inkscape:window-maximized="1"
     units="mm"
     inkscape:showpageshadow="false"
     showguides="true"
     inkscape:guide-bbox="true"
     inkscape:snap-global="false"
     inkscape:snap-bbox="true"
     inkscape:snap-others="true"
     fit-margin-top="0"
     fit-margin-left="0"
     fit-margin-right="0"
     fit-margin-bottom="0"
     inkscape:pagecheckerboard="0" />
  <metadata
     id="metadata7">
    <rdf:RDF>
      <cc:Work
         rdf:about="">
        <dc:format>image/svg+xml</dc:format>
        <dc:type
           rdf:resource="http://purl.org/dc/dcmitype/StillImage" />
      </cc:Work>
    </rdf:RDF>
  </metadata>
  <g
     inkscape:label="Layer 1"
     inkscape:groupmode="layer"
     id="layer1"
     style="opacity:0.96"
     transform="translate(-39.167521,88.250195)">
    <path
       style="fill:#000000"
       d=""
       id="path4134"
       inkscape:connector-curvature="0" />
    <g
       transform="translate(-141.01382,-425.49872)"
       style="display:inline"
       inkscape:label="debian vector"
       id="layer3">
      <g
         id="g4573"
         transform="translate(131.00657,-3.8976736)">
        <g
           id="g4627"
           style="opacity:0.99">
          <g
             id="g4740"
             transform="translate(-34.291185,268.4348)">
            <g
               transform="translate(380.29592,62.962549)"
               id="g4109">
              <g
                 transform="matrix(0.77230011,0,0,0.77230011,-239.76484,-6.9998595)"
                 style="fill:#ffffff;fill-opacity:1"
                 id="g4077">
                <g
                   id="layer1-5"
                   inkscape:label="Layer 1"
                   transform="matrix(1.2948334,0,0,1.2948334,-524.75052,-387.7468)">
                  <g
                     transform="translate(105.76257,-1.6247732)"
                     id="g6445">
                    <g
                       id="g6415"
                       transform="matrix(3.0715506,0,0,3.0715506,-521.15168,-1035.6235)">
                      <g
                         transform="translate(126.06579,-105.54595)"
                         id="g4016">
                        <g
                           id="g4182"
                           transform="matrix(0.61815127,0,0,0.61815127,205.2279,224.79962)" />
                        <path
                           style="fill:#ecf0f1;fill-opacity:1;stroke-width:0.088203"
                           d="m 189.38711,645.06736 c -0.32669,-6.61185 -7.83692,-11.50347 -14.01068,-9.0171 -4.90692,1.44623 -6.23052,7.83049 -11.57621,8.57799 -4.26976,0.65896 -9.70708,-0.27389 -11.61698,-4.68314 -1.19933,-2.13097 -1.65308,-4.50585 -1.45415,-6.92046 0,-16.66941 0,-33.33881 0,-50.00822 0.31137,-4.88065 4.79609,-8.44562 9.48853,-8.69515 3.85318,-1.04303 7.30726,2.59111 9.94029,3.51272 8.67197,-4.94257 19.58591,-4.60289 28.74102,-1.19921 13.70438,5.18593 23.11551,19.71923 22.29922,34.33289 -0.0372,8.37465 0.18209,16.75904 -0.0825,25.12754 -0.84656,5.53826 -6.55578,9.54822 -12.06404,8.66159 -5.19713,-0.10133 -9.50192,-5.10782 -8.92877,-10.24311 0,-7.34391 0,-14.68782 0,-22.03173 3.39582,-0.98686 6.79165,-1.97372 10.18747,-2.96058 -3.51038,-1.13833 -7.14445,-1.97881 -10.6164,-3.17444 -1.56565,-7.03712 -8.99441,-12.05988 -16.10929,-10.68654 -6.932,1.06995 -12.18358,7.84719 -11.70481,14.81655 0.16566,3.86333 -0.91266,8.60051 2.49652,11.42007 3.0718,2.69337 7.76586,0.92504 10.81706,3.74818 3.23167,2.25851 4.67247,6.31828 4.28846,10.15426 -0.0259,3.0881 0.0355,6.18596 -0.0948,9.26789 z M 184.2022,616.3958 c -4.78498,-1.02261 -6.97151,-7.4187 -3.8716,-11.1792 2.90127,-4.157 10.01066,-3.45169 12.01641,1.21499 2.26134,4.2555 -1.06958,10.08716 -5.92907,10.13699 -0.74042,0.0272 -1.49285,0.003 -2.21574,-0.17278 z"
                           id="path57"
                           sodipodi:nodetypes="sssccsccccccccccscccccscsscsssssssssscssscscscc" />
                      </g>
                    </g>
                  </g>
                </g>
              </g>
            </g>
          </g>
        </g>
      </g>
    </g>
  </g>
</svg>
