<?xml version="1.0" encoding="UTF-8" standalone="no"?>
<!-- Created with Inkscape (http://www.inkscape.org/) -->

<svg
   width="400"
   height="400"
   viewBox="0 0 375.00001 375.00003"
   id="svg2"
   version="1.1"
   inkscape:version="1.1.2 (0a00cf5339, 2022-02-04)"
   sodipodi:docname="os_opensuse.svg"
   inkscape:export-filename="../icons/os_opensuse.png"
   inkscape:export-xdpi="30.719999"
   inkscape:export-ydpi="30.719999"
   xmlns:inkscape="http://www.inkscape.org/namespaces/inkscape"
   xmlns:sodipodi="http://sodipodi.sourceforge.net/DTD/sodipodi-0.dtd"
   xmlns="http://www.w3.org/2000/svg"
   xmlns:svg="http://www.w3.org/2000/svg"
   xmlns:rdf="http://www.w3.org/1999/02/22-rdf-syntax-ns#"
   xmlns:cc="http://creativecommons.org/ns#"
   xmlns:dc="http://purl.org/dc/elements/1.1/">
  <defs
     id="defs4" />
  <sodipodi:namedview
     id="base"
     pagecolor="#21252e"
     bordercolor="#bebebe"
     borderopacity="1"
     inkscape:pageopacity="0"
     inkscape:pageshadow="2"
     inkscape:zoom="0.88591022"
     inkscape:cx="98.204082"
     inkscape:cy="239.86629"
     inkscape:document-units="px"
     inkscape:current-layer="svg2"
     showgrid="false"
     inkscape:window-width="1942"
     inkscape:window-height="1082"
     inkscape:window-x="458"
     inkscape:window-y="292"
     inkscape:window-maximized="0"
     units="px"
     inkscape:showpageshadow="false"
     showguides="true"
     inkscape:guide-bbox="true"
     inkscape:snap-global="true"
     inkscape:snap-bbox="true"
     inkscape:snap-others="false"
     fit-margin-top="0"
     fit-margin-left="0"
     fit-margin-right="0"
     fit-margin-bottom="0"
     inkscape:pagecheckerboard="0"
     width="400px"
     inkscape:bbox-paths="true"
     inkscape:bbox-nodes="true"
     inkscape:snap-nodes="false">
    <sodipodi:guide
       position="93.750005,375.00002"
       orientation="-1,0"
       id="guide839"
       inkscape:label=""
       inkscape:locked="false"
       inkscape:color="rgb(0,0,255)" />
    <sodipodi:guide
       position="281.25001,375.00002"
       orientation="-1,0"
       id="guide841"
       inkscape:label=""
       inkscape:locked="false"
       inkscape:color="rgb(0,0,255)" />
    <sodipodi:guide
       position="0,281.25001"
       orientation="0,1"
       id="guide843"
       inkscape:label=""
       inkscape:locked="false"
       inkscape:color="rgb(0,0,255)" />
    <sodipodi:guide
       position="0,93.750005"
       orientation="0,1"
       id="guide845"
       inkscape:label=""
       inkscape:locked="false"
       inkscape:color="rgb(0,0,255)" />
  </sodipodi:namedview>
  <metadata
     id="metadata7">
    <rdf:RDF>
      <cc:Work
         rdf:about="">
        <dc:format>image/svg+xml</dc:format>
        <dc:type
           rdf:resource="http://purl.org/dc/dcmitype/StillImage" />
      </cc:Work>
    </rdf:RDF>
  </metadata>
  <path
     style="display:inline;opacity:1;fill:#ecf0f1;fill-opacity:1;stroke:none;stroke-width:3.77291;stroke-miterlimit:4;stroke-dasharray:none;stroke-opacity:1"
     d="m 183.57876,576.70989 a 30.522045,30.522047 0 0 0 -30.52205,30.52205 30.522045,30.522047 0 0 0 30.52205,30.52204 30.522045,30.522047 0 0 0 30.52204,-30.52204 30.522045,30.522047 0 0 0 -30.52204,-30.52205 z m 0,3.81525 a 26.706494,26.706699 0 0 1 26.70678,26.7068 26.706494,26.706699 0 0 1 -26.70678,26.70679 26.706494,26.706699 0 0 1 -20.10182,-9.17441 c 1.92428,-1.39177 5.0798,-1.03634 8.95831,-0.59846 1.88991,0.22078 4.04234,0.46783 6.27011,0.51743 6.21993,0.0395 12.91924,-1.10919 17.04849,-2.91548 2.67142,-1.16105 4.37621,-1.93393 5.44438,-2.90521 0.38417,-0.31833 0.5837,-0.83503 0.79128,-1.39114 l 0.14576,-0.36746 c 0.17273,-0.45078 0.42637,-1.40062 0.53792,-1.92113 0.0449,-0.2293 0.0975,-0.45379 -0.0922,-0.60033 -0.1734,-0.13399 -0.57191,0.10618 -0.57191,0.10618 -1.81325,1.09138 -6.34582,3.15833 -10.58371,3.24661 -5.26159,0.10613 -15.92208,-5.32618 -17.0266,-5.89987 -0.73925,-1.76021 -1.47816,-3.52141 -2.22805,-5.27717 7.62696,5.02535 13.95343,7.80338 18.79591,8.23177 5.39099,0.48023 9.59296,-2.4616 11.41689,-3.68532 0.23876,-0.15872 0.47734,-0.33636 0.69626,-0.50718 h 9e-4 c 0.0392,-0.0305 0.13063,-0.11112 0.11876,-0.18536 -0.30239,-1.88962 -3.11752,-11.05277 -5.2483,-13.25652 -0.58711,-0.60027 -1.05723,-1.19239 -2.00916,-1.74929 -7.70837,-4.49186 -25.99547,-7.20275 -26.85223,-7.32685 0,0 -0.0862,-0.0177 -0.14578,0.0405 -0.0463,0.0452 -0.0555,0.13227 -0.0555,0.13227 0,0 -0.0702,3.78885 -0.0811,4.21251 -0.69051,-0.23199 -2.99635,-0.97958 -6.25382,-1.84987 a 26.706494,26.706699 0 0 1 21.02488,-10.28983 z m 5.56639,15.49297 c 0.1298,-0.002 0.2601,-9e-4 0.39075,0.004 4.3104,0.15413 7.69789,3.7929 7.54994,8.09857 -0.0813,2.08902 -0.9555,4.02771 -2.47908,5.44531 -1.52817,1.43527 -3.5173,2.17325 -5.61717,2.10277 -4.30576,-0.15877 -7.68922,-3.78999 -7.54481,-8.0995 0.0774,-2.08902 0.95161,-4.02748 2.47908,-5.4495 1.43265,-1.33757 3.2743,-2.06955 5.22129,-2.10091 z m 0.0517,2.30489 c -1.36114,0.017 -2.64167,0.52887 -3.63501,1.46053 -1.0596,0.99376 -1.68416,2.34027 -1.72832,3.79801 -0.10144,3.01231 2.25689,5.54591 5.26227,5.65675 1.46158,0.0442 2.85473,-0.47281 3.92051,-1.46658 1.06424,-0.9984 1.6767,-2.34431 1.72321,-3.79662 0.10143,-3.0115 -2.25691,-5.54242 -5.26927,-5.6493 -0.0914,-0.004 -0.18264,-0.004 -0.27339,-0.003 z m 1.16619,2.74175 c 1.33841,0 2.42273,0.72037 2.42273,1.61654 0,0.88765 -1.08507,1.61189 -2.42273,1.61189 -1.33844,0 -2.41946,-0.72421 -2.41946,-1.61189 0,-0.89617 1.08102,-1.61654 2.41946,-1.61654 z"
     id="path820-3-6"
     transform="matrix(3.07155,0,0,3.07155,-376.371,-1677.65)" />
</svg>
