<?xml version="1.0" encoding="UTF-8" standalone="no"?>
<!-- Created with Inkscape (http://www.inkscape.org/) -->

<svg
   width="110mm"
   height="110mm"
   viewBox="0 0 389.76378 389.7638"
   id="svg2"
   version="1.1"
   inkscape:version="1.1.2 (0a00cf5339, 2022-02-04)"
   sodipodi:docname="os_parrot.svg"
   inkscape:export-filename="../icons/os_parrot.png"
   inkscape:export-xdpi="29.6"
   inkscape:export-ydpi="29.6"
   xmlns:inkscape="http://www.inkscape.org/namespaces/inkscape"
   xmlns:sodipodi="http://sodipodi.sourceforge.net/DTD/sodipodi-0.dtd"
   xmlns="http://www.w3.org/2000/svg"
   xmlns:svg="http://www.w3.org/2000/svg"
   xmlns:rdf="http://www.w3.org/1999/02/22-rdf-syntax-ns#"
   xmlns:cc="http://creativecommons.org/ns#"
   xmlns:dc="http://purl.org/dc/elements/1.1/">
  <defs
     id="defs4" />
  <sodipodi:namedview
     id="base"
     pagecolor="#21252e"
     bordercolor="#bebebe"
     borderopacity="1"
     inkscape:pageopacity="0"
     inkscape:pageshadow="2"
     inkscape:zoom="1.4142136"
     inkscape:cx="133.64318"
     inkscape:cy="146.72465"
     inkscape:document-units="px"
     inkscape:current-layer="g6445"
     showgrid="false"
     inkscape:window-width="2486"
     inkscape:window-height="1376"
     inkscape:window-x="74"
     inkscape:window-y="27"
     inkscape:window-maximized="1"
     units="mm"
     inkscape:showpageshadow="false"
     showguides="true"
     inkscape:guide-bbox="true"
     inkscape:snap-global="false"
     inkscape:snap-bbox="true"
     inkscape:snap-others="true"
     fit-margin-top="0"
     fit-margin-left="0"
     fit-margin-right="0"
     fit-margin-bottom="0"
     inkscape:pagecheckerboard="0" />
  <metadata
     id="metadata7">
    <rdf:RDF>
      <cc:Work
         rdf:about="">
        <dc:format>image/svg+xml</dc:format>
        <dc:type
           rdf:resource="http://purl.org/dc/dcmitype/StillImage" />
      </cc:Work>
    </rdf:RDF>
  </metadata>
  <g
     inkscape:label="Layer 1"
     inkscape:groupmode="layer"
     id="layer1"
     style="opacity:0.96"
     transform="translate(-39.167521,88.250195)">
    <path
       style="fill:#000000"
       d=""
       id="path4134"
       inkscape:connector-curvature="0" />
    <g
       transform="translate(-141.01382,-425.49872)"
       style="display:inline"
       inkscape:label="debian vector"
       id="layer3">
      <g
         id="g4573"
         transform="translate(131.00657,-3.8976736)">
        <g
           id="g4627"
           style="opacity:0.99">
          <g
             id="g4740"
             transform="translate(-34.291185,268.4348)">
            <g
               transform="translate(380.29592,62.962549)"
               id="g4109">
              <g
                 transform="matrix(0.77230011,0,0,0.77230011,-239.76484,-6.9998595)"
                 style="fill:#ffffff;fill-opacity:1"
                 id="g4077">
                <g
                   id="layer1-5"
                   inkscape:label="Layer 1"
                   transform="matrix(1.2948334,0,0,1.2948334,-524.75052,-387.7468)">
                  <g
                     transform="translate(105.76257,-1.6247732)"
                     id="g6445">
                    <path
                       style="opacity:1;fill:#ecf0f1;fill-opacity:1;stroke:none;stroke-width:2.57814622;stroke-linecap:round;stroke-miterlimit:4;stroke-dasharray:none;stroke-opacity:1"
                       d="M 207.26758 104.14648 A 103.927 103.927 0 0 0 104 208.51172 A 103.927 103.927 0 0 0 208.14648 311.99805 A 103.927 103.927 0 0 0 311.85352 208.07031 L 311.84961 207.19141 A 103.927 103.927 0 0 0 207.26758 104.14648 z M 181.68359 142.58203 L 185.99805 142.58203 C 189.03173 147.09885 213.84154 152.55961 222.4707 156.53711 L 268.38086 236.75977 C 268.38086 236.75977 244.76091 217.17429 244.3125 217.48047 C 243.72563 217.88119 242.22266 260.55859 242.22266 260.55859 L 232.51562 240.87305 L 225.97656 281.6582 C 220.23131 235.51949 220.71366 201.4663 218.90625 200.11914 C 217.09883 198.77199 209.59375 196.22461 204.96875 196.28711 C 204.96875 196.28711 195.0296 175.97445 192.20117 170.62695 C 189.46113 167.62175 184.75857 163.83441 184.44922 162.19922 C 182.72565 160.785 179.46163 158.82571 179.12305 158.89648 C 178.78447 158.9672 171.09961 169.54688 171.09961 169.54688 L 170.87305 167.95312 L 169.34766 169.50391 C 169.34766 169.50391 168.89788 146.10007 169.41406 145.3457 C 169.93024 144.59134 181.68359 142.58203 181.68359 142.58203 z "
                       transform="matrix(0.93750008,0,0,0.93750008,242.4372,317.83039)"
                       id="path4572" />
                  </g>
                </g>
              </g>
            </g>
          </g>
        </g>
      </g>
    </g>
  </g>
</svg>
