<?xml version="1.0" encoding="UTF-8" standalone="no"?>
<!-- Created with Inkscape (http://www.inkscape.org/) -->

<svg
   width="400"
   height="400"
   viewBox="0 0 375.00001 375.00003"
   id="svg2"
   version="1.1"
   inkscape:version="1.1.2 (0a00cf5339, 2022-02-04)"
   sodipodi:docname="os_parrot.svg"
   inkscape:export-filename="../icons/os_parrot.png"
   inkscape:export-xdpi="30.719999"
   inkscape:export-ydpi="30.719999"
   xmlns:inkscape="http://www.inkscape.org/namespaces/inkscape"
   xmlns:sodipodi="http://sodipodi.sourceforge.net/DTD/sodipodi-0.dtd"
   xmlns="http://www.w3.org/2000/svg"
   xmlns:svg="http://www.w3.org/2000/svg"
   xmlns:rdf="http://www.w3.org/1999/02/22-rdf-syntax-ns#"
   xmlns:cc="http://creativecommons.org/ns#"
   xmlns:dc="http://purl.org/dc/elements/1.1/">
  <defs
     id="defs4" />
  <sodipodi:namedview
     id="base"
     pagecolor="#21252e"
     bordercolor="#bebebe"
     borderopacity="1"
     inkscape:pageopacity="0"
     inkscape:pageshadow="2"
     inkscape:zoom="0.88591022"
     inkscape:cx="92.560169"
     inkscape:cy="240.99508"
     inkscape:document-units="px"
     inkscape:current-layer="g4016"
     showgrid="false"
     inkscape:window-width="1942"
     inkscape:window-height="1082"
     inkscape:window-x="458"
     inkscape:window-y="292"
     inkscape:window-maximized="0"
     units="px"
     inkscape:showpageshadow="false"
     showguides="true"
     inkscape:guide-bbox="true"
     inkscape:snap-global="true"
     inkscape:snap-bbox="true"
     inkscape:snap-others="false"
     fit-margin-top="0"
     fit-margin-left="0"
     fit-margin-right="0"
     fit-margin-bottom="0"
     inkscape:pagecheckerboard="0"
     width="400px"
     inkscape:bbox-paths="true"
     inkscape:bbox-nodes="true"
     inkscape:snap-nodes="false">
    <sodipodi:guide
       position="93.750005,375.00002"
       orientation="-1,0"
       id="guide839"
       inkscape:label=""
       inkscape:locked="false"
       inkscape:color="rgb(0,0,255)" />
    <sodipodi:guide
       position="281.25001,375.00002"
       orientation="-1,0"
       id="guide841"
       inkscape:label=""
       inkscape:locked="false"
       inkscape:color="rgb(0,0,255)" />
    <sodipodi:guide
       position="0,281.25001"
       orientation="0,1"
       id="guide843"
       inkscape:label=""
       inkscape:locked="false"
       inkscape:color="rgb(0,0,255)" />
    <sodipodi:guide
       position="0,93.750005"
       orientation="0,1"
       id="guide845"
       inkscape:label=""
       inkscape:locked="false"
       inkscape:color="rgb(0,0,255)" />
  </sodipodi:namedview>
  <metadata
     id="metadata7">
    <rdf:RDF>
      <cc:Work
         rdf:about="">
        <dc:format>image/svg+xml</dc:format>
        <dc:type
           rdf:resource="http://purl.org/dc/dcmitype/StillImage" />
      </cc:Work>
    </rdf:RDF>
  </metadata>
  <g
     inkscape:label="Layer 1"
     inkscape:groupmode="layer"
     id="layer1"
     style="opacity:0.96"
     transform="translate(-39.167521,88.250195)">
    <path
       style="fill:#000000"
       d=""
       id="path4134"
       inkscape:connector-curvature="0" />
    <g
       transform="translate(-141.01382,-425.49872)"
       style="display:inline"
       inkscape:label="debian vector"
       id="layer3">
      <g
         id="g4573"
         transform="translate(131.00657,-3.8976736)">
        <g
           id="g4627"
           style="opacity:0.99">
          <g
             id="g4740"
             transform="translate(-34.291185,268.4348)">
            <g
               transform="translate(380.29592,62.962549)"
               id="g4109">
              <g
                 transform="matrix(0.77230011,0,0,0.77230011,-239.76484,-6.9998595)"
                 style="fill:#ffffff;fill-opacity:1"
                 id="g4077">
                <g
                   id="layer1-5"
                   inkscape:label="Layer 1"
                   transform="matrix(1.2948334,0,0,1.2948334,-524.75052,-387.7468)">
                  <g
                     transform="translate(105.76257,-1.6247732)"
                     id="g6445">
                    <g
                       id="g6415"
                       transform="matrix(3.0715506,0,0,3.0715506,-521.15168,-1035.6235)">
                      <g
                         transform="translate(126.06579,-105.54595)"
                         id="g4016">
                        <g
                           id="g4182"
                           transform="matrix(0.61815127,0,0,0.61815127,205.2279,224.79962)" />
                        <path
                           style="display:inline;fill:#ecf0f1;fill-opacity:1;stroke:none;stroke-width:0.757169;stroke-linecap:round;stroke-miterlimit:4;stroke-dasharray:none;stroke-opacity:1"
                           d="m 183.38531,576.71051 a 30.52198,30.522063 0 0 0 -30.32832,30.65076 30.52198,30.522063 0 0 0 30.58643,30.39265 30.52198,30.522063 0 0 0 30.45738,-30.52228 l -9.6e-4,-0.25813 a 30.52198,30.522063 0 0 0 -30.71432,-30.263 z m -7.51368,11.28803 h 1.26709 c 0.89096,1.32654 8.17727,2.93029 10.71154,4.09844 l 13.4832,23.56039 c 0,0 -6.93686,-5.75201 -7.06856,-5.66209 -0.17235,0.11769 -0.61376,12.6515 -0.61376,12.6515 l -2.85083,-5.78139 -1.92043,11.97809 c -1.6873,-13.55036 -1.54565,-23.55136 -2.07645,-23.947 -0.53082,-0.39564 -2.73496,-1.14378 -4.09326,-1.12543 0,0 -2.919,-5.96557 -3.74967,-7.53606 -0.80472,-0.88259 -2.18579,-1.99489 -2.27664,-2.47512 -0.50619,-0.41534 -1.4648,-0.99076 -1.56423,-0.96997 -0.0994,0.0208 -2.35638,3.12789 -2.35638,3.12789 l -0.0665,-0.46807 -0.44799,0.45544 c 0,0 -0.13209,-6.87341 0.0195,-7.09496 0.15159,-0.22154 3.60339,-0.81166 3.60339,-0.81166 z"
                           id="path4572" />
                      </g>
                    </g>
                  </g>
                </g>
              </g>
            </g>
          </g>
        </g>
      </g>
    </g>
  </g>
</svg>
