<?xml version="1.0" encoding="UTF-8" standalone="no"?>
<!-- Created with Inkscape (http://www.inkscape.org/) -->

<svg
   width="400"
   height="400"
   viewBox="0 0 375.00001 375.00003"
   id="svg2"
   version="1.1"
   inkscape:version="1.1.2 (0a00cf5339, 2022-02-04)"
   sodipodi:docname="os_redhat.svg"
   inkscape:export-filename="../icons/os_redhat.png"
   inkscape:export-xdpi="30.719999"
   inkscape:export-ydpi="30.719999"
   xmlns:inkscape="http://www.inkscape.org/namespaces/inkscape"
   xmlns:sodipodi="http://sodipodi.sourceforge.net/DTD/sodipodi-0.dtd"
   xmlns="http://www.w3.org/2000/svg"
   xmlns:svg="http://www.w3.org/2000/svg"
   xmlns:rdf="http://www.w3.org/1999/02/22-rdf-syntax-ns#"
   xmlns:cc="http://creativecommons.org/ns#"
   xmlns:dc="http://purl.org/dc/elements/1.1/">
  <defs
     id="defs4" />
  <sodipodi:namedview
     id="base"
     pagecolor="#21252e"
     bordercolor="#bebebe"
     borderopacity="1"
     inkscape:pageopacity="0"
     inkscape:pageshadow="2"
     inkscape:zoom="1.7718204"
     inkscape:cx="194.71499"
     inkscape:cy="277.96271"
     inkscape:document-units="px"
     inkscape:current-layer="g993"
     showgrid="false"
     inkscape:window-width="1942"
     inkscape:window-height="1082"
     inkscape:window-x="488"
     inkscape:window-y="243"
     inkscape:window-maximized="0"
     units="px"
     inkscape:showpageshadow="false"
     showguides="true"
     inkscape:guide-bbox="true"
     inkscape:snap-global="true"
     inkscape:snap-bbox="true"
     inkscape:snap-others="false"
     fit-margin-top="0"
     fit-margin-left="0"
     fit-margin-right="0"
     fit-margin-bottom="0"
     inkscape:pagecheckerboard="0"
     width="400px"
     inkscape:bbox-paths="true"
     inkscape:bbox-nodes="true"
     inkscape:snap-nodes="true">
    <sodipodi:guide
       position="93.750005,375.00002"
       orientation="-1,0"
       id="guide839"
       inkscape:label=""
       inkscape:locked="false"
       inkscape:color="rgb(0,0,255)" />
    <sodipodi:guide
       position="281.25001,375.00002"
       orientation="-1,0"
       id="guide841"
       inkscape:label=""
       inkscape:locked="false"
       inkscape:color="rgb(0,0,255)" />
    <sodipodi:guide
       position="0,281.25001"
       orientation="0,1"
       id="guide843"
       inkscape:label=""
       inkscape:locked="false"
       inkscape:color="rgb(0,0,255)" />
    <sodipodi:guide
       position="0,93.750005"
       orientation="0,1"
       id="guide845"
       inkscape:label=""
       inkscape:locked="false"
       inkscape:color="rgb(0,0,255)" />
  </sodipodi:namedview>
  <metadata
     id="metadata7">
    <rdf:RDF>
      <cc:Work
         rdf:about="">
        <dc:format>image/svg+xml</dc:format>
        <dc:type
           rdf:resource="http://purl.org/dc/dcmitype/StillImage" />
      </cc:Work>
    </rdf:RDF>
  </metadata>
  <g
     inkscape:label="Layer 1"
     inkscape:groupmode="layer"
     id="layer1"
     style="opacity:0.96"
     transform="translate(-39.167521,88.250195)">
    <path
       style="fill:#000000"
       d=""
       id="path4134"
       inkscape:connector-curvature="0" />
    <g
       transform="translate(-141.01382,-425.49872)"
       style="display:inline"
       inkscape:label="debian vector"
       id="layer3">
      <g
         id="g4573"
         transform="translate(131.00657,-3.8976736)">
        <g
           id="g4627"
           style="opacity:0.99">
          <g
             id="g4740"
             transform="translate(-34.291185,268.4348)">
            <g
               transform="translate(380.29592,62.962549)"
               id="g4109">
              <g
                 transform="matrix(0.77230011,0,0,0.77230011,-239.76484,-6.9998595)"
                 style="fill:#ffffff;fill-opacity:1"
                 id="g4077">
                <g
                   id="layer1-5"
                   inkscape:label="Layer 1"
                   transform="matrix(1.2948334,0,0,1.2948334,-524.75052,-387.7468)">
                  <g
                     transform="translate(105.76257,-1.6247732)"
                     id="g6445">
                    <g
                       id="g6415"
                       transform="matrix(3.0715506,0,0,3.0715506,-521.15168,-1035.6235)">
                      <g
                         transform="translate(126.06579,-105.54595)"
                         id="g4016">
                        <g
                           id="g4182"
                           transform="matrix(0.61815127,0,0,0.61815127,205.2279,224.79962)" />
                        <g
                           id="g993"
                           transform="matrix(0.04069606,0,0,-0.04069606,162.55395,684.37543)">
                          <path
                             id="path997"
                             style="fill:#ecf0f1;fill-opacity:1;fill-rule:evenodd;stroke:none;stroke-width:1.24554"
                             d="m 516.6154,2570.4545 c -291.78106,3.9623 -573.553062,-181.3827 -687.44184,-449.6788 -75.0322,-171.817 -84.21018,-372.9386 -20.1363,-549.5497 59.64503,-41.5686 9.2826,79.3673 71.09483,43.9333 64.877551,-11.4532 154.914522,32.301 196.356299,-38.4112 14.287202,-59.4342 151.461521,-49.7337 74.790531,5.5372 -45.62993,40.2513 -111.034653,129.9631 -28.91326,170.6741 80.92486,41.7222 99.46029,-119.8624 162.45285,-79.7367 65.54229,-11.6428 81.67771,-103.2858 149.19233,-116.5205 63.95775,-18.1884 129.73883,6.985 193.40394,1.3171 48.21307,-23.069 100.48461,15.4969 151.52909,-11.577 37.39037,-3.1345 104.11736,38.2251 69.85315,-32.3419 -4.49453,-75.7879 -37.29175,-139.5997 -87.52959,-195.4722 -16.45606,-30.1516 -108.14243,-119.1271 -21.08056,-89.3334 55.98961,43.2976 104.45378,95.8238 171.91353,121.6981 -10.90995,74.1266 111.7418,15.9792 162.5984,32.4466 83.1001,-32.294 99.6869,101.3254 137.2108,155.3183 114.1152,271.7627 45.9365,606.401 -164.9626,812.0281 -138.66718,139.8137 -333.3336,220.6927 -530.3316,219.6686 z M 609.34,2428.8626 c 91.21448,9.9638 196.15012,-29.5713 227.0041,-122.6815 24.54849,-68.9345 58.69363,-134.7073 75.59288,-206.3559 21.47163,-49.5181 -10.42044,-115.1531 -5.80522,-154.0139 36.25571,30.5695 25.64084,106.6839 85.17645,58.2727 62.61469,-29.5748 149.00359,-64.9252 151.05839,-146.0535 4.7461,-114.1109 -100.5359,-196.3091 -197.74064,-233.1199 -133.75292,-45.141 -280.20919,-31.7221 -416.20586,-3.4784 -150.82651,37.2129 -288.47423,115.0165 -419.65404,196.1167 -75.554541,54.2323 -168.072903,111.6686 -191.196447,208.168 -7.237876,81.3692 93.124804,109.1007 158.161649,109.8492 38.357028,2.0625 76.797828,-0.8002 115.190778,-0.9611 -50.66535,-64.4333 12.17836,-127.3201 71.8695,-150.7384 90.89115,-44.9601 186.00735,-85.7284 284.85248,-108.1516 78.30143,-13.6056 -21.65302,46.162 -4.27793,89.994 -46.41187,63.9884 -141.85837,61.1966 -210.71122,89.9826 -66.70238,16.7275 -154.65075,61.1465 -132.68056,144.9683 20.99086,73.4747 19.39801,173.7894 97.38248,212.1954 82.76572,42.1461 174.28778,-23.4516 258.88643,5.1477 14.41118,11.2095 36.00833,7.5832 53.09678,10.8596 z m 50.49314,-48.9404 c -38.11184,0.5298 -80.84197,-5.9244 -18.76859,-11.5884 40.85565,6.1475 48.50422,-43.4571 7.63582,-52.4544 46.58858,-20.3241 133.95915,34.689 54.21682,59.0903 -13.96454,4.0977 -28.61512,4.9615 -43.08405,4.9525 z m -353.96482,-90.0439 c -65.29973,-43.8207 41.24602,-147.087 85.64039,-76.8777 28.57036,11.1675 158.24723,3.3115 85.69944,38.5336 -56.20358,11.2597 -133.65421,-25.1866 -171.33983,38.3441 z M 668.71008,1459.224 c -25.01904,-52.0204 -118.43551,37.2527 -112.91049,-31.8675 35.20402,-17.2934 147.19681,-44.397 112.91049,31.8675 z" />
                        </g>
                      </g>
                    </g>
                  </g>
                </g>
              </g>
            </g>
          </g>
        </g>
      </g>
    </g>
  </g>
</svg>
