<?xml version="1.0" encoding="UTF-8" standalone="no"?>
<!-- Created with Inkscape (http://www.inkscape.org/) -->

<svg
   width="400"
   height="400"
   viewBox="0 0 375.00001 375.00003"
   id="svg2"
   version="1.1"
   inkscape:version="1.1.2 (0a00cf5339, 2022-02-04)"
   sodipodi:docname="os_slackware.svg"
   inkscape:export-filename="../icons/os_slackware.png"
   inkscape:export-xdpi="30.719999"
   inkscape:export-ydpi="30.719999"
   xmlns:inkscape="http://www.inkscape.org/namespaces/inkscape"
   xmlns:sodipodi="http://sodipodi.sourceforge.net/DTD/sodipodi-0.dtd"
   xmlns="http://www.w3.org/2000/svg"
   xmlns:svg="http://www.w3.org/2000/svg"
   xmlns:rdf="http://www.w3.org/1999/02/22-rdf-syntax-ns#"
   xmlns:cc="http://creativecommons.org/ns#"
   xmlns:dc="http://purl.org/dc/elements/1.1/">
  <defs
     id="defs4" />
  <sodipodi:namedview
     id="base"
     pagecolor="#21252e"
     bordercolor="#bebebe"
     borderopacity="1"
     inkscape:pageopacity="0"
     inkscape:pageshadow="2"
     inkscape:zoom="0.88591022"
     inkscape:cx="288.96833"
     inkscape:cy="230.83603"
     inkscape:document-units="px"
     inkscape:current-layer="g4016"
     showgrid="false"
     inkscape:window-width="1942"
     inkscape:window-height="1082"
     inkscape:window-x="527"
     inkscape:window-y="233"
     inkscape:window-maximized="0"
     units="px"
     inkscape:showpageshadow="false"
     showguides="true"
     inkscape:guide-bbox="true"
     inkscape:snap-global="true"
     inkscape:snap-bbox="true"
     inkscape:snap-others="false"
     fit-margin-top="0"
     fit-margin-left="0"
     fit-margin-right="0"
     fit-margin-bottom="0"
     inkscape:pagecheckerboard="0"
     width="400px"
     inkscape:bbox-paths="true"
     inkscape:bbox-nodes="true"
     inkscape:snap-nodes="false">
    <sodipodi:guide
       position="93.750005,375.00002"
       orientation="-1,0"
       id="guide839"
       inkscape:label=""
       inkscape:locked="false"
       inkscape:color="rgb(0,0,255)" />
    <sodipodi:guide
       position="281.25001,375.00002"
       orientation="-1,0"
       id="guide841"
       inkscape:label=""
       inkscape:locked="false"
       inkscape:color="rgb(0,0,255)" />
    <sodipodi:guide
       position="0,281.25001"
       orientation="0,1"
       id="guide843"
       inkscape:label=""
       inkscape:locked="false"
       inkscape:color="rgb(0,0,255)" />
    <sodipodi:guide
       position="0,93.750005"
       orientation="0,1"
       id="guide845"
       inkscape:label=""
       inkscape:locked="false"
       inkscape:color="rgb(0,0,255)" />
  </sodipodi:namedview>
  <metadata
     id="metadata7">
    <rdf:RDF>
      <cc:Work
         rdf:about="">
        <dc:format>image/svg+xml</dc:format>
        <dc:type
           rdf:resource="http://purl.org/dc/dcmitype/StillImage" />
      </cc:Work>
    </rdf:RDF>
  </metadata>
  <g
     inkscape:label="Layer 1"
     inkscape:groupmode="layer"
     id="layer1"
     style="opacity:0.96"
     transform="translate(-39.167521,88.250195)">
    <path
       style="fill:#000000"
       d=""
       id="path4134"
       inkscape:connector-curvature="0" />
    <g
       transform="translate(-141.01382,-425.49872)"
       style="display:inline"
       inkscape:label="debian vector"
       id="layer3">
      <g
         id="g4573"
         transform="translate(131.00657,-3.8976736)">
        <g
           id="g4627"
           style="opacity:0.99">
          <g
             id="g4740"
             transform="translate(-34.291185,268.4348)">
            <g
               transform="translate(380.29592,62.962549)"
               id="g4109">
              <g
                 transform="matrix(0.77230011,0,0,0.77230011,-239.76484,-6.9998595)"
                 style="fill:#ffffff;fill-opacity:1"
                 id="g4077">
                <g
                   id="layer1-5"
                   inkscape:label="Layer 1"
                   transform="matrix(1.2948334,0,0,1.2948334,-524.75052,-387.7468)">
                  <g
                     transform="translate(105.76257,-1.6247732)"
                     id="g6445">
                    <g
                       id="g6415"
                       transform="matrix(3.0715506,0,0,3.0715506,-521.15168,-1035.6235)">
                      <g
                         transform="translate(126.06579,-105.54595)"
                         id="g4016">
                        <g
                           id="g4182"
                           transform="matrix(0.61815127,0,0,0.61815127,205.2279,224.79962)" />
                        <path
                           style="display:inline;opacity:0.99;fill:#ecf0f1;fill-opacity:1;stroke:none;stroke-width:3.22634;stroke-linecap:round;stroke-linejoin:miter;stroke-miterlimit:4;stroke-dasharray:none;stroke-opacity:1"
                           d="m 183.57893,576.70989 a 30.522171,30.522178 0 0 0 -30.52222,30.52222 30.522171,30.522178 0 0 0 30.52222,30.52187 30.522171,30.522178 0 0 0 30.52187,-30.52187 30.522171,30.522178 0 0 0 -30.52187,-30.52222 z m -0.57706,13.92279 c 1.50927,0 3.16386,0.13065 4.96337,0.39198 1.79951,0.24997 3.71492,0.6191 5.74663,1.10767 v 5.41981 h -2.45967 c -0.24672,-1.79523 -1.01594,-3.09049 -2.30753,-3.88585 -1.27707,-0.80672 -3.2291,-1.20991 -5.85581,-1.20991 -2.29293,0 -4.04166,0.36913 -5.24618,1.10767 -1.18999,0.72719 -1.78487,1.78959 -1.78487,3.18715 0,1.21575 0.44982,2.17034 1.34957,2.86343 0.89976,0.69311 2.8082,1.38042 5.72515,2.06216 l 4.02726,0.9375 c 2.94598,0.69309 5.04272,1.5792 6.29076,2.65861 1.26256,1.06804 1.89406,2.5052 1.89406,4.31179 0,2.4656 -1.00879,4.32351 -3.02598,5.57335 -2.01721,1.24985 -5.02127,1.87465 -9.01212,1.87465 -1.785,0 -3.60626,-0.1419 -5.46383,-0.42595 -1.84304,-0.28405 -3.72219,-0.7157 -5.63779,-1.29516 v -5.79481 l 2.50333,0.0169 c 0.0725,1.93158 0.78357,3.36312 2.13319,4.29482 1.36416,0.92033 3.4323,1.38042 6.20413,1.38042 2.58317,0 4.54949,-0.39757 5.89913,-1.19293 1.36414,-0.80672 2.0462,-1.97694 2.0462,-3.51084 0,-1.22712 -0.41355,-2.17013 -1.24075,-2.82913 -0.81269,-0.65902 -2.5398,-1.30102 -5.18101,-1.92595 l -4.28824,-1.00542 c -3.10561,-0.73855 -5.29684,-1.65907 -6.57391,-2.76121 -1.26256,-1.10214 -1.89406,-2.61339 -1.89406,-4.5336 0,-2.15883 0.97985,-3.8348 2.93899,-5.02783 1.95915,-1.19303 4.70901,-1.7894 8.24998,-1.7894 z m -16.95571,22.71275 h 1.82752 v 6.79781 h 33.23767 v 1.82752 h -35.06519 z"
                           id="path4191"
                           inkscape:connector-curvature="0" />
                      </g>
                    </g>
                  </g>
                </g>
              </g>
            </g>
          </g>
        </g>
      </g>
    </g>
  </g>
</svg>
