<?xml version="1.0" encoding="UTF-8" standalone="no"?>
<!-- Created with Inkscape (http://www.inkscape.org/) -->

<svg
   width="110mm"
   height="110mm"
   viewBox="0 0 389.76378 389.7638"
   id="svg2"
   version="1.1"
   inkscape:version="1.1.2 (0a00cf5339, 2022-02-04)"
   sodipodi:docname="os_slackware.svg"
   inkscape:export-filename="/home/rain/minidark/icons/os_slackware.png"
   inkscape:export-xdpi="29.556362"
   inkscape:export-ydpi="29.556362"
   xmlns:inkscape="http://www.inkscape.org/namespaces/inkscape"
   xmlns:sodipodi="http://sodipodi.sourceforge.net/DTD/sodipodi-0.dtd"
   xmlns="http://www.w3.org/2000/svg"
   xmlns:svg="http://www.w3.org/2000/svg"
   xmlns:rdf="http://www.w3.org/1999/02/22-rdf-syntax-ns#"
   xmlns:cc="http://creativecommons.org/ns#"
   xmlns:dc="http://purl.org/dc/elements/1.1/">
  <defs
     id="defs4" />
  <sodipodi:namedview
     id="base"
     pagecolor="#21252e"
     bordercolor="#bebebe"
     borderopacity="1"
     inkscape:pageopacity="0"
     inkscape:pageshadow="2"
     inkscape:zoom="0.9270892"
     inkscape:cx="153.16757"
     inkscape:cy="150.47096"
     inkscape:document-units="px"
     inkscape:current-layer="g6445"
     showgrid="false"
     inkscape:window-width="2424"
     inkscape:window-height="714"
     inkscape:window-x="136"
     inkscape:window-y="36"
     inkscape:window-maximized="0"
     units="mm"
     inkscape:showpageshadow="false"
     showguides="true"
     inkscape:guide-bbox="true"
     inkscape:snap-global="false"
     inkscape:snap-bbox="true"
     inkscape:snap-others="true"
     fit-margin-top="0"
     fit-margin-left="0"
     fit-margin-right="0"
     fit-margin-bottom="0"
     inkscape:pagecheckerboard="0" />
  <metadata
     id="metadata7">
    <rdf:RDF>
      <cc:Work
         rdf:about="">
        <dc:format>image/svg+xml</dc:format>
        <dc:type
           rdf:resource="http://purl.org/dc/dcmitype/StillImage" />
      </cc:Work>
    </rdf:RDF>
  </metadata>
  <g
     inkscape:label="Layer 1"
     inkscape:groupmode="layer"
     id="layer1"
     style="opacity:0.96"
     transform="translate(-39.167521,88.250195)">
    <path
       style="fill:#000000"
       d=""
       id="path4134"
       inkscape:connector-curvature="0" />
    <g
       transform="translate(-141.01382,-425.49872)"
       style="display:inline"
       inkscape:label="debian vector"
       id="layer3">
      <g
         id="g4573"
         transform="translate(131.00657,-3.8976736)">
        <g
           id="g4627"
           style="opacity:0.99">
          <g
             id="g4740"
             transform="translate(-34.291185,268.4348)">
            <g
               transform="translate(380.29592,62.962549)"
               id="g4109">
              <g
                 transform="matrix(0.77230011,0,0,0.77230011,-239.76484,-6.9998595)"
                 style="fill:#ffffff;fill-opacity:1"
                 id="g4077">
                <g
                   id="layer1-5"
                   inkscape:label="Layer 1"
                   transform="matrix(1.2948334,0,0,1.2948334,-524.75052,-387.7468)">
                  <g
                     transform="translate(105.76257,-1.6247732)"
                     id="g6445">
                    <path
                       style="fill:#ecf0f1;fill-opacity:1;stroke:none;stroke-width:10.30000019;stroke-linecap:round;stroke-linejoin:miter;stroke-miterlimit:4;stroke-dasharray:none;stroke-opacity:1"
                       d="m 437.31964,415.27133 a 97.441353,97.441353 0 0 0 -97.4415,97.44149 97.441353,97.441353 0 0 0 97.4415,97.4404 97.441353,97.441353 0 0 0 97.4404,-97.4404 97.441353,97.441353 0 0 0 -97.4404,-97.44149 z m -1.84223,44.4482 c 4.8183,0 10.10053,0.4171 15.84543,1.25139 5.7449,0.79802 11.85982,1.97644 18.34601,3.53621 l 0,17.30262 -7.85246,0 c -0.78761,-5.73123 -3.24337,-9.86633 -7.36673,-12.40549 -4.07702,-2.57543 -10.30883,-3.86261 -18.69454,-3.86261 -7.32011,0 -12.90291,1.17843 -16.74829,3.53621 -3.79904,2.32152 -5.6982,5.71323 -5.6982,10.17489 0,3.88128 1.43605,6.92878 4.30851,9.14147 2.87245,2.21269 8.9651,4.40694 18.2774,6.58336 l 12.85692,2.99294 c 9.40496,2.21269 16.09876,5.04156 20.08312,8.48756 4.0307,3.40972 6.04674,7.99781 6.04674,13.76531 0,7.87138 -3.22054,13.80268 -9.66039,17.79278 -6.43986,3.9901 -16.03025,5.98477 -28.77095,5.98477 -5.69858,0 -11.51293,-0.45298 -17.44315,-1.35982 -5.88389,-0.90684 -11.88304,-2.28484 -17.99857,-4.13479 l 0,-18.4998 7.99186,0.0542 c 0.23165,6.16651 2.50151,10.73665 6.81018,13.71109 4.35501,2.93816 10.95752,4.40698 19.80652,4.40698 8.24671,0 14.52417,-1.26924 18.83284,-3.80839 4.355,-2.57543 6.53246,-6.31138 6.53246,-11.20832 0,-3.91755 -1.32027,-6.92806 -3.96107,-9.03192 -2.59448,-2.10387 -8.10825,-4.15348 -16.54029,-6.14853 l -13.69007,-3.20981 c -9.91459,-2.35778 -16.91006,-5.29652 -20.98709,-8.81506 -4.0307,-3.51855 -6.04674,-8.3432 -6.04674,-14.47344 0,-6.89199 3.12815,-12.24251 9.38267,-16.05123 6.25453,-3.80873 15.0334,-5.71259 26.33788,-5.71259 z m -54.13073,72.50992 5.8343,0 0,21.70186 106.11052,0 0,5.8343 -111.94482,0 0,-27.53616 z"
                       id="path4191"
                       inkscape:connector-curvature="0" />
                  </g>
                </g>
              </g>
            </g>
          </g>
        </g>
      </g>
    </g>
  </g>
</svg>
