<?xml version="1.0" encoding="UTF-8" standalone="no"?>
<!-- Created with Inkscape (http://www.inkscape.org/) -->

<svg
   width="400"
   height="400"
   viewBox="0 0 375.00001 375.00003"
   id="svg2"
   version="1.1"
   inkscape:version="1.1.2 (0a00cf5339, 2022-02-04)"
   sodipodi:docname="os_steamos.svg"
   inkscape:export-filename="../icons/os_steamos.png"
   inkscape:export-xdpi="30.719999"
   inkscape:export-ydpi="30.719999"
   xmlns:inkscape="http://www.inkscape.org/namespaces/inkscape"
   xmlns:sodipodi="http://sodipodi.sourceforge.net/DTD/sodipodi-0.dtd"
   xmlns="http://www.w3.org/2000/svg"
   xmlns:svg="http://www.w3.org/2000/svg"
   xmlns:rdf="http://www.w3.org/1999/02/22-rdf-syntax-ns#"
   xmlns:cc="http://creativecommons.org/ns#"
   xmlns:dc="http://purl.org/dc/elements/1.1/">
  <defs
     id="defs4">
    <linearGradient
       id="A"
       x2="50%"
       x1="50%"
       y2="100%"
       y1="0%">
      <stop
         stop-color="#111d2e"
         offset="0%"
         id="stop4" />
      <stop
         stop-color="#051839"
         offset="21.2%"
         id="stop6" />
      <stop
         stop-color="#0a1b48"
         offset="40.7%"
         id="stop8" />
      <stop
         stop-color="#132e62"
         offset="58.1%"
         id="stop10" />
      <stop
         stop-color="#144b7e"
         offset="73.8%"
         id="stop12" />
      <stop
         stop-color="#136497"
         offset="87.3%"
         id="stop14" />
      <stop
         stop-color="#1387b8"
         offset="100%"
         id="stop16" />
    </linearGradient>
  </defs>
  <sodipodi:namedview
     id="base"
     pagecolor="#21252e"
     bordercolor="#bebebe"
     borderopacity="1"
     inkscape:pageopacity="0"
     inkscape:pageshadow="2"
     inkscape:zoom="0.88591022"
     inkscape:cx="173.83251"
     inkscape:cy="269.21464"
     inkscape:document-units="px"
     inkscape:current-layer="svg2"
     showgrid="false"
     inkscape:window-width="1942"
     inkscape:window-height="1082"
     inkscape:window-x="527"
     inkscape:window-y="233"
     inkscape:window-maximized="0"
     units="px"
     inkscape:showpageshadow="false"
     showguides="true"
     inkscape:guide-bbox="true"
     inkscape:snap-global="true"
     inkscape:snap-bbox="true"
     inkscape:snap-others="false"
     fit-margin-top="0"
     fit-margin-left="0"
     fit-margin-right="0"
     fit-margin-bottom="0"
     inkscape:pagecheckerboard="0"
     width="400px"
     inkscape:bbox-paths="true"
     inkscape:bbox-nodes="true"
     inkscape:snap-nodes="true">
    <sodipodi:guide
       position="93.750005,375.00002"
       orientation="-1,0"
       id="guide839"
       inkscape:label=""
       inkscape:locked="false"
       inkscape:color="rgb(0,0,255)" />
    <sodipodi:guide
       position="281.25001,375.00002"
       orientation="-1,0"
       id="guide841"
       inkscape:label=""
       inkscape:locked="false"
       inkscape:color="rgb(0,0,255)" />
    <sodipodi:guide
       position="0,281.25001"
       orientation="0,1"
       id="guide843"
       inkscape:label=""
       inkscape:locked="false"
       inkscape:color="rgb(0,0,255)" />
    <sodipodi:guide
       position="0,93.750005"
       orientation="0,1"
       id="guide845"
       inkscape:label=""
       inkscape:locked="false"
       inkscape:color="rgb(0,0,255)" />
  </sodipodi:namedview>
  <metadata
     id="metadata7">
    <rdf:RDF>
      <cc:Work
         rdf:about="">
        <dc:format>image/svg+xml</dc:format>
        <dc:type
           rdf:resource="http://purl.org/dc/dcmitype/StillImage" />
      </cc:Work>
    </rdf:RDF>
  </metadata>
  <path
     id="path874"
     style="display:inline;opacity:1;fill:#ecf0f1;fill-opacity:1;stroke-width:0.954119"
     d="m 183.55909,576.7099 c -16.18518,0 -29.4295,12.58342 -30.47555,28.49399 0.004,0.008 0.009,0.0145 0.0131,0.0221 0,-3e-5 0,-0.004 0,-0.004 l 16.41156,6.75956 a 7.7690374,7.7640455 0 0 1 1.42952,-0.76305 c 1.15295,-0.47405 2.36719,-0.68663 3.5774,-0.63131 l 7.47313,-10.84963 -0.003,-0.15082 h -0.01 c 0,-6.40391 5.20419,-11.61149 11.60076,-11.61149 6.40898,0.0134 11.60136,5.20758 11.60136,11.61149 0,6.4039 -5.20193,11.61745 -11.60136,11.61745 l -0.26225,-0.005 -10.68272,7.63527 a 8.4848581,8.4794059 0 0 1 -0.65276,3.48739 8.4753135,8.4698678 0 0 1 -11.07438,4.56102 c -2.63613,-1.09689 -4.43069,-3.37841 -5.00335,-5.98041 l -11.55903,-4.76669 c 3.81438,12.50926 15.4525,21.6176 29.21711,21.6176 16.86759,0 30.54171,-13.6653 30.54171,-30.52205 0,-16.85675 -13.67412,-30.52204 -30.54171,-30.52204 z m 10.02816,15.14298 a 7.7499489,7.7449692 0 0 0 -7.72887,7.73603 7.7499489,7.7449692 0 0 0 7.72887,7.73841 7.7499489,7.7449692 0 0 0 7.73066,-7.73841 7.7499489,7.7449692 0 0 0 -7.73066,-7.73603 z m 0.0113,1.91001 c 3.20211,0 5.80694,2.60392 5.80694,5.8135 a 5.8124617,5.808727 0 0 1 -5.80694,5.81171 5.8124617,5.808727 0 0 1 -5.80395,-5.81171 h 0.001 a 5.8124617,5.808727 0 0 1 5.80276,-5.8135 z m -19.37911,18.75735 c -0.81651,-0.007 -1.62076,0.14069 -2.3738,0.42683 l 3.91302,1.61672 a 4.8198573,4.8167605 0 0 1 2.59139,6.29636 4.8103131,4.8072224 0 0 1 -6.291,2.59318 l -3.7765,-1.56425 a 6.5282821,6.5240874 0 0 0 3.36338,3.2066 c 3.32809,1.38589 7.15725,-0.1848 8.54498,-3.52315 h -0.008 c 0.67001,-1.60813 0.67382,-3.38914 0.01,-5.00395 -0.66428,-1.6148 -1.90479,-2.87765 -3.52732,-3.54818 -0.80076,-0.33241 -1.62943,-0.49336 -2.44594,-0.50016 z"
     inkscape:export-filename="../icons/path874.png"
     inkscape:export-xdpi="30.719999"
     inkscape:export-ydpi="30.719999"
     transform="matrix(3.07155,0,0,3.07155,-376.371,-1677.65)" />
</svg>
