<?xml version="1.0" encoding="UTF-8" standalone="no"?>
<!-- Created with Inkscape (http://www.inkscape.org/) -->

<svg
   width="400"
   height="400"
   viewBox="0 0 375.00001 375.00003"
   id="svg2"
   version="1.1"
   inkscape:version="1.1.2 (0a00cf5339, 2022-02-04)"
   sodipodi:docname="os_sabaion.svg"
   inkscape:export-filename="../icons/os_sabaion.png"
   inkscape:export-xdpi="30.719999"
   inkscape:export-ydpi="30.719999"
   xmlns:inkscape="http://www.inkscape.org/namespaces/inkscape"
   xmlns:sodipodi="http://sodipodi.sourceforge.net/DTD/sodipodi-0.dtd"
   xmlns="http://www.w3.org/2000/svg"
   xmlns:svg="http://www.w3.org/2000/svg"
   xmlns:rdf="http://www.w3.org/1999/02/22-rdf-syntax-ns#"
   xmlns:cc="http://creativecommons.org/ns#"
   xmlns:dc="http://purl.org/dc/elements/1.1/">
  <defs
     id="defs4" />
  <sodipodi:namedview
     id="base"
     pagecolor="#21252e"
     bordercolor="#bebebe"
     borderopacity="1"
     inkscape:pageopacity="0"
     inkscape:pageshadow="2"
     inkscape:zoom="2.5057325"
     inkscape:cx="196.74885"
     inkscape:cy="183.37951"
     inkscape:document-units="px"
     inkscape:current-layer="g4016"
     showgrid="false"
     inkscape:window-width="1942"
     inkscape:window-height="1082"
     inkscape:window-x="458"
     inkscape:window-y="292"
     inkscape:window-maximized="0"
     units="px"
     inkscape:showpageshadow="false"
     showguides="true"
     inkscape:guide-bbox="true"
     inkscape:snap-global="true"
     inkscape:snap-bbox="true"
     inkscape:snap-others="false"
     fit-margin-top="0"
     fit-margin-left="0"
     fit-margin-right="0"
     fit-margin-bottom="0"
     inkscape:pagecheckerboard="0"
     width="400px"
     inkscape:bbox-paths="true"
     inkscape:bbox-nodes="true"
     inkscape:snap-nodes="false">
    <sodipodi:guide
       position="93.750005,375.00002"
       orientation="-1,0"
       id="guide839"
       inkscape:label=""
       inkscape:locked="false"
       inkscape:color="rgb(0,0,255)" />
    <sodipodi:guide
       position="281.25001,375.00002"
       orientation="-1,0"
       id="guide841"
       inkscape:label=""
       inkscape:locked="false"
       inkscape:color="rgb(0,0,255)" />
    <sodipodi:guide
       position="0,281.25001"
       orientation="0,1"
       id="guide843"
       inkscape:label=""
       inkscape:locked="false"
       inkscape:color="rgb(0,0,255)" />
    <sodipodi:guide
       position="0,93.750005"
       orientation="0,1"
       id="guide845"
       inkscape:label=""
       inkscape:locked="false"
       inkscape:color="rgb(0,0,255)" />
  </sodipodi:namedview>
  <metadata
     id="metadata7">
    <rdf:RDF>
      <cc:Work
         rdf:about="">
        <dc:format>image/svg+xml</dc:format>
        <dc:type
           rdf:resource="http://purl.org/dc/dcmitype/StillImage" />
      </cc:Work>
    </rdf:RDF>
  </metadata>
  <g
     inkscape:label="Layer 1"
     inkscape:groupmode="layer"
     id="layer1"
     style="opacity:0.96"
     transform="translate(-39.167521,88.250195)">
    <path
       style="fill:#000000"
       d=""
       id="path4134"
       inkscape:connector-curvature="0" />
    <g
       transform="translate(-141.01382,-425.49872)"
       style="display:inline"
       inkscape:label="debian vector"
       id="layer3">
      <g
         id="g4573"
         transform="translate(131.00657,-3.8976736)">
        <g
           id="g4627"
           style="opacity:0.99">
          <g
             id="g4740"
             transform="translate(-34.291185,268.4348)">
            <g
               transform="translate(380.29592,62.962549)"
               id="g4109">
              <g
                 transform="matrix(0.77230011,0,0,0.77230011,-239.76484,-6.9998595)"
                 style="fill:#ffffff;fill-opacity:1"
                 id="g4077">
                <g
                   id="layer1-5"
                   inkscape:label="Layer 1"
                   transform="matrix(1.2948334,0,0,1.2948334,-524.75052,-387.7468)">
                  <g
                     transform="translate(105.76257,-1.6247732)"
                     id="g6445">
                    <g
                       id="g6415"
                       transform="matrix(3.0715506,0,0,3.0715506,-521.15168,-1035.6235)">
                      <g
                         transform="translate(126.06579,-105.54595)"
                         id="g4016">
                        <g
                           id="g4182"
                           transform="matrix(0.61815127,0,0,0.61815127,205.2279,224.79962)" />
                        <path
                           style="display:inline;opacity:0.99;fill:#ecf0f1;fill-opacity:1;stroke-width:0.278916"
                           d="m 206.26857,612.53756 c -0.0519,-0.71727 0.27299,-1.44527 0.8438,-1.98558 2.81834,-2.66776 6.62229,-2.98069 6.9697,-0.57335 0.29847,2.0682 -3.03721,5.70733 -5.23143,5.70733 -0.41403,0 -0.81399,-0.42752 -1.12642,-0.75387 -0.64594,-0.67474 -1.38828,-1.46288 -1.45565,-2.39453 z m -49.78393,4.56644 c -1.90192,-0.32383 -3.42793,-2.78947 -3.42793,-4.66354 0,-2.26938 3.33172,-1.81791 5.86521,0.79478 0.57377,0.59171 0.50019,1.4336 0.20948,2.05938 -0.45026,0.96923 -1.59321,1.98876 -2.64676,1.80938 z m 4.39526,-1.49715 c 1.10452,-0.32809 2.32352,0.0378 3.44248,0.31255 2.68921,0.66044 5.22162,1.65908 7.68004,3.1669 2.45843,1.50781 4.74256,2.57496 5.07587,2.37143 0.33331,-0.20352 0.606,-4.57033 0.606,-9.70402 0,-10.57633 0.65457,-15.21034 3.26156,-18.91298 0.37487,-0.53242 1.00761,-0.92844 1.64733,-1.0499 0.89048,-0.16909 1.88083,0.0719 2.66916,0.51924 0.64634,0.36675 1.17784,0.98492 1.48788,1.6603 1.85393,4.03849 1.66624,3.36562 1.72881,13.21853 0.0752,11.84015 0.45934,12.93004 4.0783,11.57061 1.04359,-0.39201 3.53795,-1.95035 5.54302,-3.46297 2.00506,-1.51262 4.37897,-2.75023 5.27535,-2.75023 0.45482,0 1.39182,0.31058 1.89373,0.77182 0.68545,0.62992 1.12994,1.56761 1.26832,2.4882 0.12692,0.84443 -0.025,1.66162 -0.44104,2.52349 -1.40844,2.91811 -6.07982,6.90395 -12.03095,10.26535 -2.13218,1.20433 -5.13142,3.03097 -6.66497,4.05918 -2.96801,1.98999 -6.20467,2.28096 -10.11372,0.9092 -2.11448,-0.74202 -10.36825,-6.16716 -16.48459,-10.83522 -1.20159,-0.91707 -2.1847,-2.34694 -2.1847,-3.17751 0,-0.83057 -0.0488,-1.73342 0.36471,-2.44682 0.40406,-0.697 1.12512,-1.26774 1.89741,-1.49715 z m 20.8649,-26.04174 c -2.00098,-1.9562 -1.04242,-6.91155 -0.0913,-8.39448 2.23048,-3.47741 5.27603,1.8765 4.7027,6.35659 -0.0781,0.61046 -0.34894,1.59939 -0.97438,1.99511 -1.02458,0.64826 -2.7701,0.89035 -3.63707,0.0428 z"
                           id="path4191"
                           inkscape:connector-curvature="0"
                           sodipodi:nodetypes="asssaaassaaaassssaaassssaassssssaaassaa" />
                      </g>
                    </g>
                  </g>
                </g>
              </g>
            </g>
          </g>
        </g>
      </g>
    </g>
  </g>
</svg>
