<?xml version="1.0" encoding="UTF-8" standalone="no"?>
<svg
   xmlns:dc="http://purl.org/dc/elements/1.1/"
   xmlns:cc="http://creativecommons.org/ns#"
   xmlns:rdf="http://www.w3.org/1999/02/22-rdf-syntax-ns#"
   xmlns:svg="http://www.w3.org/2000/svg"
   xmlns="http://www.w3.org/2000/svg"
   xmlns:sodipodi="http://sodipodi.sourceforge.net/DTD/sodipodi-0.dtd"
   xmlns:inkscape="http://www.inkscape.org/namespaces/inkscape"
   viewBox="0 0 128 128"
   version="1.1"
   id="svg12"
   sodipodi:docname="os_ubuntugnome.svg"
   width="128"
   height="128"
   inkscape:export-filename="/home/la/projects/darkmini/icons/os_ubuntugnome.png"
   inkscape:export-xdpi="96"
   inkscape:export-ydpi="96"
   inkscape:version="0.92.4 5da689c313, 2019-01-14">
  <metadata
     id="metadata16">
    <rdf:RDF>
      <cc:Work
         rdf:about="">
        <dc:format>image/svg+xml</dc:format>
        <dc:type
           rdf:resource="http://purl.org/dc/dcmitype/StillImage" />
        <dc:title>Asset 1</dc:title>
      </cc:Work>
    </rdf:RDF>
  </metadata>
  <sodipodi:namedview
     pagecolor="#21252e"
     bordercolor="#666666"
     borderopacity="1"
     objecttolerance="10"
     gridtolerance="10"
     guidetolerance="10"
     inkscape:pageopacity="0"
     inkscape:pageshadow="2"
     inkscape:window-width="1366"
     inkscape:window-height="703"
     id="namedview14"
     showgrid="false"
     inkscape:zoom="1.6045885"
     inkscape:cx="-20.821723"
     inkscape:cy="29.213547"
     inkscape:window-x="0"
     inkscape:window-y="0"
     inkscape:window-maximized="1"
     inkscape:current-layer="Layer_2-2" />
  <defs
     id="defs4">
    <style
       id="style2">.cls-1{fill:#ecf0f1;}</style>
  </defs>
  <title
     id="title6">Asset 1</title>
  <g
     id="Layer_2"
     data-name="Layer 2"
     transform="matrix(1.2263746,0,0,1.2297488,32.007682,32.004883)">
    <g
       id="Layer_2-2"
       data-name="Layer 2">
      <path
         class="cls-1"
         d="M 26.48,0 C 12,-0.26 0.33,12.29 0,25.77 -0.33,39.25 12.43,52 26.09,52 39.39,52.86 52.18,39.41 52.18,26.56 A 26.51,26.51 0 0 0 26.48,0 Z m 5.92,39.4 c -3.84,3.84 -7.69,4.11 -11.78,0.5 -3.56,-3.15 -6.67,-6.82 -10.23,-10.53 l 2.7,-2.71 c 1.88,2 3.49,3.78 5.13,5.52 0.91,1 1.85,1.89 2.8,2.8 5,4.87 8,4.45 12.15,-2.18 L 20.1,20 22.37,17.59 37.74,33 a 82,82 0 0 1 -5.34,6.4 z m 8.37,-8.22 C 37.72,28.04 34.77,25.04 31.9,22.06 29.03,19.08 26,16.1 23,13 a 17,17 0 0 0 -1.58,1 c -4.83,4 -5,6.31 -0.58,10.91 l 8.06,8.35 -2.37,2.22 c -3.59,-3.41 -7.37,-6.57 -10.62,-10.2 -3.25,-3.63 -2.95,-7.57 0.4,-11.26 a 25.84,25.84 0 0 1 3.15,-2.93 c 1.3,-1 2.72,-1.9 3.93,-2.74 l 20,20.16 z"
         id="path8"
         inkscape:connector-curvature="0"
         style="fill:#ecf0f1;fill-opacity:0.99215686" />
    </g>
  </g>
</svg>
