<?xml version="1.0" encoding="UTF-8" standalone="no"?>
<!-- Created with Inkscape (http://www.inkscape.org/) -->

<svg
   width="110mm"
   height="110mm"
   viewBox="0 0 389.76378 389.7638"
   id="svg2"
   version="1.1"
   inkscape:version="1.1.2 (0a00cf5339, 2022-02-04)"
   sodipodi:docname="os_ubuntugnome2.svg"
   inkscape:export-filename="../icons/os_ubuntugnome.png"
   inkscape:export-xdpi="29.556362"
   inkscape:export-ydpi="29.556362"
   xmlns:inkscape="http://www.inkscape.org/namespaces/inkscape"
   xmlns:sodipodi="http://sodipodi.sourceforge.net/DTD/sodipodi-0.dtd"
   xmlns="http://www.w3.org/2000/svg"
   xmlns:svg="http://www.w3.org/2000/svg"
   xmlns:rdf="http://www.w3.org/1999/02/22-rdf-syntax-ns#"
   xmlns:cc="http://creativecommons.org/ns#"
   xmlns:dc="http://purl.org/dc/elements/1.1/">
  <defs
     id="defs4" />
  <sodipodi:namedview
     id="base"
     pagecolor="#21252e"
     bordercolor="#bebebe"
     borderopacity="1"
     inkscape:pageopacity="0"
     inkscape:pageshadow="2"
     inkscape:zoom="0.92708917"
     inkscape:cx="152.08893"
     inkscape:cy="184.44828"
     inkscape:document-units="px"
     inkscape:current-layer="g6445"
     showgrid="false"
     inkscape:window-width="2254"
     inkscape:window-height="955"
     inkscape:window-x="306"
     inkscape:window-y="36"
     inkscape:window-maximized="0"
     units="mm"
     inkscape:showpageshadow="false"
     showguides="true"
     inkscape:guide-bbox="true"
     inkscape:snap-global="false"
     inkscape:snap-bbox="true"
     inkscape:snap-others="true"
     fit-margin-top="0"
     fit-margin-left="0"
     fit-margin-right="0"
     fit-margin-bottom="0"
     inkscape:pagecheckerboard="0" />
  <metadata
     id="metadata7">
    <rdf:RDF>
      <cc:Work
         rdf:about="">
        <dc:format>image/svg+xml</dc:format>
        <dc:type
           rdf:resource="http://purl.org/dc/dcmitype/StillImage" />
      </cc:Work>
    </rdf:RDF>
  </metadata>
  <g
     inkscape:label="Layer 1"
     inkscape:groupmode="layer"
     id="layer1"
     style="opacity:0.96"
     transform="translate(-39.167521,88.250195)">
    <path
       style="fill:#000000"
       d=""
       id="path4134"
       inkscape:connector-curvature="0" />
    <g
       transform="translate(-141.01382,-425.49872)"
       style="display:inline"
       inkscape:label="debian vector"
       id="layer3">
      <g
         id="g4573"
         transform="translate(131.00657,-3.8976736)">
        <g
           id="g4627"
           style="opacity:0.99">
          <g
             id="g4740"
             transform="translate(-34.291185,268.4348)">
            <g
               transform="translate(380.29592,62.962549)"
               id="g4109">
              <g
                 transform="matrix(0.77230011,0,0,0.77230011,-239.76484,-6.9998595)"
                 style="fill:#ffffff;fill-opacity:1"
                 id="g4077">
                <g
                   id="layer1-5"
                   inkscape:label="Layer 1"
                   transform="matrix(1.2948334,0,0,1.2948334,-524.75052,-387.7468)">
                  <g
                     transform="translate(105.76257,-1.6247732)"
                     id="g6445">
                    <path
                       class="cls-1"
                       d="m 438.78705,415.28621 c -54.07332,-0.9736 -97.65316,46.02139 -98.8855,96.49888 -1.23234,50.47752 46.41794,98.22144 97.42912,98.22144 49.66681,3.22036 97.42911,-47.14478 97.42911,-95.26317 a 98.997539,99.269915 0 0 0 -95.97273,-99.45715 z m 22.10734,147.53809 c -14.3399,14.37936 -28.71711,15.3904 -43.99059,1.87232 -13.29429,-11.79558 -24.90811,-25.53832 -38.20237,-39.43087 l 10.08273,-10.14792 c 7.02056,7.48925 13.03286,14.15466 19.15718,20.67031 3.39826,3.74462 6.90857,7.07733 10.45619,10.48494 18.67174,18.2363 29.87478,16.66357 45.37231,-8.16328 l -48.80791,-47.93117 8.47697,-9.02452 57.3969,57.70462 a 306.21646,307.05896 0 0 1 -19.94141,23.96557 z m 31.25648,-30.78078 c -11.38974,-11.75814 -22.40609,-22.99197 -33.12365,-34.15097 -10.71759,-11.15897 -22.03266,-22.31794 -33.2357,-33.92628 a 63.483899,63.658565 0 0 0 -5.90025,3.74463 c -18.0369,14.97849 -18.67173,23.62858 -2.16592,40.85383 l 30.09883,31.2676 -8.8504,8.31304 c -13.40631,-12.76915 -27.52213,-24.60215 -39.65875,-38.19513 -12.13666,-13.59297 -11.01635,-28.3468 1.49373,-42.16444 a 96.495528,96.761019 0 0 1 11.76317,-10.97172 c 4.85467,-3.74463 10.15744,-7.11478 14.676,-10.26027 l 74.68692,75.49155 z"
                       id="path8"
                       inkscape:connector-curvature="0"
                       style="fill:#ecf0f1;fill-opacity:1;stroke-width:3.73949" />
                  </g>
                </g>
              </g>
            </g>
          </g>
        </g>
      </g>
    </g>
  </g>
</svg>
