<?xml version="1.0" encoding="UTF-8" standalone="no"?>
<!-- Created with Inkscape (http://www.inkscape.org/) -->

<svg
   width="400"
   height="400"
   viewBox="0 0 375.00001 375.00003"
   id="svg2"
   version="1.1"
   inkscape:version="1.1.2 (0a00cf5339, 2022-02-04)"
   sodipodi:docname="os_ubuntugnome.svg"
   inkscape:export-filename="../icons/os_ubuntugnome.png"
   inkscape:export-xdpi="30.719999"
   inkscape:export-ydpi="30.719999"
   xmlns:inkscape="http://www.inkscape.org/namespaces/inkscape"
   xmlns:sodipodi="http://sodipodi.sourceforge.net/DTD/sodipodi-0.dtd"
   xmlns="http://www.w3.org/2000/svg"
   xmlns:svg="http://www.w3.org/2000/svg"
   xmlns:rdf="http://www.w3.org/1999/02/22-rdf-syntax-ns#"
   xmlns:cc="http://creativecommons.org/ns#"
   xmlns:dc="http://purl.org/dc/elements/1.1/">
  <defs
     id="defs4" />
  <sodipodi:namedview
     id="base"
     pagecolor="#21252e"
     bordercolor="#bebebe"
     borderopacity="1"
     inkscape:pageopacity="0"
     inkscape:pageshadow="2"
     inkscape:zoom="0.88591022"
     inkscape:cx="288.96833"
     inkscape:cy="230.83603"
     inkscape:document-units="px"
     inkscape:current-layer="g4016"
     showgrid="false"
     inkscape:window-width="1942"
     inkscape:window-height="1082"
     inkscape:window-x="527"
     inkscape:window-y="233"
     inkscape:window-maximized="0"
     units="px"
     inkscape:showpageshadow="false"
     showguides="true"
     inkscape:guide-bbox="true"
     inkscape:snap-global="true"
     inkscape:snap-bbox="true"
     inkscape:snap-others="false"
     fit-margin-top="0"
     fit-margin-left="0"
     fit-margin-right="0"
     fit-margin-bottom="0"
     inkscape:pagecheckerboard="0"
     width="400px"
     inkscape:bbox-paths="true"
     inkscape:bbox-nodes="true"
     inkscape:snap-nodes="true">
    <sodipodi:guide
       position="93.750005,375.00002"
       orientation="-1,0"
       id="guide839"
       inkscape:label=""
       inkscape:locked="false"
       inkscape:color="rgb(0,0,255)" />
    <sodipodi:guide
       position="281.25001,375.00002"
       orientation="-1,0"
       id="guide841"
       inkscape:label=""
       inkscape:locked="false"
       inkscape:color="rgb(0,0,255)" />
    <sodipodi:guide
       position="0,281.25001"
       orientation="0,1"
       id="guide843"
       inkscape:label=""
       inkscape:locked="false"
       inkscape:color="rgb(0,0,255)" />
    <sodipodi:guide
       position="0,93.750005"
       orientation="0,1"
       id="guide845"
       inkscape:label=""
       inkscape:locked="false"
       inkscape:color="rgb(0,0,255)" />
  </sodipodi:namedview>
  <metadata
     id="metadata7">
    <rdf:RDF>
      <cc:Work
         rdf:about="">
        <dc:format>image/svg+xml</dc:format>
        <dc:type
           rdf:resource="http://purl.org/dc/dcmitype/StillImage" />
      </cc:Work>
    </rdf:RDF>
  </metadata>
  <g
     inkscape:label="Layer 1"
     inkscape:groupmode="layer"
     id="layer1"
     style="opacity:0.96"
     transform="translate(-39.167521,88.250195)">
    <path
       style="fill:#000000"
       d=""
       id="path4134"
       inkscape:connector-curvature="0" />
    <g
       transform="translate(-141.01382,-425.49872)"
       style="display:inline"
       inkscape:label="debian vector"
       id="layer3">
      <g
         id="g4573"
         transform="translate(131.00657,-3.8976736)">
        <g
           id="g4627"
           style="opacity:0.99">
          <g
             id="g4740"
             transform="translate(-34.291185,268.4348)">
            <g
               transform="translate(380.29592,62.962549)"
               id="g4109">
              <g
                 transform="matrix(0.77230011,0,0,0.77230011,-239.76484,-6.9998595)"
                 style="fill:#ffffff;fill-opacity:1"
                 id="g4077">
                <g
                   id="layer1-5"
                   inkscape:label="Layer 1"
                   transform="matrix(1.2948334,0,0,1.2948334,-524.75052,-387.7468)">
                  <g
                     transform="translate(105.76257,-1.6247732)"
                     id="g6445">
                    <g
                       id="g6415"
                       transform="matrix(3.0715506,0,0,3.0715506,-521.15168,-1035.6235)">
                      <g
                         transform="translate(126.06579,-105.54595)"
                         id="g4016">
                        <g
                           id="g4182"
                           transform="matrix(0.61815127,0,0,0.61815127,205.2279,224.79962)" />
                        <path
                           class="cls-1"
                           d="m 184.03857,576.71456 c -16.93773,-0.30497 -30.58852,14.41556 -30.97453,30.22695 -0.38601,15.81139 14.53978,30.76652 30.51833,30.76652 15.55746,1.00873 30.51834,-14.76746 30.51834,-29.83989 a 31.009625,31.094939 0 0 0 -30.06214,-31.15358 z m 6.92482,46.21428 c -4.49178,4.50414 -8.99524,4.82083 -13.77945,0.58648 -4.16425,-3.6948 -7.80212,-7.99953 -11.96637,-12.35118 l 3.15828,-3.17869 c 2.1991,2.3459 4.08236,4.43375 6.00073,6.47469 1.06445,1.17295 2.16401,2.21688 3.27525,3.28426 5.84867,5.71227 9.35787,5.21964 14.21225,-2.55704 l -15.2884,-15.01378 2.65529,-2.82681 17.97879,18.07519 a 95.91812,96.182009 0 0 1 -6.24637,7.50688 z m 9.79066,-9.64165 c -3.56768,-3.68308 -7.01839,-7.20192 -10.37552,-10.69733 -3.35714,-3.49539 -6.90143,-6.99079 -10.41063,-10.62694 a 19.885463,19.940173 0 0 0 -1.84817,1.17296 c -5.64982,4.6918 -5.84867,7.40132 -0.67845,12.7969 l 9.42805,9.79414 -2.77227,2.60394 c -4.19934,-3.99975 -8.62093,-7.70628 -12.42256,-11.9641 -3.80164,-4.25781 -3.45072,-8.87924 0.46789,-13.20743 a 30.225905,30.309063 0 0 1 3.68465,-3.43673 c 1.52066,-1.17296 3.18168,-2.22861 4.59705,-3.21389 l 23.39467,23.64668 z"
                           id="path8"
                           inkscape:connector-curvature="0"
                           style="display:inline;opacity:0.99;fill:#ecf0f1;fill-opacity:1;stroke-width:1.17134" />
                      </g>
                    </g>
                  </g>
                </g>
              </g>
            </g>
          </g>
        </g>
      </g>
    </g>
  </g>
</svg>
