<svg xmlns="http://www.w3.org/2000/svg" viewBox="0 0 52.18 52"><defs><style>.cls-1{fill:#ecf0f1;}</style></defs><title>Asset 1</title><g id="Layer_2" data-name="Layer 2"><g id="Layer_2-2" data-name="Layer 2"><path class="cls-1" d="M26.48,0C12-.26.33,12.29,0,25.77S12.43,52,26.09,52c13.3.86,26.09-12.59,26.09-25.44A26.51,26.51,0,0,0,26.48,0ZM32.4,39.4c-3.84,3.84-7.69,4.11-11.78.5-3.56-3.15-6.67-6.82-10.23-10.53l2.7-2.71c1.88,2,3.49,3.78,5.13,5.52.91,1,1.85,1.89,2.8,2.8,5,4.87,8,4.45,12.15-2.18L20.1,20l2.27-2.41L37.74,33A82,82,0,0,1,32.4,39.4Zm8.37-8.22c-3.05-3.14-6-6.14-8.87-9.12S26,16.1,23,13a17,17,0,0,0-1.58,1c-4.83,4-5,6.31-.58,10.91l8.06,8.35-2.37,2.22c-3.59-3.41-7.37-6.57-10.62-10.2s-2.95-7.57.4-11.26a25.84,25.84,0,0,1,3.15-2.93c1.3-1,2.72-1.9,3.93-2.74l20,20.16Z"/></g></g></svg>