<?xml version="1.0" encoding="UTF-8" standalone="no"?>
<!-- Created with Inkscape (http://www.inkscape.org/) -->

<svg
   width="110mm"
   height="110mm"
   viewBox="0 0 389.76378 389.7638"
   id="svg2"
   version="1.1"
   inkscape:version="1.1.2 (0a00cf5339, 2022-02-04)"
   sodipodi:docname="os_win8.svg"
   inkscape:export-filename="/home/rain/minidark/icons/os_win.png"
   inkscape:export-xdpi="29.556362"
   inkscape:export-ydpi="29.556362"
   xmlns:inkscape="http://www.inkscape.org/namespaces/inkscape"
   xmlns:sodipodi="http://sodipodi.sourceforge.net/DTD/sodipodi-0.dtd"
   xmlns="http://www.w3.org/2000/svg"
   xmlns:svg="http://www.w3.org/2000/svg"
   xmlns:rdf="http://www.w3.org/1999/02/22-rdf-syntax-ns#"
   xmlns:cc="http://creativecommons.org/ns#"
   xmlns:dc="http://purl.org/dc/elements/1.1/">
  <defs
     id="defs4" />
  <sodipodi:namedview
     id="base"
     pagecolor="#21252e"
     bordercolor="#bebebe"
     borderopacity="1"
     inkscape:pageopacity="0"
     inkscape:pageshadow="2"
     inkscape:zoom="0.44295511"
     inkscape:cx="-144.48417"
     inkscape:cy="269.77903"
     inkscape:document-units="px"
     inkscape:current-layer="g6445"
     showgrid="false"
     inkscape:window-width="1332"
     inkscape:window-height="714"
     inkscape:window-x="1228"
     inkscape:window-y="36"
     inkscape:window-maximized="0"
     units="mm"
     inkscape:showpageshadow="false"
     showguides="true"
     inkscape:guide-bbox="true"
     inkscape:snap-global="false"
     inkscape:snap-bbox="true"
     inkscape:snap-others="true"
     fit-margin-top="0"
     fit-margin-left="0"
     fit-margin-right="0"
     fit-margin-bottom="0"
     inkscape:pagecheckerboard="0" />
  <metadata
     id="metadata7">
    <rdf:RDF>
      <cc:Work
         rdf:about="">
        <dc:format>image/svg+xml</dc:format>
        <dc:type
           rdf:resource="http://purl.org/dc/dcmitype/StillImage" />
      </cc:Work>
    </rdf:RDF>
  </metadata>
  <g
     inkscape:label="Layer 1"
     inkscape:groupmode="layer"
     id="layer1"
     style="opacity:0.96"
     transform="translate(-39.167521,88.250195)">
    <path
       style="fill:#000000"
       d=""
       id="path4134"
       inkscape:connector-curvature="0" />
    <g
       transform="translate(-141.01382,-425.49872)"
       style="display:inline"
       inkscape:label="debian vector"
       id="layer3">
      <g
         id="g4573"
         transform="translate(131.00657,-3.8976736)">
        <g
           id="g4627"
           style="opacity:0.99">
          <g
             id="g4740"
             transform="translate(-34.291185,268.4348)">
            <g
               transform="translate(380.29592,62.962549)"
               id="g4109">
              <g
                 transform="matrix(0.77230011,0,0,0.77230011,-239.76484,-6.9998595)"
                 style="fill:#ffffff;fill-opacity:1"
                 id="g4077">
                <g
                   id="layer1-5"
                   inkscape:label="Layer 1"
                   transform="matrix(1.2948334,0,0,1.2948334,-524.75052,-387.7468)">
                  <g
                     transform="translate(105.76257,-1.6247732)"
                     id="g6445">
                    <path
                       style="fill:#ecf0f1"
                       d="m 429.18027,595.31322 c -0.12532,-25.74571 -0.13414,-51.49176 -0.14689,-77.23772 35.10079,0.11607 70.3002,-0.0406 105.33943,0.24567 0.33658,30.47967 -0.015,61.24107 -0.007,91.83205 -35.71181,-5.01847 -72.30274,-9.94601 -105.18531,-14.84 z m -10.37981,-1.23774 c -26.19092,-3.60411 -52.3806,-7.25731 -78.58302,-10.75314 l 0,-66.29372 c 26.42308,0.1027 52.84671,0.25223 79.26848,0.5386 -0.0656,25.48605 0.19632,51.20733 -0.0733,76.54676 z M 340.11954,442.90483 c 26.4607,-3.65556 52.93579,-7.27423 79.41536,-10.77521 -0.0819,25.47736 0.1632,51.19446 -0.12241,76.5224 -26.38722,0.18599 -52.77485,0.35649 -79.16259,0.44464 -0.10639,-22.14479 -0.13352,-46.18199 -0.13036,-66.19183 z m 89.07705,65.53923 c -0.15222,-25.84248 -0.0217,-51.80209 -0.0653,-77.68957 35.04501,-5.36108 70.19097,-10.25525 105.26697,-15.48316 -0.0817,30.77064 0.16321,61.78034 -0.12241,92.40165 -35.02521,0.35758 -70.05262,0.61512 -105.07929,0.77108 z"
                       id="path5621"
                       inkscape:connector-curvature="0"
                       sodipodi:nodetypes="ccccccccccccccccccccc" />
                  </g>
                </g>
              </g>
            </g>
          </g>
        </g>
      </g>
    </g>
  </g>
</svg>
