<?xml version="1.0" encoding="UTF-8" standalone="no"?>
<!-- Created with Inkscape (http://www.inkscape.org/) -->

<svg
   width="400"
   height="400"
   viewBox="0 0 375.00001 375.00003"
   id="svg2"
   version="1.1"
   inkscape:version="1.1.2 (0a00cf5339, 2022-02-04)"
   sodipodi:docname="os_xubuntu.svg"
   inkscape:export-filename="../icons/os_xubuntu.png"
   inkscape:export-xdpi="30.719999"
   inkscape:export-ydpi="30.719999"
   xmlns:inkscape="http://www.inkscape.org/namespaces/inkscape"
   xmlns:sodipodi="http://sodipodi.sourceforge.net/DTD/sodipodi-0.dtd"
   xmlns="http://www.w3.org/2000/svg"
   xmlns:svg="http://www.w3.org/2000/svg"
   xmlns:rdf="http://www.w3.org/1999/02/22-rdf-syntax-ns#"
   xmlns:cc="http://creativecommons.org/ns#"
   xmlns:dc="http://purl.org/dc/elements/1.1/">
  <defs
     id="defs4" />
  <sodipodi:namedview
     id="base"
     pagecolor="#21252e"
     bordercolor="#bebebe"
     borderopacity="1"
     inkscape:pageopacity="0"
     inkscape:pageshadow="2"
     inkscape:zoom="0.88591022"
     inkscape:cx="288.96833"
     inkscape:cy="230.83603"
     inkscape:document-units="px"
     inkscape:current-layer="svg2"
     showgrid="false"
     inkscape:window-width="1942"
     inkscape:window-height="1082"
     inkscape:window-x="527"
     inkscape:window-y="233"
     inkscape:window-maximized="0"
     units="px"
     inkscape:showpageshadow="false"
     showguides="true"
     inkscape:guide-bbox="true"
     inkscape:snap-global="true"
     inkscape:snap-bbox="true"
     inkscape:snap-others="false"
     fit-margin-top="0"
     fit-margin-left="0"
     fit-margin-right="0"
     fit-margin-bottom="0"
     inkscape:pagecheckerboard="0"
     width="400px"
     inkscape:bbox-paths="true"
     inkscape:bbox-nodes="true"
     inkscape:snap-nodes="true">
    <sodipodi:guide
       position="93.750005,375.00002"
       orientation="-1,0"
       id="guide839"
       inkscape:label=""
       inkscape:locked="false"
       inkscape:color="rgb(0,0,255)" />
    <sodipodi:guide
       position="281.25001,375.00002"
       orientation="-1,0"
       id="guide841"
       inkscape:label=""
       inkscape:locked="false"
       inkscape:color="rgb(0,0,255)" />
    <sodipodi:guide
       position="0,281.25001"
       orientation="0,1"
       id="guide843"
       inkscape:label=""
       inkscape:locked="false"
       inkscape:color="rgb(0,0,255)" />
    <sodipodi:guide
       position="0,93.750005"
       orientation="0,1"
       id="guide845"
       inkscape:label=""
       inkscape:locked="false"
       inkscape:color="rgb(0,0,255)" />
  </sodipodi:namedview>
  <metadata
     id="metadata7">
    <rdf:RDF>
      <cc:Work
         rdf:about="">
        <dc:format>image/svg+xml</dc:format>
        <dc:type
           rdf:resource="http://purl.org/dc/dcmitype/StillImage" />
      </cc:Work>
    </rdf:RDF>
  </metadata>
  <path
     style="display:inline;opacity:1;fill:#ecf0f1;fill-opacity:1;stroke:none;stroke-width:2.6103"
     d="m 183.21036,576.71012 c -14.50422,0.0104 -27.04821,9.98857 -30.15365,23.98713 1.32879,0.24701 2.68485,0.49342 4.0341,0.70536 2.17969,0.34231 4.26213,0.59212 5.90196,0.58776 0.82014,-0.002 1.56402,-0.0872 2.10487,-0.22625 0.54264,-0.13934 0.91231,-0.22988 1.1329,-0.4757 0.85009,-0.94676 1.86584,-2.10741 2.33336,-3.94847 0.0347,-0.13648 0.11108,-0.58827 0.10215,-0.72928 -0.021,-0.14245 -0.0651,-0.34885 -0.13708,-0.63289 -0.17095,-0.67428 -0.42474,-1.62586 -0.59477,-2.62183 -0.17017,-0.99787 -0.27875,-2.03465 -0.0457,-3.02884 0.22951,-0.97922 0.83045,-1.91278 1.87603,-2.48618 0.40491,-0.20004 0.88957,-0.2757 1.28093,-0.18085 0.40538,0.0983 0.75714,0.33643 1.09813,0.63258 0.68229,0.5926 1.26141,1.49453 1.78428,2.44139 0.52095,0.94342 0.96241,1.93842 1.32664,2.75752 0.18277,0.41119 0.37017,0.76001 0.50336,1.03958 0.0593,0.12481 0.0982,0.24624 0.13708,0.31644 0.0383,0.07 0.056,0.10924 0.0457,0.0905 0.0336,0.0553 0.0811,0.10223 0.13707,0.13571 -0.0328,-0.0208 0.11476,0.0622 0.22873,0.0902 0.17227,0.0423 0.33771,0.0555 0.50336,0.0454 0.0832,-0.005 0.16438,-0.0381 0.22872,-0.0905 0.0157,-0.0156 0.0307,-0.0288 0.0454,-0.0451 0.0533,-0.0636 0.0858,-0.14402 0.0916,-0.22627 0.008,-0.0448 0.008,-0.0908 0,-0.13569 -0.0704,-0.2439 -0.25263,-0.71086 -0.45766,-1.4466 -0.23714,-0.85046 -0.49086,-1.90365 -0.64047,-2.98339 -0.14995,-1.08198 -0.18356,-2.16851 0.0457,-3.11906 0.224,-0.92881 0.79928,-1.77301 1.7386,-2.12495 1.41642,-0.53855 2.66231,-0.16113 3.38545,0.67835 0.76003,0.88234 1.13768,2.16101 1.37268,3.52575 0.23398,1.3595 0.30528,2.78352 0.32022,3.88796 0.008,0.55167 9.6e-4,1.01392 0,1.35602 -1.7e-4,0.0319 1.3e-4,0.0671 0,0.0905 5.2e-4,0.0628 0.0157,0.12507 0.0457,0.18086 0.0336,0.0552 0.0811,0.10222 0.13708,0.13569 0.0422,0.0234 0.0893,0.0379 0.13708,0.0451 0.0858,0.0182 0.16596,0.0628 0.32024,0.0905 0.53267,0.0963 1.29004,0.17722 2.19626,0.31645 1.81332,0.27885 4.18951,0.72085 6.63416,1.35602 2.44516,0.6353 4.94194,1.49569 6.90834,2.7575 1.95962,1.25747 3.44771,2.91813 3.75172,5.10833 0.19249,1.35861 -0.80797,2.64276 -2.24163,3.88765 -1.43153,1.24305 -3.38022,2.47569 -5.39891,3.57119 -2.01792,1.09507 -4.09354,2.07424 -5.76488,2.84807 -0.83605,0.3871 -1.5373,0.72573 -2.10452,0.99446 -0.28692,0.13595 -0.54041,0.26141 -0.73185,0.36156 -0.19144,0.10015 -0.31266,0.15775 -0.41197,0.22626 -0.67747,0.46672 -0.98035,1.04566 -1.05209,1.62736 -0.0733,0.59446 0.061,1.20914 0.32024,1.67249 0.0157,8.9e-4 0.0303,8.9e-4 0.0454,0 0.003,0.005 -0.003,0.0413 0,0.0454 0.003,0.005 0.0428,-0.005 0.0457,0 0.005,0.005 -9.6e-4,0.0436 0,0.0451 0.0793,0.1139 0.17069,0.18889 0.32024,0.36153 0.18094,0.20887 0.4291,0.49566 0.6865,0.7686 0.51166,0.54256 1.11102,1.18373 1.69256,1.85325 0.58217,0.67022 1.13678,1.36562 1.5101,2.03439 0.37875,0.67871 0.62405,1.31036 0.41163,1.94382 -0.008,0.0208 -0.0383,-0.0182 -0.0457,0 -0.063,0.15775 -0.25393,0.27745 -0.36593,0.31644 -0.15547,0.054 -0.28207,0.0921 -0.45767,0.0905 -0.32797,-0.005 -0.69498,-0.0768 -1.14351,-0.18085 -0.88959,-0.20601 -1.98901,-0.58502 -3.11125,-0.94939 -1.12233,-0.36439 -2.24993,-0.72382 -3.11126,-0.94933 -0.31268,-0.082 -0.53269,-0.10223 -0.73185,-0.1357 -0.21639,-0.0288 -0.43863,0.14659 -0.45769,0.36156 -0.008,0.0775 0.008,0.15698 0.0457,0.22601 0.0549,0.10248 0.11844,0.25038 0.27453,0.45209 0.45844,0.59238 1.17627,1.27314 1.87569,2.03439 0.70102,0.763 1.34317,1.58619 1.6929,2.44105 0.33477,0.81817 0.29422,1.82148 -0.41163,2.57672 -0.0297,0.026 -0.031,0.0364 -0.0457,0.0451 -0.2093,0.13388 -0.28834,0.0978 -0.50337,0.0905 -0.17593,-0.005 -0.37223,0.002 -0.59476,-0.0451 -0.4421,-0.0926 -0.97345,-0.28341 -1.60118,-0.49722 -1.25322,-0.42684 -2.82056,-1.02979 -4.34647,-1.67282 -1.52591,-0.64304 -3.00951,-1.31199 -4.11801,-1.80817 -0.62274,-0.25921 -1.1903,-0.6438 -1.88148,-0.66672 -0.14521,-0.0104 -0.33857,-0.008 -0.58896,0.0338 -0.50121,0.0815 -1.22155,0.15984 -2.10453,0.27135 -1.66645,0.21016 -3.94514,0.47334 -6.57855,0.60863 5.71695,5.32 13.27003,8.28886 21.12336,8.30292 17.06067,-1e-4 30.89101,-13.66538 30.89092,-30.52221 -1.1e-4,-16.85673 -13.83039,-30.52175 -30.89092,-30.52188 z m 14.04005,9.34422 c 0.25708,-0.0156 0.52218,0.40712 0.56848,0.67564 0.19563,2.97563 -0.31654,6.0221 -1.06128,8.8948 -0.0415,0.60823 -0.84893,1.3569 -1.28367,0.60966 -0.50727,-1.70985 0.0979,-3.54334 0.27761,-5.26723 0.3757,-1.56771 0.41674,-3.34023 1.25261,-4.73107 0.0757,-0.12351 0.16045,-0.17695 0.24632,-0.18189 z m 6.47555,1.70699 c 0.41948,0.005 0.5781,0.44455 0.42461,0.81573 -1.22169,3.07807 -2.71658,6.11044 -4.70153,8.78549 -0.34812,0.6662 -1.39656,0.54667 -1.40095,-0.25609 0.13812,-2.21642 1.57559,-4.12518 2.64982,-6.00609 0.89551,-1.14946 1.55036,-2.71899 2.94076,-3.334 0.0303,-0.005 0.0593,-0.005 0.0872,-0.005 z"
     id="path3316"
     inkscape:connector-curvature="0"
     sodipodi:nodetypes="ccscccccccscscscccccccccccscscscccccccccsscsssccccccccccsscccccccccccssccccccsccccccscscccccsscccccs"
     transform="matrix(3.07155,0,0,3.07155,-376.371,-1677.65)" />
</svg>
