<?xml version="1.0" encoding="UTF-8" standalone="no"?>
<!-- Created with Inkscape (http://www.inkscape.org/) -->

<svg
   width="400"
   height="400"
   viewBox="0 0 375.00001 375.00003"
   id="svg2"
   version="1.1"
   inkscape:version="1.1.2 (0a00cf5339, 2022-02-04)"
   sodipodi:docname="vol_external.svg"
   inkscape:export-filename="../icons/vol_external.png"
   inkscape:export-xdpi="7.6799998"
   inkscape:export-ydpi="7.6799998"
   xmlns:inkscape="http://www.inkscape.org/namespaces/inkscape"
   xmlns:sodipodi="http://sodipodi.sourceforge.net/DTD/sodipodi-0.dtd"
   xmlns="http://www.w3.org/2000/svg"
   xmlns:svg="http://www.w3.org/2000/svg"
   xmlns:rdf="http://www.w3.org/1999/02/22-rdf-syntax-ns#"
   xmlns:cc="http://creativecommons.org/ns#"
   xmlns:dc="http://purl.org/dc/elements/1.1/">
  <defs
     id="defs4" />
  <sodipodi:namedview
     id="base"
     pagecolor="#21252e"
     bordercolor="#bebebe"
     borderopacity="1"
     inkscape:pageopacity="0"
     inkscape:pageshadow="2"
     inkscape:zoom="1.7718204"
     inkscape:cx="285.0176"
     inkscape:cy="193.30402"
     inkscape:document-units="px"
     inkscape:current-layer="svg2"
     showgrid="false"
     inkscape:window-width="1942"
     inkscape:window-height="1082"
     inkscape:window-x="372"
     inkscape:window-y="162"
     inkscape:window-maximized="0"
     units="px"
     inkscape:showpageshadow="false"
     showguides="true"
     inkscape:guide-bbox="true"
     inkscape:snap-global="true"
     inkscape:snap-bbox="true"
     inkscape:snap-others="false"
     fit-margin-top="0"
     fit-margin-left="0"
     fit-margin-right="0"
     fit-margin-bottom="0"
     inkscape:pagecheckerboard="0"
     width="400px"
     inkscape:bbox-paths="true"
     inkscape:bbox-nodes="true"
     inkscape:snap-nodes="true">
    <sodipodi:guide
       position="84.375004,375.00002"
       orientation="-1,0"
       id="guide839"
       inkscape:label=""
       inkscape:locked="false"
       inkscape:color="rgb(0,0,255)" />
    <sodipodi:guide
       position="290.62502,375.00002"
       orientation="-1,0"
       id="guide841"
       inkscape:label=""
       inkscape:locked="false"
       inkscape:color="rgb(0,0,255)" />
    <sodipodi:guide
       position="0,234.37501"
       orientation="0,1"
       id="guide843"
       inkscape:label=""
       inkscape:locked="false"
       inkscape:color="rgb(0,0,255)" />
    <sodipodi:guide
       position="0,28.125001"
       orientation="0,1"
       id="guide845"
       inkscape:label=""
       inkscape:locked="false"
       inkscape:color="rgb(0,0,255)" />
  </sodipodi:namedview>
  <metadata
     id="metadata7">
    <rdf:RDF>
      <cc:Work
         rdf:about="">
        <dc:format>image/svg+xml</dc:format>
        <dc:type
           rdf:resource="http://purl.org/dc/dcmitype/StillImage" />
      </cc:Work>
    </rdf:RDF>
  </metadata>
  <path
     style="display:inline;opacity:1;fill:#ecf0f1;fill-opacity:1;stroke:none;stroke-width:24.7556;stroke-linecap:round;stroke-linejoin:miter;stroke-miterlimit:4;stroke-dasharray:none;stroke-opacity:1"
     d="m 156.45158,591.97092 c -3.57145,0 -6.44707,2.50299 -6.44707,5.61215 v 55.92422 c 0,3.10918 2.87562,5.61213 6.44707,5.61213 h 54.25476 c 3.57145,0 6.44667,-2.50295 6.44667,-5.61213 v -55.92422 c 0,-3.10916 -2.87522,-5.61215 -6.44667,-5.61215 z m 27.13,1.48179 4.27409,7.13007 h -2.9429 v 27.53208 l 8.49291,-7.09773 c 0.54829,-0.60363 0.93335,-1.39487 0.95362,-2.20785 0,-4.25055 0.002,-5.7453 0.002,-5.7453 h -2.01389 v -7.13199 h 6.87851 v 7.13199 h -2.19962 l 9.4e-4,5.67604 c 0,1.59656 -0.99133,3.26977 -2.154,4.3344 0.034,-0.0299 0.0719,-0.0592 -4.4e-4,7.9e-4 -0.0291,0.0231 -9.00787,7.52775 -9.00787,7.52775 -0.54811,0.60207 -0.93138,1.39063 -0.95444,2.20128 v 8.95907 c 5.9e-4,0.0112 0,0.0225 0,0.0312 v 3.71935 c 3.08732,0.54645 4.90372,3.28304 4.90372,6.16867 0,3.28928 -2.51031,5.95552 -6.23582,5.95552 -3.7244,0 -6.35618,-2.66624 -6.35618,-5.95552 0,-2.88502 1.93628,-5.62141 5.0211,-6.16791 v -3.79172 c -0.0206,-0.81221 -0.4044,-1.60172 -0.95184,-2.20435 0,0 -8.97925,-7.50606 -9.00831,-7.52894 -0.0721,-0.0603 -0.035,-0.0303 -4.6e-4,-8.3e-4 -1.16286,-1.06459 -2.15483,-2.73737 -2.15483,-4.33362 l 9.4e-4,-5.8897 c -1.57088,-0.48719 -2.49579,-1.79578 -2.49579,-3.35158 0,-1.96832 1.59904,-3.78316 3.83003,-3.78316 2.23002,0 3.72037,1.81497 3.72037,3.78316 0,1.5558 -0.81659,2.86439 -2.38873,3.35158 9e-4,0.71877 0.002,2.67158 0.002,5.95976 0.0206,0.8128 0.40577,1.60273 0.954,2.20666 l 8.4916,7.09618 v -36.44457 h -2.89901 l 4.23589,-7.13009 0.002,-3.5e-4 z"
     id="rect4202"
     inkscape:connector-curvature="0"
     sodipodi:nodetypes="sssssssssccccccccccccccccccscssscccccccsssccccccccc"
     transform="matrix(3.07155,0,0,3.07155,-376.371,-1677.65)" />
</svg>
