<?xml version="1.0" encoding="UTF-8" standalone="no"?>
<!-- Created with Inkscape (http://www.inkscape.org/) -->

<svg
   width="110mm"
   height="110mm"
   viewBox="0 0 389.76378 389.7638"
   id="svg2"
   version="1.1"
   inkscape:version="1.1.2 (0a00cf5339, 2022-02-04)"
   sodipodi:docname="vol_external.svg"
   inkscape:export-filename="/home/rain/minidark/icons/vol_external.png"
   inkscape:export-xdpi="7.3890905"
   inkscape:export-ydpi="7.3890905"
   xmlns:inkscape="http://www.inkscape.org/namespaces/inkscape"
   xmlns:sodipodi="http://sodipodi.sourceforge.net/DTD/sodipodi-0.dtd"
   xmlns="http://www.w3.org/2000/svg"
   xmlns:svg="http://www.w3.org/2000/svg"
   xmlns:rdf="http://www.w3.org/1999/02/22-rdf-syntax-ns#"
   xmlns:cc="http://creativecommons.org/ns#"
   xmlns:dc="http://purl.org/dc/elements/1.1/">
  <defs
     id="defs4" />
  <sodipodi:namedview
     id="base"
     pagecolor="#21252e"
     bordercolor="#bebebe"
     borderopacity="1"
     inkscape:pageopacity="0"
     inkscape:pageshadow="2"
     inkscape:zoom="0.75207388"
     inkscape:cx="78.44974"
     inkscape:cy="152.24568"
     inkscape:document-units="px"
     inkscape:current-layer="g6354"
     showgrid="false"
     inkscape:window-width="1332"
     inkscape:window-height="714"
     inkscape:window-x="1228"
     inkscape:window-y="36"
     inkscape:window-maximized="0"
     units="mm"
     inkscape:showpageshadow="false"
     showguides="true"
     inkscape:guide-bbox="true"
     inkscape:snap-global="false"
     inkscape:snap-bbox="true"
     inkscape:snap-others="true"
     fit-margin-top="0"
     fit-margin-left="0"
     fit-margin-right="0"
     fit-margin-bottom="0"
     inkscape:pagecheckerboard="0" />
  <metadata
     id="metadata7">
    <rdf:RDF>
      <cc:Work
         rdf:about="">
        <dc:format>image/svg+xml</dc:format>
        <dc:type
           rdf:resource="http://purl.org/dc/dcmitype/StillImage" />
      </cc:Work>
    </rdf:RDF>
  </metadata>
  <g
     inkscape:label="Layer 1"
     inkscape:groupmode="layer"
     id="layer1"
     style="opacity:0.96"
     transform="translate(-39.167521,88.250195)">
    <path
       style="fill:#000000"
       d=""
       id="path4134"
       inkscape:connector-curvature="0" />
    <g
       transform="translate(-141.01382,-425.49872)"
       style="display:inline"
       inkscape:label="debian vector"
       id="layer3">
      <g
         id="g4573"
         transform="translate(131.00657,-3.8976736)">
        <g
           id="g4627"
           style="opacity:0.99">
          <g
             id="g4740"
             transform="translate(-34.291185,268.4348)">
            <g
               transform="translate(380.29592,62.962549)"
               id="g4109">
              <g
                 transform="matrix(0.77230011,0,0,0.77230011,-239.76484,-6.9998595)"
                 style="fill:#ffffff;fill-opacity:1"
                 id="g4077">
                <g
                   id="layer1-5"
                   inkscape:label="Layer 1"
                   transform="matrix(1.2948334,0,0,1.2948334,-524.75052,-387.7468)">
                  <g
                     transform="translate(105.76257,-1.6247732)"
                     id="g6445">
                    <g
                       transform="matrix(0.73714688,0,0,0.72683577,246.12512,-72.471736)"
                       id="layer1-2"
                       inkscape:label="Layer 1">
                      <g
                         inkscape:export-ydpi="90"
                         inkscape:export-xdpi="90"
                         inkscape:export-filename="/ssh/alshainfi/emonk.fi/open/xubuntu/Logo renew/comparison.png"
                         transform="matrix(11.396466,0,0,11.396466,-4205.4876,-10080.568)"
                         id="g6354">
                        <path
                           style="opacity:1;fill:#ecf0f1;fill-opacity:1;stroke:none;stroke-width:10.30000019;stroke-linecap:round;stroke-linejoin:miter;stroke-miterlimit:4;stroke-dasharray:none;stroke-opacity:1"
                           d="m 381.24468,947.02736 c -1.38646,0 -2.5028,1.11615 -2.5028,2.50261 l 0,24.93814 c 0,1.38647 1.11634,2.5026 2.5028,2.5026 l 21.06209,0 c 1.38646,0 2.50264,-1.11613 2.50264,-2.5026 l 0,-24.93814 c 0,-1.38646 -1.11618,-2.50261 -2.50264,-2.50261 l -21.06209,0 z m 10.53206,0.66077 1.81033,3.17949 -1.29355,0 0,12.27731 3.29701,-3.16507 c 0.21285,-0.26918 0.36233,-0.62201 0.3702,-0.98454 0,-1.89544 6.4e-4,-2.56199 6.4e-4,-2.56199 l -1.04981,0 0,-3.18035 3.13554,0 0,3.18035 -1.05116,0 5.2e-4,2.5311 c 0,0.71195 -0.38484,1.45808 -0.8362,1.93283 0.0132,-0.0133 0.0279,-0.0264 -1.7e-4,3.5e-4 -0.0113,0.0103 -3.49692,3.35683 -3.49692,3.35683 -0.21278,0.26848 -0.36157,0.62012 -0.37052,0.98161 l 0,3.9951 c 2.3e-4,0.005 0,0.01 0,0.0139 l 0,1.80631 c 1.19852,0.24368 2.10163,1.31625 2.10163,2.60303 0,1.46678 -1.17249,2.65573 -2.61876,2.65573 -1.44584,0 -2.61807,-1.18895 -2.61807,-2.65573 0,-1.28651 0.90223,-2.35899 2.09978,-2.60269 l 0,-1.83858 c -0.008,-0.36219 -0.15699,-0.71425 -0.36951,-0.98298 0,0 -3.48581,-3.34716 -3.49709,-3.35736 -0.028,-0.0269 -0.0136,-0.0135 -1.8e-4,-5.1e-4 -0.45143,-0.47473 -0.83652,-1.22067 -0.83652,-1.93248 l 5.1e-4,-2.62638 c -0.60983,-0.21725 -1.05015,-0.80079 -1.05015,-1.49456 0,-0.87773 0.70202,-1.59001 1.56811,-1.59001 0.86571,0 1.56793,0.71234 1.56793,1.59001 0,0.69377 -0.44066,1.27731 -1.05098,1.49456 3.5e-4,0.32052 6.5e-4,1.19133 6.5e-4,2.65762 0.008,0.36245 0.15752,0.7147 0.37035,0.98401 l 3.2965,3.16438 0,-16.25163 -1.29151,0 1.8105,-3.1795 6.4e-4,-1.6e-4 z"
                           id="rect4202"
                           inkscape:connector-curvature="0" />
                      </g>
                    </g>
                  </g>
                </g>
              </g>
            </g>
          </g>
        </g>
      </g>
    </g>
  </g>
</svg>
